<svg width="24" height="24" viewBox="0 0 24 24" fill="none" xmlns="http://www.w3.org/2000/svg">
  <path d="M5.9263 7.8526C6.99017 7.8526 7.8526 6.99017 7.8526 5.9263C7.8526 4.86243 6.99017 4 5.9263 4C4.86243 4 4 4.86243 4 5.9263C4 6.99017 4.86243 7.8526 5.9263 7.8526Z" fill="#E9EAEA"/>
  <path d="M9.67154 9.31197V19.9991H12.9897V14.7141C12.9897 13.3195 13.2521 11.969 14.9812 11.969C16.6865 11.969 16.7076 13.5634 16.7076 14.8021V19.9999H20.0276V14.1392C20.0276 11.2603 19.4078 9.04785 16.0429 9.04785C14.4274 9.04785 13.3445 9.93441 12.9017 10.7734H12.8568V9.31197H9.67154ZM4.26416 9.31197H7.58765V19.9991H4.26416V9.31197Z" fill="#E9EAEA"/>
</svg>
