<svg width="24" height="24" viewBox="0 0 24 24" fill="none" xmlns="http://www.w3.org/2000/svg">
  <path d="M20 7.54406C19.4116 7.79787 18.7713 7.98054 18.1118 8.05169C18.7965 7.64488 19.3093 7.0022 19.5539 6.24421C18.9113 6.62645 18.2074 6.89449 17.4734 7.03642C17.1666 6.70844 16.7955 6.44715 16.3833 6.26884C15.9711 6.09053 15.5266 5.99902 15.0775 6.00001C13.2604 6.00001 11.7991 7.47291 11.7991 9.28039C11.7991 9.53421 11.8298 9.78802 11.8798 10.0322C9.159 9.88993 6.73236 8.59009 5.1191 6.59994C4.82514 7.10202 4.6711 7.67371 4.673 8.25551C4.673 9.39384 5.25177 10.3976 6.13436 10.9879C5.61424 10.9674 5.1063 10.8244 4.65184 10.5706V10.611C4.65184 12.205 5.77863 13.526 7.28038 13.8299C6.99841 13.9031 6.70834 13.9406 6.41702 13.9414C6.20358 13.9414 6.00168 13.9202 5.79786 13.8914C6.2132 15.1912 7.42267 16.1354 8.86288 16.1661C7.73609 17.0487 6.32472 17.5679 4.79221 17.5679C4.51725 17.5679 4.26343 17.5583 4 17.5275C5.45367 18.4601 7.17846 18.9985 9.03593 18.9985C15.066 18.9985 18.3656 14.0029 18.3656 9.66688C18.3656 9.52459 18.3656 9.3823 18.356 9.24001C18.9944 8.77276 19.5539 8.19398 20 7.54406Z" fill="#E9EAEA"/>
</svg>
