<svg width="13" height="8" viewBox="0 0 13 8" fill="none" xmlns="http://www.w3.org/2000/svg">
<path fill-rule="evenodd" clip-rule="evenodd" d="M12.6487 7.03356C12.4236 7.25852 12.1185 7.3849 11.8003 7.3849C11.4821 7.3849 11.1769 7.25852 10.9519 7.03356L7.00026 3.08196L3.04865 7.03356C2.93796 7.14817 2.80554 7.23959 2.65914 7.30248C2.51274 7.36537 2.35527 7.39847 2.19594 7.39986C2.0366 7.40124 1.87859 7.37088 1.73111 7.31054C1.58363 7.2502 1.44965 7.1611 1.33698 7.04843C1.22431 6.93576 1.13521 6.80178 1.07487 6.6543C1.01453 6.50682 0.984169 6.34881 0.985554 6.18947C0.986939 6.03014 1.02004 5.87268 1.08293 5.72627C1.14582 5.57987 1.23724 5.44745 1.35186 5.33676L6.15186 0.536757C6.37689 0.311791 6.68206 0.185413 7.00026 0.185413C7.31845 0.185413 7.62362 0.311791 7.84866 0.536757L12.6487 5.33676C12.8736 5.56179 13 5.86696 13 6.18516C13 6.50335 12.8736 6.80852 12.6487 7.03356Z" fill="#21282F"/>
</svg>
