<svg width="24" height="24" viewBox="0 0 24 24" fill="none" xmlns="http://www.w3.org/2000/svg">
  <path d="M14.6667 12C14.6667 11.2928 14.3857 10.6145 13.8856 10.1144C13.3855 9.61429 12.7072 9.33333 12 9.33333C11.2928 9.33333 10.6145 9.61429 10.1144 10.1144C9.61429 10.6145 9.33333 11.2928 9.33333 12C9.33333 12.7072 9.61429 13.3855 10.1144 13.8856C10.6145 14.3857 11.2928 14.6667 12 14.6667C12.7072 14.6667 13.3855 14.3857 13.8856 13.8856C14.3857 13.3855 14.6667 12.7072 14.6667 12ZM14.6667 12V13C14.6667 13.442 14.8423 13.8659 15.1548 14.1785C15.4674 14.4911 15.8913 14.6667 16.3333 14.6667C16.7754 14.6667 17.1993 14.4911 17.5118 14.1785C17.8244 13.8659 18 13.442 18 13V12C18 10.8133 17.6481 9.65327 16.9888 8.66658C16.3295 7.67989 15.3925 6.91085 14.2961 6.45673C13.1997 6.0026 11.9933 5.88378 10.8295 6.11529C9.66557 6.3468 8.59648 6.91825 7.75736 7.75736C6.91825 8.59648 6.3468 9.66557 6.11529 10.8295C5.88378 11.9933 6.0026 13.1997 6.45673 14.2961C6.91085 15.3925 7.67989 16.3295 8.66658 16.9888C9.65327 17.6481 10.8133 18 12 18C13.0535 18.001 14.0885 17.7241 15 17.196" stroke="#E9EAEA" stroke-width="1.5" stroke-linecap="round" stroke-linejoin="round"/>
</svg>
