<svg width="24" height="24" viewBox="0 0 24 24" fill="none" xmlns="http://www.w3.org/2000/svg">
  <path d="M6 7.33333C6 6.97971 6.14048 6.64057 6.39052 6.39052C6.64057 6.14048 6.97971 6 7.33333 6H9.52C9.65986 6.00011 9.79615 6.0442 9.90957 6.12603C10.023 6.20787 10.1078 6.3233 10.152 6.456L11.1507 9.45133C11.2013 9.60356 11.1953 9.76893 11.1338 9.9171C11.0723 10.0653 10.9595 10.1863 10.816 10.258L9.31133 11.0113C10.0489 12.6437 11.3563 13.9511 12.9887 14.6887L13.742 13.184C13.8137 13.0405 13.9347 12.9277 14.0829 12.8662C14.2311 12.8047 14.3964 12.7987 14.5487 12.8493L17.544 13.848C17.6768 13.8922 17.7923 13.9771 17.8742 14.0907C17.956 14.2043 18 14.3407 18 14.4807V16.6667C18 17.0203 17.8595 17.3594 17.6095 17.6095C17.3594 17.8595 17.0203 18 16.6667 18H16C10.4773 18 6 13.5227 6 8V7.33333Z" stroke="#E9EAEA" stroke-width="1.5" stroke-linecap="round" stroke-linejoin="round"/>
</svg>
