<svg width="24" height="24" viewBox="0 0 24 24" fill="none" xmlns="http://www.w3.org/2000/svg">
  <path d="M18 12C18 13.5913 17.3679 15.1174 16.2426 16.2426C15.1174 17.3679 13.5913 18 12 18M18 12C18 10.4087 17.3679 8.88258 16.2426 7.75736C15.1174 6.63214 13.5913 6 12 6M18 12H12H6M12 18C10.4087 18 8.88258 17.3679 7.75736 16.2426C6.63214 15.1174 6 13.5913 6 12M12 18C13.1047 18 14 15.3133 14 12C14 8.68667 13.1047 6 12 6M12 18C10.8953 18 10 15.3133 10 12C10 8.68667 10.8953 6 12 6M12 6C10.4087 6 8.88258 6.63214 7.75736 7.75736C6.63214 8.88258 6 10.4087 6 12" stroke="#E9EAEA" stroke-width="1.5" stroke-linecap="round" stroke-linejoin="round"/>
</svg>
