<svg width="239" height="185" viewBox="0 0 239 185" fill="none" xmlns="http://www.w3.org/2000/svg">
<g clip-path="url(#clip0_1587_3808)">
<path d="M169.121 202.892C165.279 199.643 162.945 194.511 163.557 189.515C164.169 184.518 167.96 179.925 172.876 178.864C177.793 177.803 183.397 180.74 184.891 185.547C185.712 176.279 186.659 166.624 191.582 158.732C196.04 151.586 203.761 146.472 212.128 145.558C220.495 144.643 229.305 148.098 234.524 154.708C239.742 161.318 241.02 170.927 237.365 178.516C234.672 184.106 229.712 188.267 224.515 191.651C207.721 202.496 187.578 206.907 167.794 204.071" fill="#F2F2F2"/>
<path d="M226.249 148.29C219.345 153.919 213.011 160.214 207.339 167.084C198.463 177.799 191.28 189.813 186.041 202.707C185.657 203.647 187.183 204.057 187.562 203.126C190.894 194.974 195.016 187.169 199.869 179.822C207.437 168.344 216.709 158.088 227.365 149.407C228.153 148.765 227.03 147.654 226.249 148.291V148.29Z" fill="white"/>
<path d="M166.467 202.892C170.309 199.643 172.642 194.511 172.03 189.515C171.418 184.518 167.628 179.925 162.712 178.864C157.795 177.803 152.191 180.74 150.697 185.547C149.875 176.279 148.928 166.624 144.005 158.732C139.548 151.586 131.827 146.472 123.46 145.558C115.092 144.643 106.283 148.098 101.064 154.708C95.8457 161.318 94.568 170.927 98.2229 178.516C100.915 184.106 105.876 188.267 111.073 191.651C127.867 202.496 148.009 206.907 167.794 204.071" fill="#F2F2F2"/>
<path d="M109.339 148.29C116.243 153.919 122.577 160.214 128.248 167.084C137.125 177.799 144.308 189.813 149.547 202.707C149.931 203.647 148.405 204.057 148.025 203.126C139.453 182.172 125.768 163.702 108.223 149.407C107.435 148.765 108.557 147.654 109.339 148.291V148.29Z" fill="white"/>
<path d="M155.067 92.2339C147.96 92.2339 142.199 86.4676 142.199 79.3545C142.199 72.2414 147.96 66.4751 155.067 66.4751C162.174 66.4751 167.936 72.2414 167.936 79.3545C167.936 86.4676 162.174 92.2339 155.067 92.2339Z" fill="#F2F2F2"/>
<path d="M194.744 34.957H106.084V39.8119H183.426C187.973 39.8119 192.476 40.7083 196.677 42.45C200.878 44.1917 204.696 46.7445 207.911 49.9628C211.127 53.181 213.677 57.0016 215.418 61.2064C217.158 65.4113 218.054 69.918 218.054 74.4693V129.626H227.755C228.184 129.626 228.595 129.455 228.898 129.152C229.201 128.848 229.372 128.437 229.372 128.008V69.6144C229.372 65.0632 228.476 60.5564 226.736 56.3516C224.996 52.1468 222.445 48.3262 219.23 45.1079C216.014 41.8897 212.197 39.3368 207.995 37.5951C203.794 35.8535 199.291 34.957 194.744 34.957Z" fill="#F2F2F2"/>
<path d="M177.69 203.163V129.418H156.105V203.163C156.105 203.659 156.302 204.134 156.652 204.484C157.003 204.835 157.477 205.032 157.973 205.033H175.822C176.318 205.032 176.792 204.835 177.143 204.484C177.493 204.134 177.69 203.659 177.69 203.163Z" fill="#3F3D56"/>
<path d="M233.938 127.963V67.9972C233.927 58.451 230.133 49.2989 223.389 42.5487C216.645 35.7985 207.5 32.0015 197.962 31.9907H106.499V130.04H231.862C232.413 130.04 232.94 129.821 233.329 129.431C233.718 129.042 233.937 128.514 233.938 127.963ZM107.329 32.8217H197.962C207.28 32.8322 216.213 36.5416 222.802 43.136C229.391 49.7304 233.097 58.6713 233.108 67.9972V127.963C233.107 128.294 232.976 128.61 232.743 128.844C232.509 129.078 232.193 129.209 231.862 129.209H107.329V32.8217Z" fill="#3F3D56"/>
<path d="M155.067 86.0017C157.048 85.9995 158.947 85.2108 160.348 83.8089C161.749 82.4069 162.537 80.506 162.539 78.5233V24.9284C162.539 24.5979 162.671 24.2811 162.904 24.0474C163.138 23.8138 163.454 23.6823 163.784 23.682H192.842C193.392 23.6813 193.92 23.4623 194.309 23.0728C194.698 22.6834 194.917 22.1554 194.918 21.6047V2.07781C194.917 1.52707 194.698 0.99906 194.309 0.609624C193.92 0.220189 193.392 0.00112604 192.842 0.000488281H149.671C149.12 0.00111835 148.593 0.220181 148.204 0.609618C147.815 0.999055 147.596 1.52706 147.595 2.07781V78.5233C147.597 80.506 148.385 82.4069 149.786 83.8089C151.187 85.2108 153.086 85.9995 155.067 86.0017Z" fill="#6E00FF"/>
<path d="M103.178 31.1602C96.9158 31.1471 90.9049 33.6243 86.4675 38.0468C82.0302 42.4694 79.5299 48.475 79.5167 54.7426V123.007H33.0243C31.1567 123.004 29.364 123.742 28.0405 125.061C26.7171 126.38 25.9714 128.172 25.9675 130.041H126.839V54.7426C126.826 48.475 124.326 42.4694 119.889 38.0468C115.451 33.6243 109.44 31.1471 103.178 31.1602Z" fill="#3F3D56"/>
<path d="M108.856 70.0342L103.957 90.2906L8.11542 67.0696L13.0149 46.8132C13.0741 46.5655 13.1949 46.3368 13.366 46.1484C13.537 45.9599 13.7529 45.8177 13.9936 45.7351C14.1713 45.6725 14.3592 45.6442 14.5474 45.6516L69.9478 16.9422C70.2724 16.7763 70.6456 16.732 71 16.8173C71.3544 16.9025 71.6668 17.1118 71.8806 17.4072L98.5805 54.6718L108.646 68.724C108.664 68.7486 108.677 68.7769 108.683 68.8069C108.69 68.8369 108.69 68.8679 108.683 68.8978C108.888 69.239 108.95 69.6473 108.856 70.0342Z" fill="white"/>
<path d="M108.683 68.8978C108.678 68.9241 108.668 68.9493 108.654 68.9718C108.639 68.9943 108.621 69.0138 108.599 69.029C108.573 69.0468 108.543 69.0592 108.512 69.0653C108.481 69.0714 108.449 69.0711 108.419 69.0645C108.369 69.0512 108.325 69.0207 108.295 68.9784L108.26 68.9305L107.736 68.197L98.2179 54.9169L71.5259 17.6609C71.3736 17.4498 71.1508 17.3003 70.8978 17.2396C70.6447 17.1789 70.3784 17.211 70.147 17.3301L15.1758 45.8171L14.6825 46.0734C14.6625 46.0817 14.6421 46.0889 14.6213 46.0948C14.5841 46.0881 14.5464 46.0844 14.5086 46.084C14.457 46.0667 14.414 46.0304 14.3883 45.9823C14.3749 45.957 14.3667 45.9294 14.364 45.9009C14.3613 45.8724 14.3643 45.8436 14.3727 45.8163C14.3811 45.7889 14.3949 45.7635 14.4132 45.7415C14.4314 45.7195 14.4538 45.7012 14.4791 45.6879L14.5472 45.6516L69.9476 16.9422C70.2723 16.7763 70.6455 16.732 70.9999 16.8173C71.3543 16.9025 71.6666 17.1118 71.8805 17.4072L98.5804 54.6718L108.646 68.724C108.664 68.7486 108.677 68.7769 108.683 68.8069C108.69 68.8369 108.69 68.8679 108.683 68.8978Z" fill="#3F3D56"/>
<path d="M79.8989 70.9633L77.7655 71.2002L61.9322 72.9556L51.4358 74.1187L50.8158 74.1876L37.7181 63.9486L37.2163 63.5564L34.1228 61.1383L23.1167 52.5356L23.0506 51.9313L19.136 16.5694C19.0826 16.0825 19.2243 15.5942 19.5301 15.2117C19.8358 14.8292 20.2806 14.5836 20.767 14.5288L73.0111 8.73653C73.4976 8.68336 73.9853 8.8253 74.3674 9.13126C74.7496 9.43723 74.995 9.88229 75.0499 10.369L77.8106 35.3125L79.342 49.1416L80.7118 61.5135L81.3468 67.259L81.5322 68.9232C81.585 69.4104 81.4428 69.8986 81.1367 70.281C80.8305 70.6633 80.3855 70.9087 79.8989 70.9633Z" fill="#E6E6E6"/>
<path d="M65.542 39.9674L42.9115 42.476L34.886 43.3654C34.5317 43.4047 34.1731 43.3737 33.8307 43.2743C33.4883 43.1749 33.1688 43.0089 32.8905 42.786C32.6122 42.563 32.3805 42.2873 32.2087 41.9747C32.0368 41.6621 31.9282 41.3187 31.8889 40.964C31.8497 40.6094 31.8806 40.2505 31.98 39.9078C32.0793 39.5652 32.2451 39.2454 32.4679 38.9669C32.6907 38.6883 32.9662 38.4565 33.2785 38.2845C33.5908 38.1125 33.934 38.0037 34.2883 37.9644L44.2704 36.858L64.9427 34.5638C65.6584 34.4847 66.3763 34.6932 66.9384 35.1437C67.5006 35.5941 67.861 36.2495 67.9404 36.9659C68.0199 37.6822 67.8119 38.4008 67.3621 38.9636C66.9124 39.5265 66.2577 39.8876 65.542 39.9674Z" fill="white"/>
<path d="M66.8305 49.9874C66.7721 49.9978 66.7137 50.0083 66.6542 50.014L40.3839 52.9268L35.9977 53.4141C35.2818 53.4933 34.5638 53.2847 34.0016 52.8341C33.4394 52.3835 33.0791 51.7278 32.9999 51.0114C32.9207 50.2949 33.1291 49.5762 33.5793 49.0135C34.0296 48.4508 34.6847 48.0902 35.4006 48.011L41.7428 47.3087L62.5524 45.0009L66.0544 44.6125C66.7547 44.5343 67.458 44.7317 68.0155 45.1631C68.5731 45.5944 68.9411 46.2259 69.0419 46.9239C69.1427 47.6219 68.9683 48.3319 68.5556 48.9035C68.1429 49.4752 67.5243 49.8639 66.8305 49.9873V49.9874Z" fill="white"/>
<path d="M69.8039 58.8711C69.5886 59.2288 69.2939 59.5321 68.9425 59.7573C68.5911 59.9825 68.1926 60.1236 67.7779 60.1696L57.0105 61.3631L37.8336 63.4895L37.8294 63.4885L37.2162 63.5569L34.1226 61.1388C34.1035 60.9551 34.1034 60.7699 34.1222 60.5862C34.1874 59.9694 34.461 59.3933 34.8979 58.9534C35.3347 58.5134 35.9085 58.2358 36.5243 58.1666L39.1882 57.8704L49.7557 56.6999L57.3592 55.8559L67.1809 54.7665C67.6842 54.7107 68.1931 54.797 68.65 55.0155C69.1069 55.2341 69.4937 55.5762 69.7666 56.0031C70.0394 56.4301 70.1875 56.925 70.1941 57.4318C70.2007 57.9386 70.0655 58.4371 69.8039 58.8711L69.8039 58.8711Z" fill="white"/>
<path d="M54.68 27.7194L49.0493 28.3436L46.5623 28.62L42.8055 29.0362C42.0896 29.1154 41.3716 28.9068 40.8094 28.4562C40.2472 28.0056 39.8869 27.3499 39.8077 26.6334C39.7285 25.9169 39.9369 25.1983 40.3871 24.6356C40.8374 24.0729 41.4925 23.7123 42.2083 23.633L54.0802 22.3179C54.7959 22.2383 55.5139 22.4465 56.0762 22.8967C56.6385 23.3469 56.999 24.0022 57.0786 24.7185C57.1581 25.4348 56.9501 26.1534 56.5003 26.7161C56.0505 27.2789 55.3957 27.6398 54.68 27.7194V27.7194Z" fill="white"/>
<path d="M100.722 42.7649L93.8575 71.1469L82.3999 73.3274L71.8013 75.3469L60.43 77.5124L56.7965 78.2045C56.5838 78.2447 56.365 78.2392 56.1546 78.1882C55.9442 78.1372 55.747 78.042 55.5762 77.9088L52.6613 75.6302L50.8157 74.1877L37.7181 63.9487L46.046 29.5176C46.1283 29.1751 46.3076 28.8636 46.5625 28.6206C46.786 28.4056 47.0601 28.2504 47.3593 28.1693C47.6586 28.0881 47.9734 28.0837 48.2748 28.1564L99.3623 40.5342C99.8381 40.6498 100.248 40.9497 100.504 41.3679C100.759 41.7862 100.837 42.2886 100.722 42.7649Z" fill="#6E00FF"/>
<path d="M84.9809 65.3435C84.8109 66.0436 84.3703 66.6476 83.7558 67.0229C83.1413 67.3982 82.4031 67.5141 81.7033 67.3452L51.7263 60.0822C51.027 59.9117 50.4237 59.4706 50.0488 58.8557C49.6739 58.2408 49.5579 57.5021 49.7263 56.8017C49.7339 56.767 49.7437 56.7328 49.7556 56.6992C49.947 56.024 50.3921 55.4491 50.9977 55.095C51.6032 54.741 52.3222 54.6353 53.0039 54.8L82.9809 62.063C83.6804 62.2331 84.2839 62.6741 84.6589 63.2892C85.0339 63.9042 85.1497 64.643 84.9809 65.3435Z" fill="white"/>
<path d="M82.3994 73.3268L71.8008 75.3463L49.3497 69.9068C48.6499 69.7372 48.046 69.2963 47.6709 68.6811C47.2958 68.0659 47.1803 67.3268 47.3497 66.6264C47.5191 65.9259 47.9596 65.3215 48.5743 64.9461C49.189 64.5707 49.9275 64.4551 50.6273 64.6246L80.6043 71.8876C81.2307 72.0382 81.7826 72.4084 82.1599 72.9311C82.2508 73.056 82.3309 73.1884 82.3994 73.3268Z" fill="white"/>
<path d="M60.4297 77.5126L56.7962 78.2046C56.5835 78.2449 56.3647 78.2393 56.1543 78.1883C55.9439 78.1374 55.7468 78.0421 55.576 77.909L52.6611 75.6304L60.4297 77.5126Z" fill="white"/>
<path d="M78.9409 50.1249C78.771 50.825 78.3303 51.429 77.7158 51.8043C77.1013 52.1796 76.3631 52.2955 75.6633 52.1266L64.0525 49.3135C63.3532 49.143 62.75 48.7019 62.3751 48.087C62.0001 47.4721 61.8842 46.7334 62.0525 46.033C62.1429 45.6567 62.3136 45.3043 62.5527 45.0001C62.8739 44.5889 63.3066 44.2788 63.7991 44.107C64.2916 43.9353 64.8231 43.909 65.3301 44.0313L76.9409 46.8445C77.6407 47.0141 78.2445 47.455 78.6196 48.0702C78.9947 48.6854 79.1103 49.4244 78.9409 50.1249V50.1249Z" fill="white"/>
<path d="M71.8021 75.3466L60.4289 77.5127L56.7965 78.205C56.5839 78.2447 56.3653 78.239 56.1551 78.188C55.9449 78.1371 55.7478 78.0422 55.5769 77.9095L52.6599 75.6303L53.6835 75.8783L55.8444 77.5655C55.9665 77.6603 56.1073 77.7281 56.2574 77.7645C56.4076 77.8009 56.5638 77.805 56.7157 77.7766L59.4053 77.2646L70.7785 75.0986L71.8021 75.3466ZM37.8304 63.4896L37.7197 63.9474L37.2152 63.5549L37.8304 63.4896ZM71.8021 75.3466L60.4289 77.5127L56.7965 78.205C56.5839 78.2447 56.3653 78.239 56.1551 78.188C55.9449 78.1371 55.7478 78.0422 55.5769 77.9095L52.6599 75.6303L53.6835 75.8783L55.8444 77.5655C55.9665 77.6603 56.1073 77.7281 56.2574 77.7645C56.4076 77.8009 56.5638 77.805 56.7157 77.7766L59.4053 77.2646L70.7785 75.0986L71.8021 75.3466ZM71.8021 75.3466L60.4289 77.5127L56.7965 78.205C56.5839 78.2447 56.3653 78.239 56.1551 78.188C55.9449 78.1371 55.7478 78.0422 55.5769 77.9095L52.6599 75.6303L53.6835 75.8783L55.8444 77.5655C55.9665 77.6603 56.1073 77.7281 56.2574 77.7645C56.4076 77.8009 56.5638 77.805 56.7157 77.7766L59.4053 77.2646L70.7785 75.0986L71.8021 75.3466ZM108.856 70.0341L96.0226 123.093C95.9274 123.485 95.6806 123.824 95.3365 124.034C94.9923 124.244 94.5789 124.309 94.187 124.214L1.30145 101.709C0.909691 101.614 0.571709 101.367 0.361702 101.023C0.151703 100.678 0.0868225 100.264 0.181335 99.8722L13.0149 46.8131C13.0741 46.5654 13.1949 46.3368 13.366 46.1483C13.537 45.9598 13.7529 45.8176 13.9936 45.735C14.1713 45.6724 14.3592 45.6441 14.5474 45.6516C14.7668 45.6579 14.9818 45.7145 15.1759 45.817C15.2655 45.8596 15.3501 45.9122 15.428 45.9737L23.0511 51.9314L34.1222 60.5869L37.8312 63.4865L37.8304 63.4896L37.8336 63.4904L51.435 74.1171L53.6835 75.8783L55.8444 77.5655C55.9665 77.6603 56.1073 77.7281 56.2574 77.7645C56.4076 77.8009 56.5638 77.805 56.7157 77.7766L59.4053 77.2646L70.7785 75.0986L82.1617 72.9317L107.094 68.183C107.306 68.1408 107.526 68.1456 107.736 68.1969C108.02 68.2662 108.277 68.4156 108.478 68.6273C108.555 68.7104 108.624 68.801 108.683 68.8977C108.888 69.239 108.95 69.6473 108.856 70.0341ZM71.8021 75.3466L60.4289 77.5127L56.7965 78.205C56.5839 78.2447 56.3653 78.239 56.1551 78.188C55.9449 78.1371 55.7478 78.0422 55.5769 77.9095L52.6599 75.6303L53.6835 75.8783L55.8444 77.5655C55.9665 77.6603 56.1073 77.7281 56.2574 77.7645C56.4076 77.8009 56.5638 77.805 56.7157 77.7766L59.4053 77.2646L70.7785 75.0986L71.8021 75.3466ZM71.8021 75.3466L60.4289 77.5127L56.7965 78.205C56.5839 78.2447 56.3653 78.239 56.1551 78.188C55.9449 78.1371 55.7478 78.0422 55.5769 77.9095L52.6599 75.6303L53.6835 75.8783L55.8444 77.5655C55.9665 77.6603 56.1073 77.7281 56.2574 77.7645C56.4076 77.8009 56.5638 77.805 56.7157 77.7766L59.4053 77.2646L70.7785 75.0986L71.8021 75.3466ZM71.8021 75.3466L60.4289 77.5127L56.7965 78.205C56.5839 78.2447 56.3653 78.239 56.1551 78.188C55.9449 78.1371 55.7478 78.0422 55.5769 77.9095L52.6599 75.6303L53.6835 75.8783L55.8444 77.5655C55.9665 77.6603 56.1073 77.7281 56.2574 77.7645C56.4076 77.8009 56.5638 77.805 56.7157 77.7766L59.4053 77.2646L70.7785 75.0986L71.8021 75.3466Z" fill="white"/>
<path d="M71.8021 75.3466L60.4289 77.5126L56.7965 78.205C56.5839 78.2447 56.3653 78.2389 56.1551 78.188C55.9449 78.1371 55.7478 78.0421 55.5769 77.9095L52.6599 75.6303L53.6835 75.8783L55.8444 77.5655C55.9665 77.6603 56.1073 77.7281 56.2574 77.7645C56.4076 77.8009 56.5638 77.805 56.7157 77.7766L59.4053 77.2646L70.7785 75.0986L71.8021 75.3466ZM37.8304 63.4896L37.7197 63.9474L37.2152 63.5549L37.8304 63.4896ZM71.8021 75.3466L60.4289 77.5126L56.7965 78.205C56.5839 78.2447 56.3653 78.2389 56.1551 78.188C55.9449 78.1371 55.7478 78.0421 55.5769 77.9095L52.6599 75.6303L53.6835 75.8783L55.8444 77.5655C55.9665 77.6603 56.1073 77.7281 56.2574 77.7645C56.4076 77.8009 56.5638 77.805 56.7157 77.7766L59.4053 77.2646L70.7785 75.0986L71.8021 75.3466ZM71.8021 75.3466L60.4289 77.5126L56.7965 78.205C56.5839 78.2447 56.3653 78.2389 56.1551 78.188C55.9449 78.1371 55.7478 78.0421 55.5769 77.9095L52.6599 75.6303L53.6835 75.8783L55.8444 77.5655C55.9665 77.6603 56.1073 77.7281 56.2574 77.7645C56.4076 77.8009 56.5638 77.805 56.7157 77.7766L59.4053 77.2646L70.7785 75.0986L71.8021 75.3466ZM108.26 68.9304L108.204 68.9728C108.194 68.9573 108.178 68.9434 108.165 68.9272C108.04 68.7962 107.883 68.6985 107.711 68.6428C107.538 68.5872 107.354 68.5753 107.175 68.6082L82.3992 73.3254L71.8021 75.3466L60.4289 77.5126L56.7965 78.205C56.5839 78.2447 56.3653 78.2389 56.1551 78.188C55.9449 78.1371 55.7478 78.0421 55.5769 77.9095L52.6599 75.6303L53.6835 75.8783L55.8444 77.5655C55.9665 77.6603 56.1073 77.7281 56.2574 77.7645C56.4076 77.8009 56.5638 77.805 56.7157 77.7766L59.4053 77.2646L70.7785 75.0986L82.1617 72.9316L107.094 68.183C107.306 68.1408 107.526 68.1456 107.736 68.1969L108.26 68.9304ZM108.856 70.0341L96.0226 123.093C95.9274 123.485 95.6806 123.824 95.3365 124.034C94.9923 124.244 94.5789 124.309 94.187 124.214L1.30145 101.709C0.909691 101.614 0.571709 101.367 0.361702 101.023C0.151703 100.678 0.0868225 100.264 0.181335 99.8722L13.0149 46.8131C13.0741 46.5654 13.1949 46.3368 13.366 46.1483C13.537 45.9598 13.7529 45.8176 13.9936 45.735C14.1713 45.6724 14.3592 45.6441 14.5474 45.6516C14.7668 45.6579 14.9818 45.7145 15.1759 45.817C15.2655 45.8596 15.3501 45.9122 15.428 45.9737L23.0511 51.9314L34.1222 60.5869L37.8312 63.4865L37.8304 63.4896L37.8336 63.4904L51.435 74.1171L53.6835 75.8783L55.8444 77.5655C55.9665 77.6603 56.1073 77.7281 56.2574 77.7645C56.4076 77.8009 56.5638 77.805 56.7157 77.7766L59.4053 77.2646L70.7785 75.0986L82.1617 72.9316L107.094 68.183C107.306 68.1408 107.526 68.1456 107.736 68.1969C108.02 68.2662 108.277 68.4156 108.478 68.6273C108.555 68.7104 108.624 68.801 108.683 68.8977C108.888 69.2389 108.95 69.6472 108.856 70.0341ZM108.433 69.9316C108.471 69.7752 108.473 69.6123 108.44 69.4548C108.407 69.2973 108.339 69.1493 108.241 69.0215C108.233 69.0027 108.22 68.9861 108.204 68.9728C108.194 68.9573 108.178 68.9435 108.165 68.9272C108.04 68.7962 107.883 68.6985 107.711 68.6428C107.538 68.5872 107.354 68.5753 107.175 68.6082L82.3992 73.3254L71.8021 75.3466L60.4289 77.5126L56.7965 78.205C56.5839 78.2447 56.3653 78.2389 56.1551 78.188C55.9449 78.1371 55.7478 78.0421 55.5769 77.9095L52.6599 75.6303L50.8151 74.1878L37.7197 63.9474L37.2152 63.5548L34.1241 61.1379L23.1161 52.5339L15.1579 46.3137C15.0369 46.2193 14.8972 46.1517 14.7481 46.1155C14.7065 46.1053 14.6641 46.0984 14.6214 46.0947C14.5843 46.088 14.5466 46.0843 14.5088 46.0839C14.3816 46.0827 14.2551 46.1034 14.1349 46.145C13.9633 46.2048 13.8095 46.3065 13.6872 46.441C13.565 46.5754 13.4783 46.7383 13.435 46.9149L0.60141 99.974C0.567642 100.113 0.561592 100.257 0.583626 100.399C0.605659 100.54 0.655327 100.676 0.72979 100.798C0.80426 100.92 0.902069 101.026 1.01761 101.111C1.13315 101.195 1.26418 101.255 1.40315 101.289L94.2887 123.794C94.5689 123.861 94.8644 123.815 95.1102 123.664C95.356 123.513 95.532 123.271 95.5994 122.991L108.433 69.9316ZM71.8021 75.3466L60.4289 77.5127L56.7965 78.205C56.5839 78.2447 56.3653 78.239 56.1551 78.188C55.9449 78.1371 55.7478 78.0422 55.5769 77.9095L52.6599 75.6303L53.6835 75.8783L55.8444 77.5655C55.9665 77.6603 56.1073 77.7281 56.2574 77.7645C56.4076 77.8009 56.5638 77.805 56.7157 77.7766L59.4053 77.2646L70.7785 75.0986L71.8021 75.3466ZM71.8021 75.3466L60.4289 77.5127L56.7965 78.205C56.5839 78.2447 56.3653 78.239 56.1551 78.188C55.9449 78.1371 55.7478 78.0422 55.5769 77.9095L52.6599 75.6303L53.6835 75.8783L55.8444 77.5655C55.9665 77.6603 56.1073 77.7281 56.2574 77.7645C56.4076 77.8009 56.5638 77.805 56.7157 77.7766L59.4053 77.2646L70.7785 75.0986L71.8021 75.3466ZM71.8021 75.3466L60.4289 77.5127L56.7965 78.205C56.5839 78.2447 56.3653 78.239 56.1551 78.188C55.9449 78.1371 55.7478 78.0422 55.5769 77.9095L52.6599 75.6303L53.6835 75.8783L55.8444 77.5655C55.9665 77.6603 56.1073 77.7281 56.2574 77.7645C56.4076 77.8009 56.5638 77.805 56.7157 77.7766L59.4053 77.2646L70.7785 75.0986L71.8021 75.3466Z" fill="#3F3D56"/>
<path d="M25.5102 91.2852C25.7194 90.4157 25.5755 89.4988 25.1101 88.7354C24.6447 87.972 23.8957 87.4245 23.0275 87.2131L11.3041 84.3727C10.4366 84.1657 9.5225 84.3113 8.76204 84.7776C8.00159 85.2439 7.45678 85.9928 7.24696 86.8603C7.03713 87.7278 7.17939 88.6432 7.64258 89.4059C8.10578 90.1686 8.85213 90.7165 9.71816 90.9296L21.4416 93.77C22.3102 93.9794 23.2265 93.8354 23.9892 93.3696C24.752 92.9038 25.299 92.1541 25.5102 91.2852Z" fill="#6E00FF"/>
<path d="M155.067 81.4308C153.462 81.4308 152.161 80.1287 152.161 78.5225C152.161 76.9163 153.462 75.6143 155.067 75.6143C156.672 75.6143 157.973 76.9163 157.973 78.5225C157.973 80.1287 156.672 81.4308 155.067 81.4308Z" fill="white"/>
</g>
<defs>
<clipPath id="clip0_1587_3808">
<rect width="239" height="185" fill="white" transform="matrix(-1 0 0 1 239 0)"/>
</clipPath>
</defs>
</svg>
