<svg width="239" height="45" viewBox="0 0 239 45" fill="none" xmlns="http://www.w3.org/2000/svg">
<path d="M63.1221 9.81708C63.4504 10.1229 63.6155 10.5357 63.6155 11.0534V32.8946C63.6155 33.4363 63.4577 33.8601 63.1404 34.1678C62.8231 34.4737 62.3957 34.6266 61.8564 34.6266C61.3172 34.6266 60.8898 34.4737 60.5725 34.1678C60.2551 33.8619 60.0974 33.4382 60.0974 32.8946V31.4814C59.582 32.5187 58.8299 33.3129 57.845 33.8675C56.86 34.4221 55.7209 34.6985 54.4315 34.6985C52.9531 34.6985 51.6342 34.3226 50.4732 33.5671C49.3121 32.8136 48.4097 31.7523 47.764 30.387C47.1184 29.0198 46.7974 27.4537 46.7974 25.6867C46.7974 23.8958 47.1202 22.3296 47.764 20.9864C48.4097 19.6432 49.3066 18.6059 50.4548 17.8763C51.6031 17.1466 52.9292 16.78 54.4315 16.78C55.7209 16.78 56.8526 17.0563 57.8266 17.6109C58.7988 18.1655 59.5453 18.9486 60.0607 19.962V10.9834C60.0607 10.4878 60.2185 10.0935 60.5358 9.79865C60.8531 9.50385 61.2805 9.35645 61.8198 9.35645C62.3609 9.35645 62.7937 9.51122 63.1221 9.81708ZM58.8299 30.2801C59.6737 29.2206 60.0974 27.7116 60.0974 25.7567C60.0974 23.8018 59.681 22.2928 58.8483 21.2333C58.0155 20.1739 56.8251 19.6432 55.277 19.6432C53.7289 19.6432 52.5275 20.1683 51.6709 21.2167C50.8143 22.2651 50.387 23.7557 50.387 25.6867C50.387 27.6195 50.8217 29.1322 51.6893 30.2285C52.5569 31.3248 53.7528 31.872 55.277 31.872C56.8013 31.8702 57.9862 31.3395 58.8299 30.2801Z" fill="#21282F"/>
<path d="M68.7518 12.8207C68.3519 12.4448 68.1538 11.9492 68.1538 11.3356C68.1538 10.7239 68.3537 10.2338 68.7518 9.86901C69.1498 9.50419 69.6891 9.32178 70.3696 9.32178C71.0262 9.32178 71.56 9.50419 71.9709 9.86901C72.3817 10.2338 72.5872 10.7239 72.5872 11.3356C72.5872 11.9492 72.3872 12.443 71.9892 12.8207C71.5893 13.1984 71.0501 13.3864 70.3714 13.3864C69.6909 13.3864 69.1516 13.1984 68.7518 12.8207ZM69.0856 34.2031C68.7444 33.9194 68.5757 33.4956 68.5757 32.93V18.5823C68.5757 18.0166 68.7463 17.5873 69.0856 17.2925C69.4249 16.9977 69.8541 16.8503 70.3696 16.8503C70.885 16.8503 71.3069 16.9977 71.637 17.2925C71.9653 17.5873 72.1304 18.0166 72.1304 18.5823V32.9318C72.1304 33.4975 71.9653 33.9212 71.637 34.205C71.3087 34.4869 70.8868 34.6288 70.3696 34.6288C69.8541 34.6269 69.4268 34.485 69.0856 34.2031Z" fill="#21282F"/>
<path d="M89.9147 17.1319C90.1844 16.9679 90.4724 16.885 90.7768 16.885C91.2226 16.885 91.6151 17.0379 91.9562 17.3438C92.2956 17.6497 92.4662 18.0145 92.4662 18.4401C92.4662 18.6759 92.4185 18.8989 92.3249 19.1108L85.6043 33.4253C85.4392 33.803 85.1879 34.0923 84.8486 34.2913C84.5093 34.4921 84.1497 34.5916 83.7756 34.5916C83.3995 34.5916 83.0419 34.4921 82.7025 34.2913C82.3614 34.0923 82.1101 33.803 81.9468 33.4253L75.2262 19.1108C75.1327 18.9228 75.085 18.698 75.085 18.4401C75.085 18.0163 75.2721 17.6515 75.6481 17.3438C76.0223 17.0379 76.446 16.885 76.9155 16.885C77.596 16.885 78.1004 17.2148 78.4288 17.8744L83.882 30.0314L89.3003 17.9094C89.4397 17.5557 89.6451 17.2977 89.9147 17.1319Z" fill="#21282F"/>
<path d="M98.1469 33.6025C96.8685 32.8728 95.8835 31.83 95.192 30.4739C94.5005 29.1196 94.1538 27.5461 94.1538 25.7552C94.1538 23.9422 94.4986 22.3576 95.192 21.0015C95.8835 19.6472 96.8685 18.6044 98.1469 17.8747C99.4254 17.1451 100.909 16.7784 102.597 16.7784C104.286 16.7784 105.768 17.1433 107.048 17.8747C108.327 18.6044 109.312 19.6472 110.003 21.0015C110.695 22.3576 111.042 23.9403 111.042 25.7552C111.042 27.5461 110.695 29.1196 110.003 30.4739C109.312 31.83 108.327 32.871 107.048 33.6025C105.77 34.334 104.286 34.6988 102.597 34.6988C100.909 34.6988 99.4254 34.334 98.1469 33.6025ZM106.205 30.3154C107.037 29.2781 107.454 27.7599 107.454 25.757C107.454 23.7782 107.032 22.2636 106.186 21.2152C105.343 20.1668 104.145 19.6417 102.597 19.6417C101.049 19.6417 99.8528 20.1668 99.009 21.2152C98.1653 22.2636 97.7416 23.7782 97.7416 25.757C97.7416 27.7599 98.1579 29.2799 98.9907 30.3154C99.8234 31.3528 101.025 31.8705 102.597 31.8705C104.169 31.8705 105.372 31.3528 106.205 30.3154Z" fill="#21282F"/>
<path d="M125.679 18.2983C125.679 18.8161 125.55 19.2048 125.292 19.4646C125.033 19.7244 124.587 19.8774 123.955 19.9234L122.9 20.0303C121.422 20.1722 120.325 20.6899 119.611 21.5854C118.896 22.4808 118.538 23.5642 118.538 24.8374V32.9316C118.538 33.4973 118.373 33.921 118.045 34.2048C117.716 34.4867 117.295 34.6286 116.777 34.6286C116.262 34.6286 115.833 34.4867 115.493 34.2048C115.152 33.921 114.983 33.4973 114.983 32.9316V18.5452C114.983 18.0035 115.154 17.5853 115.493 17.2905C115.833 16.9957 116.262 16.8483 116.777 16.8483C117.247 16.8483 117.639 16.9957 117.957 17.2905C118.274 17.5853 118.432 17.9925 118.432 18.5102V20.2072C118.901 19.1698 119.58 18.3812 120.473 17.8395C121.365 17.2978 122.374 16.9791 123.5 16.8851L123.993 16.8501C125.116 16.7782 125.679 17.2628 125.679 18.2983Z" fill="#21282F"/>
<path d="M130.481 33.6027C129.226 32.8731 128.252 31.8357 127.561 30.4925C126.869 29.1493 126.522 27.5943 126.522 25.8273C126.522 24.0364 126.88 22.4573 127.595 21.092C128.311 19.7249 129.314 18.6654 130.604 17.9118C131.893 17.1582 133.371 16.7805 135.037 16.7805C135.928 16.7805 136.825 16.9095 137.728 17.1693C138.63 17.4291 139.434 17.7828 140.138 18.2287C140.888 18.7465 141.264 19.349 141.264 20.0307C141.264 20.4324 141.158 20.7677 140.947 21.0386C140.736 21.3094 140.466 21.4458 140.138 21.4458C139.927 21.4458 139.716 21.3923 139.505 21.2873C139.294 21.1804 139.025 21.022 138.696 20.8101C138.109 20.4342 137.565 20.145 137.06 19.9441C136.556 19.7451 135.952 19.6438 135.248 19.6438C133.652 19.6438 132.416 20.1855 131.535 21.2689C130.655 22.3523 130.217 23.8613 130.217 25.7923C130.217 27.7251 130.649 29.2157 131.519 30.2622C132.386 31.3106 133.617 31.8357 135.213 31.8357C135.917 31.8357 136.537 31.7289 137.078 31.517C137.618 31.3051 138.17 31.0213 138.733 30.6694C138.992 30.5054 139.248 30.3636 139.507 30.2456C139.766 30.1277 140 30.0688 140.211 30.0688C140.54 30.0688 140.809 30.2051 141.02 30.476C141.231 30.7468 141.338 31.0821 141.338 31.4838C141.338 31.8136 141.249 32.114 141.073 32.3848C140.897 32.6557 140.598 32.932 140.176 33.2158C139.472 33.6875 138.652 34.0523 137.713 34.3121C136.774 34.57 135.824 34.7008 134.863 34.7008C133.195 34.699 131.735 34.3342 130.481 33.6027Z" fill="#21282F"/>
<path d="M158.749 30.4925C158.96 30.7523 159.067 31.0821 159.067 31.482C159.067 32.1655 158.645 32.7423 157.799 33.2139C156.978 33.6856 156.081 34.0504 155.108 34.3102C154.134 34.5682 153.203 34.699 152.311 34.699C149.589 34.699 147.443 33.903 145.873 32.313C144.301 30.7229 143.516 28.5487 143.516 25.7923C143.516 24.0253 143.861 22.4592 144.554 21.092C145.246 19.7249 146.22 18.6654 147.474 17.9118C148.729 17.1582 150.154 16.7805 151.75 16.7805C154.048 16.7805 155.866 17.5231 157.203 19.0063C158.54 20.4914 159.208 22.4942 159.208 25.0147C159.208 25.9581 158.786 26.4279 157.941 26.4279H147.069C147.304 30.0798 149.05 31.9058 152.311 31.9058C153.179 31.9058 153.929 31.7878 154.564 31.552C155.197 31.3161 155.866 31.0103 156.569 30.6326C156.638 30.5865 156.833 30.4852 157.15 30.3322C157.467 30.1793 157.731 30.1019 157.942 30.1019C158.269 30.1038 158.538 30.2327 158.749 30.4925ZM148.547 20.7032C147.726 21.5748 147.234 22.8 147.069 24.3791H156.147C156.077 22.7779 155.672 21.5453 154.932 20.6848C154.193 19.8244 153.155 19.3951 151.818 19.3951C150.459 19.3951 149.367 19.8317 148.547 20.7032Z" fill="#21282F"/>
<path d="M177.345 17.8212C178.507 18.5877 179.409 19.6601 180.055 21.0383C180.7 22.4165 181.021 24.001 181.021 25.792C181.021 27.5829 180.698 29.1564 180.055 30.5106C179.409 31.8667 178.512 32.9078 177.364 33.6392C176.214 34.3689 174.889 34.7355 173.387 34.7355C172.213 34.7355 171.153 34.4942 170.203 34.0114C169.253 33.5287 168.519 32.8506 168.004 31.9791V38.6583C168.004 39.3658 167.769 39.9314 167.299 40.3552C166.83 40.779 166.208 40.9909 165.434 40.9909C164.612 40.9909 163.95 40.7661 163.446 40.3202C162.941 39.8725 162.69 39.2829 162.69 38.5532V19.2529C162.69 18.4993 162.93 17.8931 163.411 17.4325C163.891 16.9737 164.532 16.7434 165.328 16.7434C166.125 16.7434 166.758 16.9737 167.228 17.4325C167.697 17.8912 167.932 18.4993 167.932 19.2529V19.5366C168.448 18.6411 169.187 17.941 170.148 17.4343C171.109 16.9276 172.189 16.6752 173.385 16.6752C174.866 16.6733 176.184 17.0566 177.345 17.8212ZM174.724 29.4143C175.405 28.5778 175.744 27.371 175.744 25.792C175.744 24.1908 175.405 22.9471 174.724 22.0627C174.044 21.1801 173.083 20.7379 171.839 20.7379C170.596 20.7379 169.634 21.1691 168.954 22.0277C168.273 22.8881 167.934 24.119 167.934 25.7201C167.934 27.2991 168.273 28.5189 168.954 29.3775C169.634 30.238 170.596 30.6673 171.839 30.6673C173.083 30.6691 174.044 30.2509 174.724 29.4143Z" fill="#21282F"/>
<path d="M197.663 18.5289C198.883 19.7652 199.492 21.6575 199.492 24.202V32.1893C199.492 32.9668 199.268 33.573 198.824 34.0097C198.378 34.4464 197.757 34.6638 196.959 34.6638C196.208 34.6638 195.605 34.4335 195.146 33.9747C194.69 33.5159 194.46 32.9208 194.46 32.1893V31.9424C194.108 32.8139 193.521 33.4975 192.701 33.9931C191.88 34.4888 190.919 34.7357 189.816 34.7357C188.642 34.7357 187.582 34.4998 186.632 34.0281C185.682 33.5564 184.932 32.8968 184.379 32.0493C183.827 31.2017 183.552 30.2583 183.552 29.221C183.552 27.9478 183.875 26.9473 184.521 26.2159C185.166 25.4862 186.203 24.9556 187.635 24.6258C189.066 24.296 191.025 24.1301 193.51 24.1301H194.426V23.4945C194.426 22.505 194.209 21.7864 193.774 21.3387C193.34 20.891 192.619 20.668 191.61 20.668C190.601 20.668 189.147 21.0218 187.246 21.7275C186.707 21.9873 186.249 22.1163 185.874 22.1163C185.359 22.1163 184.948 21.9338 184.644 21.569C184.339 21.2042 184.187 20.727 184.187 20.1374C184.187 19.6657 184.293 19.2769 184.504 18.9711C184.715 18.6652 185.054 18.3815 185.524 18.1235C186.344 17.6758 187.347 17.322 188.532 17.0641C189.717 16.8061 190.884 16.6753 192.034 16.6753C194.567 16.6735 196.443 17.2925 197.663 18.5289ZM193.477 30.0151C194.11 29.3205 194.427 28.4195 194.427 27.3122V26.7115H193.829C191.929 26.7115 190.598 26.8644 189.836 27.1703C189.073 27.4761 188.694 28.0307 188.694 28.8322C188.694 29.4919 188.91 30.028 189.345 30.4407C189.778 30.8535 190.324 31.0598 190.981 31.0598C192.01 31.058 192.843 30.7098 193.477 30.0151Z" fill="#21282F"/>
<path d="M214.623 31.3049C214.951 31.6107 215.117 32.0585 215.117 32.6481C215.117 33.3316 214.847 33.8494 214.308 34.2032C213.768 34.5569 212.994 34.6988 211.985 34.6269L211 34.5569C206.895 34.2271 204.843 32.0714 204.843 28.0897V21.0918H203.436C202.662 21.0918 202.075 20.9204 201.677 20.5796C201.279 20.2387 201.079 19.7486 201.079 19.1129C201.079 18.4533 201.279 17.9521 201.677 17.6113C202.075 17.2704 202.662 17.0991 203.436 17.0991H204.843V14.3408C204.843 13.5633 205.083 12.9516 205.564 12.502C206.044 12.0542 206.696 11.8313 207.517 11.8313C208.337 11.8313 208.983 12.0561 209.452 12.502C209.922 12.9497 210.157 13.5633 210.157 14.3408V17.0972H212.62C214.214 17.0972 215.012 17.7679 215.012 19.1111C215.012 19.7468 214.812 20.2369 214.414 20.5777C214.014 20.9204 213.416 21.09 212.62 21.09H210.157V28.4766C210.157 29.1841 210.32 29.7203 210.65 30.0851C210.978 30.45 211.459 30.6563 212.092 30.7042L213.077 30.7742C213.778 30.8221 214.293 30.999 214.623 31.3049Z" fill="#21282F"/>
<path d="M234.044 23.988V32.1522C234.044 32.9297 233.803 33.5433 233.323 33.991C232.842 34.4388 232.191 34.6617 231.369 34.6617C230.548 34.6617 229.904 34.4388 229.434 33.991C228.965 33.5433 228.73 32.9316 228.73 32.1522V23.918C228.73 22.8806 228.513 22.1105 228.079 21.6019C227.644 21.0952 226.971 20.8428 226.056 20.8428C224.953 20.8428 224.067 21.1966 223.4 21.9023C222.732 22.6098 222.396 23.5513 222.396 24.7305V32.1522C222.396 32.9297 222.162 33.5433 221.692 33.991C221.222 34.4388 220.577 34.6617 219.757 34.6617C218.935 34.6617 218.284 34.4388 217.803 33.991C217.323 33.5433 217.083 32.9316 217.083 32.1522V11.7961C217.083 11.0664 217.334 10.4768 217.838 10.0291C218.343 9.58134 219.005 9.3584 219.827 9.3584C220.601 9.3584 221.222 9.57029 221.692 9.99407C222.162 10.4178 222.396 10.9835 222.396 11.691V19.3964C223.005 18.501 223.792 17.8229 224.753 17.3641C225.714 16.9054 226.806 16.675 228.026 16.675C232.037 16.6732 234.044 19.1108 234.044 23.988Z" fill="#21282F"/>
<path d="M37.147 18.3649H11.3154V7.92151H37.147L41.8041 13.1432L37.147 18.3649Z" fill="#21282F"/>
<path d="M9.0624 20.3859H34.8939V30.8293H9.0624L4.40527 25.6076L9.0624 20.3859Z" fill="#21282F"/>
<path d="M24.7798 40.4348V5.85624C24.7798 4.83364 23.9544 4.00635 22.9383 4.00635C21.9203 4.00635 21.0967 4.83548 21.0967 5.85624V40.4366H24.7798V40.4348Z" fill="#21282F"/>
</svg>
