<svg width="174" height="33" viewBox="0 0 174 33" fill="none" xmlns="http://www.w3.org/2000/svg">
<path d="M45.9548 7.19912C46.1938 7.42342 46.314 7.72608 46.314 8.10577V24.1227C46.314 24.5199 46.1991 24.8307 45.9681 25.0563C45.7371 25.2806 45.4259 25.3928 45.0333 25.3928C44.6407 25.3928 44.3296 25.2806 44.0986 25.0563C43.8675 24.832 43.7527 24.5213 43.7527 24.1227V23.0863C43.3775 23.847 42.83 24.4294 42.1128 24.8361C41.3957 25.2428 40.5665 25.4455 39.6277 25.4455C38.5514 25.4455 37.5912 25.1698 36.7459 24.6158C35.9006 24.0632 35.2436 23.2849 34.7736 22.2837C34.3035 21.2811 34.0698 20.1326 34.0698 18.8368C34.0698 17.5235 34.3049 16.375 34.7736 15.39C35.2436 14.405 35.8966 13.6443 36.7326 13.1092C37.5685 12.5741 38.534 12.3052 39.6277 12.3052C40.5665 12.3052 41.3904 12.5079 42.0995 12.9146C42.8072 13.3213 43.3508 13.8956 43.726 14.6387V8.05442C43.726 7.69095 43.8408 7.4018 44.0719 7.18561C44.3029 6.96942 44.614 6.86133 45.0066 6.86133C45.4006 6.86133 45.7157 6.97483 45.9548 7.19912ZM42.8299 22.2053C43.4442 21.4284 43.7527 20.3218 43.7527 18.8882C43.7527 17.4546 43.4496 16.348 42.8433 15.571C42.237 14.7941 41.3704 14.405 40.2433 14.405C39.1162 14.405 38.2416 14.7901 37.6179 15.5589C36.9943 16.3277 36.6832 17.4208 36.6832 18.8368C36.6832 20.2542 36.9997 21.3636 37.6313 22.1675C38.2629 22.9715 39.1336 23.3728 40.2433 23.3728C41.353 23.3714 42.2157 22.9823 42.8299 22.2053Z" fill="#F1F2F2"/>
<path d="M50.0535 9.40183C49.7624 9.12619 49.6182 8.76272 49.6182 8.31278C49.6182 7.86419 49.7637 7.50477 50.0535 7.23724C50.3433 6.9697 50.7359 6.83594 51.2313 6.83594C51.7094 6.83594 52.098 6.9697 52.3971 7.23724C52.6962 7.50477 52.8458 7.86419 52.8458 8.31278C52.8458 8.76272 52.7002 9.12484 52.4105 9.40183C52.1193 9.67882 51.7267 9.81664 51.2326 9.81664C50.7372 9.81664 50.3446 9.67882 50.0535 9.40183ZM50.2965 25.0823C50.0482 24.8742 49.9253 24.5634 49.9253 24.1486V13.627C49.9253 13.2122 50.0495 12.8973 50.2965 12.6811C50.5436 12.465 50.8561 12.3569 51.2313 12.3569C51.6066 12.3569 51.9137 12.465 52.1541 12.6811C52.3931 12.8973 52.5133 13.2122 52.5133 13.627V24.15C52.5133 24.5648 52.3931 24.8755 52.1541 25.0836C51.915 25.2904 51.6079 25.3944 51.2313 25.3944C50.8561 25.393 50.5449 25.289 50.2965 25.0823Z" fill="#F1F2F2"/>
<path d="M65.4606 12.5634C65.657 12.4431 65.8666 12.3823 66.0883 12.3823C66.4128 12.3823 66.6986 12.4945 66.9469 12.7188C67.194 12.9431 67.3182 13.2106 67.3182 13.5227C67.3182 13.6957 67.2835 13.8592 67.2153 14.0145L62.3225 24.5119C62.2023 24.7889 62.0194 25.001 61.7723 25.1469C61.5253 25.2942 61.2635 25.3672 60.9911 25.3672C60.7174 25.3672 60.457 25.2942 60.2099 25.1469C59.9615 25.001 59.7786 24.7889 59.6597 24.5119L54.7669 14.0145C54.6988 13.8767 54.6641 13.7119 54.6641 13.5227C54.6641 13.2119 54.8003 12.9444 55.074 12.7188C55.3464 12.4945 55.6549 12.3823 55.9968 12.3823C56.4922 12.3823 56.8594 12.6242 57.0985 13.1079L61.0686 22.023L65.0133 13.1336C65.1148 12.8742 65.2643 12.685 65.4606 12.5634Z" fill="#F1F2F2"/>
<path d="M71.454 24.6418C70.5232 24.1068 69.8061 23.342 69.3027 22.3475C68.7993 21.3544 68.5469 20.2005 68.5469 18.8872C68.5469 17.5576 68.7979 16.3956 69.3027 15.4011C69.8061 14.408 70.5232 13.6432 71.454 13.1082C72.3848 12.5731 73.4651 12.3042 74.6936 12.3042C75.9235 12.3042 77.0025 12.5717 77.9346 13.1082C78.8654 13.6432 79.5825 14.408 80.0859 15.4011C80.5893 16.3956 80.8417 17.5562 80.8417 18.8872C80.8417 20.2005 80.5893 21.3544 80.0859 22.3475C79.5825 23.342 78.8654 24.1054 77.9346 24.6418C77.0038 25.1782 75.9235 25.4458 74.6936 25.4458C73.4651 25.4458 72.3848 25.1782 71.454 24.6418ZM77.3203 22.2313C77.9266 21.4706 78.2297 20.3572 78.2297 18.8885C78.2297 17.4373 77.9226 16.3267 77.307 15.5578C76.6927 14.789 75.8207 14.4039 74.6936 14.4039C73.5666 14.4039 72.6959 14.789 72.0816 15.5578C71.4673 16.3267 71.1589 17.4373 71.1589 18.8885C71.1589 20.3572 71.462 21.472 72.0683 22.2313C72.6745 22.992 73.5492 23.3717 74.6936 23.3717C75.8381 23.3717 76.7141 22.992 77.3203 22.2313Z" fill="#F1F2F2"/>
<path d="M91.498 13.4187C91.498 13.7984 91.4046 14.0835 91.2163 14.274C91.028 14.4645 90.7035 14.5767 90.2428 14.6104L89.4749 14.6888C88.3986 14.7928 87.6001 15.1725 87.0806 15.8292C86.5598 16.4859 86.2994 17.2804 86.2994 18.214V24.1498C86.2994 24.5646 86.1792 24.8754 85.9402 25.0834C85.7011 25.2902 85.394 25.3942 85.0174 25.3942C84.6422 25.3942 84.3297 25.2902 84.0827 25.0834C83.8343 24.8754 83.7114 24.5646 83.7114 24.1498V13.5998C83.7114 13.2025 83.8356 12.8958 84.0827 12.6796C84.3297 12.4634 84.6422 12.3553 85.0174 12.3553C85.3593 12.3553 85.6451 12.4634 85.8761 12.6796C86.1071 12.8958 86.2219 13.1944 86.2219 13.5741V14.8185C86.5638 14.0578 87.0579 13.4795 87.7082 13.0823C88.3572 12.685 89.0917 12.4513 89.9116 12.3823L90.2708 12.3567C91.0881 12.304 91.498 12.6593 91.498 13.4187Z" fill="#F1F2F2"/>
<path d="M94.9941 24.6419C94.0807 24.1069 93.3716 23.3462 92.8681 22.3611C92.3647 21.3761 92.1123 20.2357 92.1123 18.94C92.1123 17.6266 92.3727 16.4686 92.8935 15.4674C93.4143 14.4648 94.1448 13.6879 95.0835 13.1353C96.0223 12.5827 97.0986 12.3057 98.3111 12.3057C98.9601 12.3057 99.6131 12.4002 100.27 12.5908C100.927 12.7813 101.512 13.0407 102.025 13.3677C102.571 13.7474 102.845 14.1892 102.845 14.6891C102.845 14.9837 102.767 15.2296 102.614 15.4282C102.46 15.6269 102.264 15.7269 102.025 15.7269C101.871 15.7269 101.718 15.6877 101.564 15.6107C101.411 15.5323 101.214 15.4161 100.975 15.2607C100.548 14.9851 100.151 14.7729 99.7841 14.6256C99.4168 14.4797 98.9775 14.4054 98.4647 14.4054C97.3029 14.4054 96.4029 14.8026 95.7619 15.5971C95.1209 16.3916 94.8018 17.4982 94.8018 18.9143C94.8018 20.3317 95.1169 21.4248 95.7499 22.1922C96.3815 22.9611 97.2776 23.3462 98.4393 23.3462C98.9521 23.3462 99.4035 23.2678 99.7974 23.1124C100.19 22.957 100.592 22.7489 101.002 22.4909C101.19 22.3706 101.377 22.2666 101.565 22.1801C101.754 22.0936 101.925 22.0504 102.078 22.0504C102.317 22.0504 102.514 22.1504 102.667 22.349C102.821 22.5476 102.898 22.7935 102.898 23.0881C102.898 23.3299 102.834 23.5502 102.706 23.7488C102.578 23.9474 102.36 24.1501 102.053 24.3582C101.54 24.7041 100.943 24.9716 100.259 25.1621C99.5757 25.3513 98.884 25.4472 98.1843 25.4472C96.9704 25.4459 95.9075 25.1784 94.9941 24.6419Z" fill="#F1F2F2"/>
<path d="M115.575 22.3611C115.728 22.5517 115.806 22.7935 115.806 23.0867C115.806 23.588 115.499 24.0109 114.883 24.3568C114.285 24.7027 113.632 24.9703 112.924 25.1608C112.215 25.35 111.537 25.4459 110.888 25.4459C108.906 25.4459 107.343 24.8622 106.2 23.6961C105.056 22.53 104.484 20.9357 104.484 18.9143C104.484 17.6185 104.735 16.47 105.24 15.4674C105.744 14.4649 106.453 13.6879 107.366 13.1353C108.28 12.5827 109.317 12.3057 110.479 12.3057C112.152 12.3057 113.476 12.8502 114.449 13.9379C115.423 15.0269 115.909 16.4957 115.909 18.3441C115.909 19.0359 115.601 19.3804 114.986 19.3804H107.071C107.242 22.0585 108.513 23.3975 110.888 23.3975C111.519 23.3975 112.065 23.311 112.527 23.1381C112.988 22.9651 113.476 22.7408 113.987 22.4638C114.038 22.4301 114.179 22.3557 114.41 22.2436C114.641 22.1314 114.834 22.0747 114.987 22.0747C115.225 22.076 115.421 22.1706 115.575 22.3611ZM108.147 15.1823C107.549 15.8214 107.191 16.72 107.071 17.8779H113.68C113.629 16.7038 113.334 15.7998 112.796 15.1688C112.258 14.5378 111.502 14.223 110.528 14.223C109.539 14.223 108.744 14.5432 108.147 15.1823Z" fill="#F1F2F2"/>
<path d="M129.113 13.069C129.958 13.631 130.615 14.4174 131.085 15.4281C131.556 16.4388 131.789 17.6008 131.789 18.9142C131.789 20.2275 131.554 21.3814 131.085 22.3745C130.615 23.369 129.962 24.1324 129.126 24.6688C128.289 25.2039 127.325 25.4728 126.231 25.4728C125.377 25.4728 124.605 25.2958 123.913 24.9418C123.221 24.5878 122.687 24.0905 122.312 23.4514V28.3495C122.312 28.8683 122.141 29.2831 121.799 29.5939C121.457 29.9047 121.005 30.06 120.441 30.06C119.843 30.06 119.361 29.8952 118.994 29.5682C118.626 29.2399 118.443 28.8075 118.443 28.2724V14.1188C118.443 13.5662 118.618 13.1217 118.968 12.7839C119.318 12.4474 119.784 12.2785 120.364 12.2785C120.945 12.2785 121.405 12.4474 121.747 12.7839C122.089 13.1203 122.26 13.5662 122.26 14.1188V14.3269C122.635 13.6702 123.173 13.1568 123.873 12.7852C124.573 12.4136 125.359 12.2285 126.23 12.2285C127.308 12.2272 128.268 12.5082 129.113 13.069ZM127.205 21.5706C127.7 20.9571 127.947 20.0721 127.947 18.9142C127.947 17.74 127.7 16.8279 127.205 16.1794C126.709 15.5322 126.01 15.2079 125.104 15.2079C124.199 15.2079 123.499 15.524 123.004 16.1537C122.508 16.7847 122.261 17.6873 122.261 18.8615C122.261 20.0194 122.508 20.9139 123.004 21.5436C123.499 22.1746 124.199 22.4894 125.104 22.4894C126.01 22.4907 126.709 22.184 127.205 21.5706Z" fill="#F1F2F2"/>
<path d="M143.905 13.5878C144.793 14.4944 145.236 15.8821 145.236 17.7481V23.6055C145.236 24.1757 145.073 24.6202 144.75 24.9404C144.426 25.2606 143.973 25.4201 143.392 25.4201C142.846 25.4201 142.407 25.2512 142.073 24.9147C141.74 24.5783 141.573 24.1419 141.573 23.6055V23.4244C141.317 24.0635 140.89 24.5648 140.293 24.9283C139.694 25.2917 138.995 25.4728 138.192 25.4728C137.338 25.4728 136.566 25.2998 135.874 24.9539C135.182 24.608 134.636 24.1243 134.234 23.5028C133.832 22.8812 133.632 22.1894 133.632 21.4287C133.632 20.495 133.867 19.7613 134.337 19.2249C134.807 18.6899 135.561 18.3007 136.604 18.0589C137.646 17.817 139.072 17.6954 140.882 17.6954H141.548V17.2292C141.548 16.5037 141.39 15.9767 141.074 15.6484C140.757 15.32 140.233 15.1565 139.498 15.1565C138.764 15.1565 137.705 15.416 136.321 15.9335C135.929 16.124 135.595 16.2186 135.322 16.2186C134.947 16.2186 134.648 16.0848 134.426 15.8173C134.205 15.5497 134.094 15.1998 134.094 14.7674C134.094 14.4215 134.171 14.1364 134.325 13.9121C134.478 13.6878 134.726 13.4797 135.067 13.2905C135.664 12.9622 136.395 12.7028 137.257 12.5136C138.12 12.3245 138.969 12.2285 139.807 12.2285C141.651 12.2272 143.017 12.6812 143.905 13.5878ZM140.858 22.0111C141.318 21.5017 141.549 20.8409 141.549 20.0289V19.5884H141.114C139.731 19.5884 138.761 19.7005 138.207 19.9248C137.651 20.1491 137.375 20.5558 137.375 21.1436C137.375 21.6273 137.532 22.0205 137.849 22.3232C138.164 22.6258 138.562 22.7772 139.04 22.7772C139.789 22.7758 140.396 22.5205 140.858 22.0111Z" fill="#F1F2F2"/>
<path d="M156.253 22.9569C156.492 23.1812 156.612 23.5095 156.612 23.9419C156.612 24.4432 156.415 24.8229 156.023 25.0823C155.63 25.3417 155.067 25.4458 154.332 25.3931L153.615 25.3417C150.627 25.0999 149.132 23.519 149.132 20.5991V15.4673H148.108C147.545 15.4673 147.117 15.3416 146.827 15.0917C146.538 14.8417 146.392 14.4823 146.392 14.0161C146.392 13.5324 146.538 13.1649 146.827 12.9149C147.117 12.665 147.545 12.5393 148.108 12.5393H149.132V10.5166C149.132 9.94638 149.307 9.49779 149.657 9.1681C150.007 8.83976 150.481 8.67627 151.079 8.67627C151.676 8.67627 152.146 8.84111 152.488 9.1681C152.83 9.49644 153.001 9.94638 153.001 10.5166V12.5379H154.794C155.955 12.5379 156.536 13.0298 156.536 14.0148C156.536 14.4809 156.39 14.8404 156.1 15.0903C155.809 15.3416 155.374 15.466 154.794 15.466H153.001V20.8828C153.001 21.4017 153.12 21.7949 153.36 22.0624C153.599 22.3299 153.949 22.4813 154.41 22.5164L155.127 22.5678C155.637 22.6029 156.012 22.7326 156.253 22.9569Z" fill="#F1F2F2"/>
<path d="M170.391 17.5912V23.5782C170.391 24.1484 170.216 24.5984 169.866 24.9267C169.517 25.2551 169.043 25.4186 168.444 25.4186C167.846 25.4186 167.377 25.2551 167.035 24.9267C166.694 24.5984 166.523 24.1498 166.523 23.5782V17.5398C166.523 16.7791 166.365 16.2143 166.049 15.8414C165.732 15.4698 165.242 15.2847 164.576 15.2847C163.773 15.2847 163.128 15.5441 162.642 16.0616C162.156 16.5805 161.912 17.2709 161.912 18.1357V23.5782C161.912 24.1484 161.741 24.5984 161.399 24.9267C161.057 25.2551 160.587 25.4186 159.99 25.4186C159.392 25.4186 158.918 25.2551 158.568 24.9267C158.218 24.5984 158.043 24.1498 158.043 23.5782V8.6504C158.043 8.11534 158.226 7.68296 158.593 7.35462C158.96 7.02629 159.442 6.86279 160.041 6.86279C160.604 6.86279 161.057 7.01818 161.399 7.32895C161.741 7.63972 161.912 8.05453 161.912 8.57339V14.224C162.355 13.5673 162.928 13.0701 163.628 12.7337C164.327 12.3972 165.122 12.2283 166.01 12.2283C168.93 12.227 170.391 14.0146 170.391 17.5912Z" fill="#F1F2F2"/>
<path d="M27.044 13.4676H8.23779V5.80908H27.044L30.4346 9.63833L27.044 13.4676Z" fill="#F1F2F2"/>
<path d="M6.59757 14.9497H25.4038V22.6082H6.59757L3.20703 18.779L6.59757 14.9497Z" fill="#F1F2F2"/>
<path d="M18.0403 29.6522V4.29457C18.0403 3.54467 17.4394 2.93799 16.6996 2.93799C15.9585 2.93799 15.3589 3.54602 15.3589 4.29457V29.6535H18.0403V29.6522Z" fill="#F1F2F2"/>
</svg>
