<svg fill="none" height="181" viewBox="0 0 208 181" width="208" xmlns="http://www.w3.org/2000/svg"><path d="m110.296 145.444-7.154 5.934s15.16 26.996 17.363 22.991c1.067-1.937-1.405-15.373-1.405-15.373" fill="#fff"/><path d="m119.875 175.161c-3.707 0-15.712-21.177-17.063-23.591-.044-.078-.059-.169-.043-.257.015-.088.06-.168.127-.227l7.154-5.973c.039-.032.084-.056.132-.071s.099-.021.149-.016.099.019.144.043c.044.023.084.055.116.094s.057.084.072.132.02.099.015.149c-.004.051-.019.1-.042.144-.024.045-.056.085-.095.117l-6.908 5.765c5.066 8.986 13.817 22.922 16.242 22.922.064-.003.125-.024.177-.06.051-.037.091-.088.115-.147.768-1.33-.461-9.763-1.443-15.105-.018-.1.004-.203.062-.286.057-.084.145-.141.245-.16.1-.016.203.007.287.064s.144.144.166.244c.253 1.391 2.456 13.613 1.358 15.612-.087.182-.224.336-.395.444-.171.107-.37.164-.572.163z" fill="#373e44"/><path d="m190.049 107.048-12.128-5.05 16.258-39.1261c1.535-3.7665 8.39-9.6777 10.746-8.7015 2.357.9762 2.963 9.9929 1.397 13.7594z" fill="#fff"/><path d="m190.049 107.432c-.048.011-.098.011-.146 0l-12.128-5.05c-.093-.04-.168-.114-.207-.207-.038-.097-.038-.204 0-.3l16.257-39.1184c1.536-3.6359 8.444-10.062 11.23-8.909 2.787 1.153 3.117 10.6232 1.605 14.259l-16.25 39.1184c-.034.066-.086.12-.15.157s-.138.054-.211.05zm-11.629-5.642 11.46 4.758 16.119-38.7642c1.536-3.7589.768-12.4296-1.189-13.2521-1.958-.8225-8.667 4.7274-10.232 8.4555z" fill="#373e44"/><path d="m188.604 106.428-8.915-3.715-.808 1.945 8.915 3.715z" fill="#fff"/><path d="m187.792 108.77c-.05.011-.103.011-.153 0l-8.912-3.713c-.047-.019-.09-.048-.126-.084s-.065-.079-.084-.126-.029-.098-.028-.149c0-.051.011-.101.031-.148l.806-1.937c.018-.047.046-.09.082-.126.035-.035.078-.063.125-.082.093-.038.198-.038.292 0l8.919 3.713c.047.019.09.048.126.084s.065.079.084.126.029.098.028.149c0 .051-.011.101-.031.148l-.806 1.922c-.039.093-.114.168-.207.208-.047.016-.097.021-.146.015zm-8.443-4.305 8.213 3.421.507-1.238-8.168-3.42z" fill="#373e44"/><path d="m204.185 73.0639-12.133-5.0552-10.691 25.734 12.133 5.0551z" fill="#d1d3d4"/><path d="m193.48 99.1921c-.05.0108-.102.0108-.153 0l-12.128-5.0579c-.047-.0185-.09-.0465-.125-.0822-.036-.0357-.064-.0784-.082-.1253-.039-.0936-.039-.1986 0-.2921l10.692-25.7355c.04-.0935.114-.1679.208-.2076.096-.0381.203-.0381.299 0l12.128 5.058c.093.0391.167.1135.206.2071s.039.1987.001.2925l-10.692 25.7355c-.034.0638-.085.117-.148.1537-.062.0366-.133.0552-.206.0538zm-11.629-5.6498 11.422 4.7658 10.424-25.0282-11.422-4.7582z" fill="#373e44"/><path d="m172.924 100.56 5.604-.03 2.417-5.8116-6.655 2.552z" fill="#fff"/><path d="m172.924 100.945c-.064 0-.126-.016-.182-.045-.057-.029-.105-.072-.141-.124-.03-.056-.046-.118-.046-.181s.016-.125.046-.181l1.367-3.2896c.018-.0491.047-.0937.084-.1308.037-.0372.081-.0659.131-.0844l6.655-2.5521c.07-.0261.147-.0314.22-.015.074.0164.141.0536.194.1073.053.0536.088.1218.102.1957.014.074.005.1504-.025.2194l-2.418 5.8115c-.027.07-.074.13-.136.173-.061.042-.135.065-.209.065h-5.612zm1.658-3.3748-1.083 2.6058h4.775l1.973-4.7504z" fill="#373e44"/><path d="m194.586 109.592-3.923-4.004 2.41-5.8117 2.887 6.5257z" fill="#fff"/><path d="m194.593 109.977c-.103 0-.203-.042-.276-.116l-3.93-4.004c-.053-.054-.088-.122-.103-.195-.015-.074-.009-.15.018-.22l2.418-5.8194c.031-.0681.081-.1261.143-.1669.063-.0409.136-.063.21-.0637.074-.0009.147.0197.21.0592.062.0396.112.0964.143.1638l2.879 6.534c.021.047.032.098.032.15 0 .051-.011.102-.032.15l-1.366 3.289c-.025.059-.064.111-.114.151-.049.04-.108.068-.17.08zm-3.485-4.505 3.347 3.406 1.082-2.606-2.448-5.558z" fill="#373e44"/><path d="m70.5722 19.9641 73.3668 2.1907 53.256 50.5793-9.71 23.3602-126.6229-52.77z" fill="#fff"/><path d="m187.485 96.4787c-.048.0108-.097.0108-.145 0l-126.6542-52.7701c-.0469-.0185-.0895-.0465-.1252-.0822-.0356-.0357-.0636-.0784-.0821-.1253-.0384-.0936-.0384-.1985 0-.2921l9.7101-23.3603c.0317-.0696.0824-.1289.1462-.1711.0638-.0421.1382-.0654.2146-.0672l73.3666 2.1908c.094.0005.185.0361.254.0999l53.294 50.5178c.055.0551.093.1256.108.2023s.007.1562-.023.2282l-9.703 23.3986c-.04.0935-.114.1679-.207.2076-.049.0185-.101.0264-.154.0231zm-126.1238-53.362 125.9248 52.478 9.457-22.7684-52.965-50.2949-72.9216-2.1753z" fill="#373e44"/><path d="m155.781 24.4153-21.785-9.0768c-7.053-2.9387-15.15.4049-18.085 7.468l-11.358 27.3379c-2.934 7.0631.405 15.1711 7.458 18.1098l21.786 9.0768c7.053 2.9386 15.149-.4049 18.084-7.468l11.358-27.3379c2.934-7.0631-.404-15.1712-7.458-18.1098z" fill="#d1d3d4"/><path d="m139.103 78.799c-1.876-.0023-3.733-.3758-5.465-1.0993l-21.792-9.0781c-3.481-1.4498-6.245-4.2243-7.684-7.7139-1.44-3.4895-1.437-7.4086.008-10.8959l11.36-27.3497c1.448-3.486 4.219-6.2539 7.703-7.6952 3.485-1.4414 7.399-1.4384 10.881.0084l21.792 9.0858c3.481 1.4498 6.245 4.2244 7.685 7.7139 1.439 3.4896 1.436 7.4086-.009 10.8959l-11.36 27.342c-1.083 2.592-2.905 4.8066-5.239 6.3667-2.333 1.5601-5.074 2.3963-7.88 2.404zm-10.431-64.1389c-1.76.0042-3.501.3515-5.128 1.0224-1.635.6709-3.122 1.6597-4.373 2.9091-1.252 1.2494-2.244 2.7348-2.919 4.3703l-11.36 27.342c-1.369 3.2967-1.375 7.0028-.016 10.3036 1.358 3.3009 3.97 5.9263 7.262 7.2992l21.799 9.1243c3.296 1.3634 6.998 1.36 10.292-.0094 3.293-1.3695 5.909-3.9928 7.271-7.2931l11.361-27.342c1.372-3.2978 1.382-7.0064.026-10.3112-1.356-3.3049-3.966-5.9357-7.257-7.3147l-21.785-9.0551c-1.637-.6902-3.396-1.0456-5.173-1.0454z" fill="#373e44"/><path d="m62.9575 54.0859-12.1357-5.058 16.2424-39.1182c1.5352-3.76654 8.3898-9.677703 10.7463-8.70148 2.3566.97623 2.9707 9.99288 1.4048 13.75938z" fill="#fff"/><path d="m62.9575 54.4702c-.0479.0115-.0978.0115-.1458 0l-12.1357-5.1117c-.0939-.0407-.1682-.1166-.2069-.2114s-.0389-.201-.0004-.296l16.2578-39.11819c.7676-1.82177 2.794-4.28924 5.1812-6.28013 1.2436-1.03003 4.3139-3.351452 6.0487-2.628891s2.2568 4.542911 2.4026 6.149461c.2763 3.07475 0 6.28785-.7676 8.10955l-16.2577 39.1183c-.0261.079-.0766.1477-.1442.196-.0676.0484-.1489.0739-.232.073zm-11.6291-5.6498 11.4219 4.7658 16.1196-38.7646c.7138-1.7219 1.0055-4.7582.7676-7.74832-.238-2.99018-1.0286-5.12712-1.9344-5.51146s-2.9706.60726-5.2657 2.51359c-2.2951 1.90634-4.2525 4.26619-4.9664 5.98799z" fill="#373e44"/><path d="m61.4978 53.4744-8.9155-3.7145-.8079 1.9446 8.9155 3.7145z" fill="#fff"/><path d="m60.693 55.8077c-.048.0115-.0979.0115-.1459 0l-8.9195-3.7127c-.0939-.0407-.1681-.1166-.2069-.2114-.0387-.0948-.0388-.201-.0003-.2959l.7676-1.9448c.0396-.0935.1139-.1679.2072-.2076.0962-.0381.2032-.0381.2994 0l8.9118 3.7205c.0469.0185.0895.0465.1251.0822.0357.0357.0636.0784.0822.1253.0384.0936.0384.1985 0 .2921l-.806 1.9448c-.0397.0934-.114.1678-.2073.2075-.0355.0062-.0719.0062-.1074 0zm-8.4436-4.3123 8.2056 3.4283.5143-1.2375-8.2133-3.4207z" fill="#373e44"/><path d="m77.0859 20.1056-12.133-5.0552-10.6917 25.734 12.1331 5.0551z" fill="#d1d3d4"/><path d="m66.3811 46.2299c-.048.0109-.0978.0109-.1458 0l-12.1357-5.0579c-.0469-.0186-.0895-.0466-.1251-.0823-.0357-.0357-.0637-.0783-.0822-.1253-.0384-.0935-.0384-.1985 0-.2921l10.7003-25.7354c.0186-.047.0465-.0896.0822-.1253.0356-.0357.0782-.0637.1251-.0823.0934-.0384.1982-.0384.2917 0l12.128 5.058c.0469.0185.0896.0463.1255.0816.036.0354.0645.0776.0838.1242s.0291.0967.0288.1471c-.0004.0505-.0108.1004-.0308.1467l-10.6927 25.7047c-.0287.0702-.0776.1303-.1405.1727-.0628.0424-.1368.0652-.2126.0656zm-11.5984-5.6498 11.4219 4.7581 10.401-25.0206-11.4526-4.7812z" fill="#373e44"/><path d="m45.8247 47.5982 5.6111-.0308 2.4103-5.8112-6.6551 2.552z" fill="#fff"/><path d="m45.8248 47.9825c-.0629-.0003-.1247-.0161-.1801-.0459-.0553-.0299-.1025-.0729-.1374-.1252-.0348-.0524-.0563-.1126-.0625-.1752-.0063-.0626.003-.1259.0269-.1841l1.3663-3.29c.0201-.0493.0503-.094.0887-.131.0383-.0371.0839-.0657.1339-.0842l6.6474-2.552c.0706-.0262.1473-.0314.2208-.015.0735.0163.1408.0536.1937.1072.0527.0536.0882.1218.1019.1958s.0049.1504-.0251.2193l-2.4103 5.8113c-.0288.0702-.0777.1302-.1405.1726-.0629.0424-.1368.0653-.2126.0657h-5.6035zm1.658-3.3745-1.0823 2.6058h4.7744l1.9728-4.7735z" fill="#373e44"/><path d="m67.4941 56.6302-3.9301-4.0048 2.4179-5.8112 2.8785 6.5261z" fill="#fff"/><path d="m67.4943 57.0453c-.1031-.0033-.2014-.0443-.2763-.1153l-3.9301-4.0048c-.0527-.0536-.0882-.1218-.1019-.1958s-.0049-.1504.0251-.2193l2.418-5.8189c.0277-.0688.0755-.1276.1372-.1687.0616-.0411.1341-.0627.2082-.0619.0729-.0004.1444.0204.2058.06.0613.0396.1098.0962.1396.1629l2.8938 6.5184c.0386.0989.0386.2086 0 .3075l-1.3816 3.2669c-.0245.059-.0633.1111-.1128.1513-.0496.0403-.1085.0675-.1712.0793zm-3.5002-4.5122 3.3467 3.413 1.0823-2.6058-2.4333-5.5192z" fill="#373e44"/><path d="m111.025 25.9598-32.3774-1.4759c-.0504-.0019-.1-.0139-.1458-.035-.0458-.0212-.087-.0512-.1212-.0883-.0342-.0372-.0608-.0807-.0782-.1281s-.0253-.0978-.0233-.1483c.0079-.1019.0544-.197.1301-.2656.0756-.0686.1747-.1056.2768-.1034l32.37 1.4759c.101 0 .199.0405.271.1126s.112.1698.112.2718c0 .1019-.04.1996-.112.2717s-.17.1126-.271.1126z" fill="#d1d3d4"/><path d="m192.897 73.7411c-.097-.0022-.19-.0405-.261-.1076l-27.541-25.6125c-.075-.0704-.118-.1674-.121-.2697-.003-.1024.035-.2017.105-.2761s.167-.1178.27-.1207c.102-.0029.201.035.275.1053l27.534 25.6125c.036.0357.065.0783.084.1251s.03.0971.03.1478-.011.101-.03.1478-.048.0893-.084.1251c-.069.0721-.162.116-.261.123z" fill="#d1d3d4"/><path d="m159.829 42.325s42.463 34.9136 24.809 37.4964c-14.746 2.1523-28.141-5.7267-28.141-5.7267l4.215-9.2626s13.578 6.3108 13.11 3.5436c-.468-2.7673-18.898-13.8363-18.898-13.8363z" fill="#9a4dff"/><path d="m122.009 28.2274s-42.7325-4.712-43.8455 1.8141 17.3016 20.962 17.7545 20.0857 10.217-6.6337 10.217-6.6337l-8.5283-6.849 20.4333 4.6121z" fill="#9a4dff"/><path d="m158.57 18.8649c1.228-2.3061.368-5.1963-1.021-7.4101-1.777-2.74299-4.281-4.93602-7.233-6.33315-2.952-1.39712-6.234-1.94308-9.478-1.57662-2.97.38434-6.026 1.71416-7.561 4.29693 1.618-.32387 3.277-.38358 4.913-.1768-1.802.78903-3.417 1.95006-4.739 3.40714-1.323 1.4571-2.324 3.1774-2.937 5.0484-.165.3763-.187.8001-.061 1.1914.307.6611 1.243.6841 1.942.4843.698-.1999 1.481-.5073 2.118-.1537-2.084.8491-3.756 2.4789-4.659 4.5429-.444.9055-.571 1.9343-.361 2.921.215.6904.613 1.3095 1.151 1.791 1.345 1.1021 2.919 1.8899 4.606 2.306 2.994.9686 6.141 1.8372 9.211 1.4375 3.761-.4766 6.863-2.7212 9.611-5.1886 1.266-1.1377 2.494-1.1684 3.838-2.014.391-.2564.721-.596.966-.9945.246-.3986.4-.8463.454-1.3115-.173-.7806-.428-1.5407-.76-2.2676z" fill="#fff"/><path d="m142.88 31.1407c-2.648-.1067-5.264-.6254-7.753-1.5374-1.758-.4401-3.395-1.2703-4.789-2.429-.586-.5317-1.018-1.2114-1.252-1.9678-.244-1.0725-.111-2.1967.377-3.1824.714-1.6328 1.895-3.0179 3.392-3.9817h-.13l-.261.0768c-.852.2383-1.988.2076-2.395-.6918-.174-.4771-.157-1.0029.046-1.4682 1.129-3.4228 3.502-6.2955 6.647-8.04807-1.143-.03365-2.287.06436-3.408.29209-.073.01553-.149.00921-.219-.0182s-.13-.0747-.174-.13602c-.043-.06132-.067-.134-.07-.20904-.002-.07505.017-.14918.056-.21325 1.42-2.3906 4.284-4.02789 7.845-4.48141 3.318-.3906 6.679.15957 9.7 1.58786 3.02 1.4283 5.58 3.67732 7.387 6.49094.821 1.3222 2.564 4.6736 1.105 7.6484.327.7205.569 1.4762.722 2.2523-.049.5299-.218 1.0418-.493 1.4972-.275.4553-.65.8423-1.096 1.1317-.529.3248-1.09.5952-1.673.8071-.766.2486-1.475.6456-2.088 1.1684-2.434 2.1907-5.75 4.7735-9.826 5.2885-.547.0755-1.098.1165-1.65.123zm-9.034-14.0669c.297-.0064.59.0651.852.2076.064.0349.117.0875.152.1515s.052.1367.047.2097c-.004.0722-.028.1417-.07.2003-.043.0586-.101.1038-.168.1303-1.993.8099-3.591 2.3687-4.452 4.343-.415.8238-.537 1.7648-.345 2.6674.195.6229.556 1.1809 1.044 1.6142 1.306 1.0762 2.834 1.8482 4.475 2.2599 2.894.9301 5.987 1.8141 9.073 1.4221 3.838-.492 6.908-2.8518 9.403-5.0964.674-.5847 1.457-1.0312 2.303-1.3144.536-.2041 1.05-.4616 1.535-.7687.344-.2283.635-.5299.85-.8833s.349-.75.393-1.1614c-.18-.6945-.416-1.3731-.706-2.0293-.032-.0561-.049-.1197-.049-.1845s.017-.1284.049-.1845c1.405-2.652-.238-5.8035-1.005-7.0334-1.75-2.66585-4.202-4.79535-7.084-6.15324-2.883-1.35789-6.085-1.89131-9.251-1.54131-2.948.37666-5.373 1.59117-6.778 3.3822 1.371-.18069 2.759-.18069 4.13 0 .084.0111.161.0495.221.10925s.098.13752.109.22129c.012.08382-.004.16919-.046.24286-.042.07366-.107.1315-.184.16454-1.759.75817-3.336 1.88126-4.629 3.29511-1.293 1.4138-2.271 3.0862-2.871 4.9067-.132.2837-.159.6052-.077.9071.192.4227.906.4381 1.49.2767l.245-.0769c.432-.1604.884-.2562 1.344-.2844z" fill="#373e44"/><path d="m133.239 86.0477s13.878 30.7473 11.514 36.7583-25.668 36.205-25.668 36.205l-12.366-10.493s21.792-28.756 20.894-30.747c-.899-1.991-11.683-22.822-11.683-22.822l-58.6218 64.016-5.9105-15.374 47.5144-68.2818z" fill="#373e44"/><path d="m119.1 159.395c-.089-.001-.175-.03-.246-.084l-12.381-10.508c-.074-.064-.12-.154-.13-.251s.017-.194.076-.272c8.206-10.838 21.117-28.672 20.833-30.394-.768-1.775-9.779-19.132-11.407-22.2913l-58.2527 63.6083c-.0436.049-.0991.087-.1612.108-.0621.022-.1287.027-.1935.016-.0647-.012-.1254-.04-.1761-.082-.0508-.042-.0901-.096-.114-.157l-5.9105-15.374c-.0228-.058-.0305-.121-.0224-.183.008-.061.0316-.12.0685-.17l47.5143-68.2901c.0469-.067.1138-.1172.1911-.1435.0773-.0262.1609-.0271.2388-.0025l34.3267 10.7615c.053.0153.101.0417.142.0776.041.0358.074.0802.096.13.568 1.2606 13.917 30.955 11.514 37.058-2.402 6.103-24.747 35.06-25.699 36.328-.031.042-.07.076-.115.101-.045.026-.095.041-.146.045zm-11.852-10.946 11.798 9.993c2.503-3.244 23.189-30.217 25.331-35.79s-10.386-33.9293-11.445-36.3045l-33.897-10.6155-47.238 67.882 5.6188 14.605 58.2302-63.5083c.04-.0482.093-.085.152-.1066.06-.0215.123-.0272.186-.0164.06.0074.117.0295.167.0644.049.0348.089.0814.117.1355.445.8532 10.8 20.8544 11.69 22.8374s-15.329 23.714-20.71 30.824z" fill="#373e44"/><path d="m133.239 86.0477-34.3269-10.7616 32.2009-42.0699s16.035 7.6868 17.985 10.823c1.949 3.1362-15.859 42.0085-15.859 42.0085z" fill="#fff"/><path d="m133.239 86.432c-.038.0073-.077.0073-.115 0l-34.3275-10.7615c-.0596-.0185-.1138-.0512-.158-.0954-.0441-.0442-.0768-.0986-.0953-.1583-.0186-.0583-.0227-.1203-.012-.1806.0107-.0602.0359-.117.0734-.1653l32.1704-42.1161c.054-.0705.131-.1204.217-.1413.087-.021.178-.0118.259.026.66.3152 16.119 7.8329 18.138 10.9922 2.019 3.1592-14.001 38.3726-15.828 42.3697-.028.0637-.073.1186-.13.1592-.056.0405-.123.0652-.192.0714zm-33.6902-11.338 33.4822 10.4848c6.855-14.997 17.072-39.2028 15.736-41.3397-1.727-2.7519-15.398-9.524-17.539-10.5694z" fill="#373e44"/><path d="m139.725 32.7703c-.629 0-3.753 7.0873-4.076 7.6868-3.07 5.7113-5.918 11.6763-9.134 17.2416-6.371 11.0229-20.234 17.6797-30.9957 23.4063-1.4278.7687-3.0013 1.5374-4.6056 1.2453-1.1284-.3047-2.1544-.9074-2.9706-1.7449-3.6832-3.2731-6.6338-7.2888-8.6586-11.7839-.3225-.5782-.4692-1.2381-.4221-1.8987.0879-.5346.3315-1.0313.7002-1.4278.3687-.3966.8461-.6753 1.3723-.8013 5.6956-.9916 14.0931-1.6527 18.691-4.6121 7.6761-4.8965 16.5191-19.2786 22.3681-31.8849 7.131 1.7526 13.333 3.5743 17.731 4.5736z" fill="#9a4dff"/><path d="m159.829 42.325c.176.1384-6.909 17.0494-7.239 17.8719-2.64 6.2032-11.89 17.5874-17.455 21.1464 3.562-6.3647 4.606-16.4344 4.859-23.6139.115-3.4898 2.986-9.6239 4.306-12.8447.131-.3151 1.251-10.4079 1.105-10.5002.016.0154 9.933 4.3584 14.424 7.9405z" fill="#9a4dff"/><path d="m147.662 35.2839-1.988 6.7798s-1.788 2.8364-6.01.4535-4.007-5.7036-4.007-5.7036l4.16-12.5142s3.401-1.1223 4.483-8.7092c0 0 6.394 4.1432 13.38 5.204 0 0-2.257 8.2941-3.8 11.6609-1.543 3.3669-6.218 2.8288-6.218 2.8288z" fill="#fff"/><path d="m142.773 43.847c-1.168-.0419-2.306-.3861-3.301-.9993-4.375-2.4751-4.207-5.9188-4.199-6.0649v-.0922l4.16-12.5142c.02-.0563.052-.1073.095-.1487.042-.0414.094-.0721.151-.0895 0 0 3.193-1.1992 4.222-8.4094.01-.0637.036-.1238.075-.1749s.09-.0915.149-.1176c.059-.026.123-.0368.187-.0313.065.0054.126.0269.18.0624.061.0385 6.402 4.1125 13.218 5.1502.053.0069.104.0257.15.055.045.0292.083.0682.111.1141.031.0442.052.0946.061.1478.009.0531.007.1076-.007.1597-.092.3459-2.303 8.3709-3.838 11.7224-1.42 3.0747-5.159 3.1285-6.295 3.0747l-1.896 6.48c-.007.0341-.023.0659-.046.0922-.367.4965-.846.8988-1.399 1.174-.552.2753-1.162.4156-1.778.4095zm-6.732-6.9642c0 .3997.084 3.19 3.838 5.2962 3.607 2.0447 5.235.0461 5.465-.2844l1.973-6.7183c.026-.0858.08-.16.154-.2103.074-.0504.163-.0738.253-.0664.046 0 4.421.4612 5.833-2.6059 1.321-2.8672 3.186-9.4701 3.662-11.1843-5.719-.9608-11.015-3.928-12.627-4.8888-1.044 6.3262-3.723 8.0173-4.46 8.3632z" fill="#373e44"/><path d="m142.066 24.5531c.021-.6682-.173-1.3256-.552-1.8756-.383-.4908-.845-.9143-1.367-1.2529-.265-.2139-.574-.3661-.905-.4458-.237-.0284-.477-.0101-.706.0538-.559.0996-1.063.397-1.421.8378-.246.3858-.394.8268-.429 1.2837-.069.4896-.069.9864 0 1.4759.062.491.221.9647.468 1.3936.246.4288.576.8044.968 1.1048.393.3003.842.5196 1.32.6449s.976.1543 1.465.0852" fill="#fff"/><path d="m140.355 28.2812c-1.004.0006-1.973-.3652-2.726-1.0289s-1.239-1.5796-1.366-2.5762c-.056-.5121-.04-1.0295.046-1.5374.042-.5174.211-1.0164.492-1.4528.407-.5317.994-.8976 1.65-1.03.28-.0746.572-.0929.86-.0538.39.0847.755.2583 1.067.5073.556.3622 1.047.8172 1.45 1.3452.432.6153.65 1.355.622 2.1062-.006.102-.05.1978-.125.2678-.074.0701-.172.109-.274.1088-.101-.0059-.196-.0509-.265-.1254-.068-.0745-.106-.1729-.103-.2743.02-.5838-.15-1.1583-.484-1.6373-.353-.4562-.782-.8487-1.267-1.1607-.224-.1815-.486-.3102-.767-.3766-.188-.0277-.38-.0119-.561.0461-.467.079-.891.3214-1.197.6841-.2.3449-.315.732-.338 1.13-.078.4543-.094.9173-.046 1.3759.058.4402.202.8647.424 1.2489.222.3843.518.7208.87.9901.353.2694.755.4663 1.183.5793.429.1131.876.1402 1.315.0797.1-.0133.201.0131.281.0735.08.0603.134.1499.149.2493.013.1006-.013.2025-.073.2842s-.149.1369-.249.154c-.189.0188-.379.0265-.568.023z" fill="#373e44"/><path d="m150.525 23.992s1.535 4.1739.768 4.6582c-.768.4843-2.219-.3228-2.219-.3228" fill="#fff"/><path d="m150.732 29.1498c-.631-.0419-1.247-.2202-1.803-.5227-.045-.0234-.084-.0553-.115-.094-.032-.0387-.056-.0833-.07-.1313-.014-.0479-.019-.0982-.014-.148.006-.0497.021-.0979.045-.1417.024-.0452.056-.0852.095-.1178s.084-.0572.132-.0722c.049-.015.1-.0202.151-.0153.05.0049.099.0198.144.0439.422.2306 1.42.6072 1.819.3459.192-.2998-.238-2.3061-.936-4.2124-.019-.0469-.027-.097-.026-.1473s.013-.0999.033-.1458c.021-.0458.051-.0871.088-.1212.037-.0342.08-.0606.127-.0777.096-.0346.202-.0297.294.0135s.163.1213.198.2171c.767 2.037 1.45 4.6121.652 5.1118-.245.1486-.527.2233-.814.2152z" fill="#373e44"/><path d="m147.662 35.2839s-3.493-1.1145-4.813-2.5827c0 0 .077 4.4276 3.546 6.6414z" fill="#373e44"/><path d="m146.396 39.7269c-.073-.0025-.145-.0237-.207-.0615-3.6-2.3061-3.723-6.7644-3.723-6.9181-.004-.0777.017-.1544.06-.2193s.105-.1146.178-.142c.073-.0308.154-.0378.231-.0198.077.0179.146.0598.199.1197 1.235 1.3759 4.605 2.4598 4.643 2.4675.049.0147.094.0392.133.0718.038.0326.07.0727.093.1179s.037.0946.04.1453c.004.0506-.003.1013-.02.1492l-1.259 4.0587c-.018.0551-.049.1055-.088.1479-.04.0425-.088.0759-.142.0981-.047.0022-.093-.0029-.138-.0154zm-3.071-6.0803c.281 1.9909 1.297 3.8039 2.848 5.081l1.006-3.2054c-1.355-.4569-2.645-1.0873-3.838-1.8756z" fill="#373e44"/><path d="m146.211 21.1478s1.835-1.3067 2.679 1.0455z" fill="#fff"/><path d="m148.89 22.5776c-.078-.0011-.155-.0259-.219-.0711-.064-.0453-.114-.1089-.141-.1825-.051-.2386-.156-.4623-.306-.6542-.15-.1918-.342-.3467-.562-.4527-.204-.04-.415-.0389-.619.0033-.205.0423-.398.1247-.571.2426-.041.0295-.087.0506-.137.0619-.049.0113-.1.0127-.15.0042-.05-.0086-.098-.027-.141-.0542-.043-.0271-.08-.0625-.109-.1041-.029-.0407-.05-.0868-.061-.1357s-.013-.0995-.004-.1489c.008-.0494.027-.0966.054-.1388s.062-.0786.103-.107c.268-.1896.572-.3199.894-.3822s.653-.0552.972.0209c.342.1334.647.3467.89.6221.243.2755.417.6051.507.9614.02.058.027.1203.019.1814-.008.0612-.031.1195-.066.17-.036.0505-.083.0918-.137.1202-.055.0285-.116.0434-.177.0434z" fill="#373e44"/><path d="m152.268 24.0765s1.619-1.9985 2.655.3613z" fill="#fff"/><path d="m154.924 24.8221c-.075.0003-.148-.0214-.211-.0624s-.112-.0994-.142-.1682c-.169-.392-.453-.8609-.845-.9147-.391-.0538-.998.4381-1.166.638-.03.0448-.069.0829-.114.1119-.045.0289-.096.048-.149.056-.053.0081-.107.0049-.159-.0093-.052-.0143-.1-.0392-.142-.0732-.041-.0341-.075-.0764-.099-.1244s-.038-.1005-.041-.1542c-.002-.0537.006-.1073.026-.1575.019-.0501.049-.0956.087-.1336.214-.2839.491-.5143.81-.673.318-.1587.669-.2414 1.024-.2417.599.0769 1.082.5381 1.451 1.3683.039.0939.04.1994.003.2941-.038.0946-.11.1711-.203.2132-.042.0156-.086.0259-.13.0307z" fill="#373e44"/><path d="m152.797 30.2491s-7.676 4.5045-7.676-3.5052z" fill="#fff"/><path d="m148.629 31.9017c-.672.0154-1.336-.1463-1.927-.4689-1.305-.7687-1.972-2.306-1.98-4.6812-.001-.0512.008-.102.027-.1495s.047-.0908.083-.1273c.035-.0365.078-.0655.125-.0853s.098-.03.149-.03c.101.002.197.0431.269.1148.072.0716.113.1683.115.2696 0 2.0754.545 3.4283 1.589 4.0202 2.049 1.1684 5.488-.8225 5.526-.8456.089-.0509.194-.0646.293-.0379.098.0266.182.0914.233.1801s.065.194.038.2928c-.027.0987-.091.1828-.18.2338-1.333.7687-2.825 1.2186-4.36 1.3144z" fill="#373e44"/><path d="m140.309 44.1852-3.6 1.0531 1.22 2.3061s-9.211 11.8069-14.968 12.2989c-3.336.2283-6.662-.5768-9.526-2.306l-6.141 2.8825s5.589 4.7889 5.949 5.1656c.361.3766 9.618 3.0747 15.897-3.8435 3.705-4.0908 7.044-8.4994 9.979-13.1752l2.142-.9378z" fill="#373e44"/><path d="m124.895 57.0453c-.092-.0009-.18-.0348-.249-.0954-.069-.0607-.114-.1441-.127-.2351l-1.689-11.3919c-.011-.0888.009-.1789.056-.2547.048-.0757.12-.1325.205-.1604l5.75-1.8756-4.015-3.6666c-.049-.0451-.085-.1021-.105-.1654s-.024-.1308-.01-.1959c.015-.065.046-.1253.09-.1751.044-.0497.1-.0874.163-.1093l8.636-2.9902c.097-.0336.203-.0274.295.0173s.162.1242.196.221c.034.0969.027.2031-.017.2954-.045.0922-.124.163-.221.1966l-8.029 2.7749 4.015 3.6897c.05.0458.087.1041.107.1689.02.0649.023.1339.008.2001-.013.0657-.044.1266-.088.1766-.045.05-.102.0872-.166.1078l-6.056 1.9755 1.635 11.069c.013.0997-.013.2007-.073.2812-.061.0805-.15.1341-.249.1493z" fill="#373e44"/><path d="m103.993 69.4134h-.084c-.077 0-7.9677-1.5989-12.2432-2.5751-.0492-.01-.0959-.0298-.1374-.0581-.0414-.0284-.0768-.0648-.104-.1071-.0272-.0422-.0456-.0895-.0543-.139-.0086-.0496-.0073-.1003.004-.1493.0109-.0496.0314-.0965.0605-.1381.0291-.0415.0661-.0769.109-.1041.0428-.0271.0906-.0455.1405-.0541.05-.0086.1011-.0072.1505.0042 4.2679.9685 12.1434 2.552 12.2274 2.5674.05.0101.097.0298.139.0581.041.0282.077.0644.105.1065.028.0422.047.0893.057.1389.009.0496.009.1005-.001.15-.02.0835-.067.158-.134.2122-.066.0542-.149.0849-.235.0876z" fill="#373e44"/><path d="m143.663 57.9447c-.078.0006-.154-.0225-.218-.0661-.065-.0437-.114-.1059-.143-.1783-.028-.0725-.033-.1519-.016-.2277.018-.0757.058-.1443.116-.1967l8.643-7.9174-3.838-3.4053c-.045-.0397-.08-.0898-.102-.1461-.021-.0563-.028-.1169-.021-.1767.004-.0612.023-.1205.055-.1728.032-.0522.077-.0958.129-.127l5.412-3.1208-3.531-2.8442c-.079-.0634-.13-.1555-.141-.2563-.012-.1008.017-.2021.08-.2817.066-.0769.16-.1253.261-.1353.102-.01.203.0191.284.0815l3.937 3.2207c.047.0406.084.0915.108.1489s.035.1196.031.1817c-.006.0617-.026.1212-.06.1735-.033.0522-.079.0955-.132.1262l-5.427 3.1363 3.776 3.3361c.044.03.082.0686.111.1135s.049.0951.058.1478c.001.0541-.011.1076-.033.1568-.023.0491-.056.0927-.097.1276l-8.989 8.1711c-.065.0739-.155.1205-.253.1307z" fill="#373e44"/><path d="m123.099 79.4293c-.064.0003-.128-.0156-.184-.0461-.089-.0502-.154-.1328-.183-.2303-.028-.0975-.018-.2024.029-.2924.085-.1538 8.482-15.3737 12.62-23.5909.02-.0488.05-.0929.088-.1295s.083-.0649.133-.0832c.049-.0184.102-.0263.155-.0233.052.0031.104.0169.151.0408.047.0238.089.0571.122.0978.034.0408.059.088.074.1388.014.0508.018.104.011.1564s-.024.1028-.051.1481c-4.138 8.2403-12.543 23.4602-12.627 23.6139-.033.0612-.082.1123-.141.1475-.06.0353-.128.0534-.197.0524z" fill="#d1d3d4"/><path d="m51.3976 143.576-6.8163 8.455s4.7591 22.292 7.7681 19.825c3.009-2.468 4.9587-12.884 4.9587-12.884z" fill="#fff"/><path d="m51.8581 172.417c-.1284-.001-.2556-.025-.3761-.069-3.0704-1.077-6.8623-18.303-7.2768-20.263-.0121-.056-.0115-.114.0018-.17s.0389-.108.0749-.153l6.8163-8.455c.0408-.053.0952-.094.1574-.118.0622-.025.1299-.032.1957-.021.0664.011.1289.038.1814.08.0526.041.0932.096.118.159l5.9181 15.373c.0195.068.0195.14 0 .208-.0767.43-2.0111 10.554-5.0891 13.114-.195.188-.4511.3-.7216.315zm-6.9083-20.309c1.5351 7.257 4.736 18.818 6.7471 19.517.063.023.1314.028.1968.013.0655-.015.1251-.049.1717-.097 2.7096-2.253 4.6056-11.462 4.8052-12.561l-5.6342-14.643z" fill="#373e44"/><path d="m126.284 26.544s-5.818 19.7398-11.153 24.9745-16.8869 11.6148-15.4899 8.5939c1.3969-3.021 8.1209-5.4961 12.8499-14.1669 4.728-8.6707 7.814-20.7544 7.814-20.7544s-.422-2.1369 2.717-1.422c3.14.7148 3.262 2.7749 3.262 2.7749z" fill="#373e44"/><path d="m145.098 71.5964c3.756-3.7078 6.994-7.9069 9.626-12.4834 3.355-5.8881 5.918-14.0515 6.839-17.1954.107-.3684.081-.7628-.075-1.1133-.156-.3504-.431-.6341-.777-.8007l-1.051-.5304c-.215-.1088-.452-.1684-.693-.1745s-.48.0415-.701.1393c-.22.0978-.416.2434-.573.4263s-.272.3985-.336.6313c-1.458 5.3346-5.98 20.593-12.259 31.1008z" fill="#373e44"/><path d="m103.195 44.3005c.53.5996 5.611 3.8434 5.611 3.8434s2.226-3.1208 4.445-3.5974l-1.39 2.5059 7.047.0999s0 6.6722-6.195 8.0405c-6.194 1.3682-16.7948-5.0657-16.7948-5.0657" fill="#fff"/><path d="m110.818 55.7616c-6.279 0-14.7-5.0964-15.0915-5.3347-.0443-.0253-.083-.0593-.1138-.1001s-.053-.0874-.0652-.137-.0142-.1012-.0058-.1516c.0083-.0504.0268-.0986.0543-.1416.0267-.043.0615-.0803.1026-.1097.0411-.0295.0875-.0505.1367-.062.0492-.0114.1002-.013.15-.0046.0499.0083.0975.0264.1404.0533.0998.0615 10.5083 6.3493 16.5113 5.0348 5.081-1.1146 5.787-5.8881 5.88-7.2871l-6.656-.0922c-.065-.001-.13-.0193-.186-.053-.057-.0337-.104-.0817-.136-.1392-.032-.0589-.049-.125-.049-.1922 0-.0671.017-.1332.049-.1921l.883-1.5374c-1.279.8108-2.396 1.8536-3.293 3.0747-.027.0406-.062.0754-.103.1025-.04.027-.086.0457-.134.055-.047.0093-.097.009-.144-.0009-.048-.0099-.093-.0291-.134-.0566-.529-.3383-5.142-3.2977-5.695-3.9203-.033-.0376-.059-.0815-.075-.1291s-.023-.0979-.019-.1481c.003-.0501.017-.099.04-.1438.022-.0449.054-.0847.092-.1171.035-.0368.076-.0661.123-.0861.046-.02.096-.0304.146-.0304s.1.0104.146.0304c.047.02.088.0493.123.0861.345.3844 3.27 2.3061 5.227 3.5898.637-.8148 2.518-3.0748 4.467-3.4591.072-.0147.147-.008.215.0193s.127.0741.169.1344c.04.062.061.134.061.2076 0 .0735-.021.1456-.061.2075l-1.074 1.9217 6.401.0923c.1 0 .196.0396.266.1103.071.0706.11.1664.11.2663 0 .0769 0 7.0104-6.493 8.4555-.647.1312-1.306.1931-1.965.1845z" fill="#373e44"/><path d="m160.412 66.0389-4.606-2.8057-1.09-4.1202-2.133 2.4291s-3.071-2.5367-5.005-1.6143c-1.535.7687-2.303 4.7044-.768 6.6876s10.386 6.6798 10.386 6.6798" fill="#fff"/><path d="m157.188 73.6796c-.062.0004-.123-.0155-.177-.0461-.368-.1922-8.981-4.7505-10.508-6.7875-1.052-1.3836-1.036-3.4514-.699-4.7966.076-.503.26-.9838.538-1.4096s.645-.7866 1.074-1.0578c1.812-.8456 4.276.7686 5.128 1.4297l1.896-2.1523c.046-.0526.105-.0917.171-.1131.066-.0215.137-.0244.205-.0086.068.0157.13.0497.18.0983.05.0485.086.1097.104.1771l1.044 3.9741 4.467 2.7211c.043.0267.08.0616.11.1028.029.0411.05.0876.062.1369.011.0493.013.1003.004.1502-.008.0499-.026.0977-.053.1405-.025.0434-.059.0812-.099.1113s-.086.0519-.134.0641c-.049.0122-.1.0145-.149.0068-.05-.0077-.097-.0252-.14-.0515l-4.605-2.8057c-.042-.0252-.079-.0586-.108-.0982s-.05-.0846-.061-.1324l-.868-3.4283-1.658 1.891c-.072.0686-.168.1068-.268.1068s-.196-.0382-.269-.1068c-.768-.6611-3.17-2.2292-4.606-1.5374-.322.2277-.595.519-.801.8561s-.34.7128-.396 1.104c-.195.6935-.246 1.4197-.15 2.1337.097.714.338 1.4005.71 2.0172 1.436 1.8987 10.171 6.5261 10.263 6.5722.044.0234.083.0554.115.0941.032.0386.055.0833.07.1312.014.048.019.0983.013.148-.005.0498-.02.098-.044.1418-.031.0691-.082.1274-.146.1672-.065.0397-.14.0591-.215.0557z" fill="#373e44"/><g fill="#d1d3d4"><path d="m1.18137 132.545c-.07514.002-.14934-.017-.214922-.054-.088235-.058-.150389-.148-.173311-.251-.022922-.104-.004814-.212.050496-.302l47.798367-75.6614c.0581-.0883.1483-.1506.2515-.1735.1031-.023.2111-.0048.3012.0506.0877.0567.1497.1457.1726.2477.023.1021.0051.209-.0498.298l-47.80606 75.6766c-.03574.055-.08493.099-.14278.128-.05784.03-.12237.044-.18729.041z"/><path d="m32.0694 128.01c-.0454.011-.0928.011-.1382 0-.0485-.018-.093-.045-.131-.081-.0379-.035-.0684-.077-.0898-.125-.0214-.047-.0333-.098-.0349-.149-.0016-.052.007-.104.0254-.152l25.8067-67.383c.0179-.0486.0453-.0932.0805-.1311.0352-.038.0777-.0686.1248-.09.0471-.0215.098-.0333.1497-.035.0517-.0016.1033.0071.1516.0255.0986.0379.1782.1134.2214.2099s.0464.2063.0089.3051l-25.799 67.3596c-.0316.073-.0842.136-.1511.18-.0669.043-.1451.067-.225.066z"/><path d="m134.659 180.227c-.071-.002-.14-.023-.2-.062-.09-.054-.155-.142-.181-.244s-.01-.211.043-.302l41.98-69.335c.026-.045.061-.085.103-.117s.09-.055.14-.067c.051-.013.104-.016.156-.008s.102.026.146.054c.089.055.153.144.177.246.025.102.008.21-.046.3l-41.973 69.342c-.036.059-.087.108-.147.141-.061.034-.129.052-.198.052z"/><path d="m166.084 177.644h-.115c-.099-.034-.182-.104-.231-.197-.048-.094-.059-.202-.03-.303 2.004-6.557 19.559-64.077 19.866-64.707.044-.094.125-.166.223-.201.097-.035.205-.029.299.016.093.045.166.125.201.222.036.098.033.206-.009.301-.384.976-13.126 42.669-19.828 64.569-.019.085-.066.162-.135.216-.068.055-.153.084-.241.084z"/><path d="m156.336 174.062c-.048.011-.097.011-.145 0-.096-.041-.173-.117-.214-.213-.042-.096-.045-.204-.009-.302l14.83-36.897c.041-.096.117-.173.213-.214.095-.042.203-.045.301-.009.049.02.094.049.132.085.038.037.068.081.088.13.021.049.032.101.032.154.001.052-.009.105-.029.154l-14.83 36.897c-.033.068-.086.125-.152.163-.065.038-.141.056-.217.052z"/><path d="m22.9966 115.373c-.0678 0-.1343-.018-.1919-.054-.0457-.025-.086-.059-.1186-.099-.0325-.041-.0566-.088-.0709-.138s-.0185-.102-.0123-.154.0226-.102.0483-.147l18.3609-32.9381c.0256-.046.06-.0865.1013-.1192s.0886-.0569.1393-.0712c.0506-.0142.1036-.0184.1559-.0121.0522.0063.1027.0229.1485.0488.0914.0532.1585.1399.1871.2418.0287.1018.0166.2108-.0336.304l-18.3993 32.938c-.0323.056-.0778.104-.1326.139-.0549.035-.1174.056-.1821.061z"/><path d="m19.5499 140.201c-.048.011-.0978.011-.1458 0-.049-.019-.0937-.048-.1313-.085-.0375-.037-.0672-.081-.0873-.13s-.0301-.101-.0295-.154c.0007-.053.0119-.105.0332-.153l4.7975-11.531c.0423-.096.1203-.172.2176-.213.0973-.04.2064-.041.3043-.002.095.044.1696.123.2082.22s.0382.206-.0009.303l-4.7975 11.53c-.0341.068-.087.124-.1524.162-.0654.039-.1404.057-.2161.053z"/><path d="m143.056 180.626c-.067.002-.134-.017-.191-.053-.046-.025-.087-.059-.119-.1-.033-.04-.057-.087-.071-.137s-.018-.103-.012-.155c.006-.051.022-.101.048-.147l7.899-14.343c.05-.092.136-.16.236-.188.101-.029.209-.017.301.034.091.051.159.136.188.237s.016.209-.035.301l-7.906 14.344c-.033.061-.081.113-.141.149-.059.037-.127.057-.197.058z"/></g></svg>