<svg width="16" height="16" viewBox="0 0 16 16" fill="none" xmlns="http://www.w3.org/2000/svg">
<path d="M8.00007 0.75C9.28074 0.75 10.4816 1.08137 11.5167 1.65574V14.3443C10.4816 14.9186 9.28074 15.25 8.00007 15.25C6.71939 15.25 5.51854 14.9186 4.4834 14.3443V1.65574C5.51854 1.08137 6.71939 0.75 8.00007 0.75Z" fill="#F9F9F9" stroke="white" stroke-width="1.5"/>
<path d="M12.2667 1.22925V14.7718C14.5067 13.3828 16 10.8186 16 7.98718C16 5.15579 14.5067 2.64494 12.2667 1.22925ZM3.73333 1.22925C1.49333 2.64494 0 5.20921 0 8.01389C0 10.8186 1.49333 13.3828 3.73333 14.7985V1.22925ZM10.9067 7.90704C10.8 7.85362 10.7733 7.74678 10.8 7.69335L11.0667 6.73175L10.1333 6.91873C10.1067 6.91873 10 6.91873 9.97333 6.73175L9.89333 6.41122L9.25333 7.15913C9.25333 7.15913 8.82667 7.61322 8.96 6.91873L9.22667 5.44962L8.72 5.71673C8.69333 5.71673 8.58667 5.74344 8.45333 5.47633L8 4.54143L7.52 5.4229C7.38667 5.69002 7.28 5.6633 7.25333 5.6633L6.74667 5.39619L7.01333 6.86531C7.14667 7.5598 6.72 7.10571 6.72 7.10571L6.08 6.3578L6 6.67833C5.94667 6.86531 5.86667 6.86531 5.84 6.86531L4.90667 6.67833L5.17333 7.63993C5.17333 7.72007 5.17333 7.8002 5.06667 7.85362L4.8 8.01389C4.8 8.01389 5.86667 8.86865 6.21333 9.16247C6.29333 9.21589 6.45333 9.37616 6.4 9.56314L6.26667 9.93709L7.73333 9.7234C7.81333 9.7234 7.97333 9.7234 7.94667 9.96381L7.86667 11.4863H8.13333L8.05333 9.96381C8.05333 9.7234 8.21333 9.7234 8.26667 9.7234L9.73333 9.93709L9.6 9.56314C9.54667 9.37616 9.70667 9.21589 9.78667 9.16247C10.1333 8.86865 11.2 8.01389 11.2 8.01389L10.9067 7.90704Z" fill="#ED4C5C"/>
</svg>
