<svg width="25" height="24" viewBox="0 0 25 24" fill="none" xmlns="http://www.w3.org/2000/svg">
  <path d="M16.5 12C16.5 10.9391 16.0786 9.92172 15.3284 9.17157C14.5783 8.42143 13.5609 8 12.5 8C11.4391 8 10.4217 8.42143 9.67157 9.17157C8.92143 9.92172 8.5 10.9391 8.5 12C8.5 13.0609 8.92143 14.0783 9.67157 14.8284C10.4217 15.5786 11.4391 16 12.5 16C13.5609 16 14.5783 15.5786 15.3284 14.8284C16.0786 14.0783 16.5 13.0609 16.5 12ZM16.5 12V13.5C16.5 14.163 16.7634 14.7989 17.2322 15.2678C17.7011 15.7366 18.337 16 19 16C19.663 16 20.2989 15.7366 20.7678 15.2678C21.2366 14.7989 21.5 14.163 21.5 13.5V12C21.5 10.22 20.9722 8.47991 19.9832 6.99987C18.9943 5.51983 17.5887 4.36628 15.9441 3.68509C14.2996 3.0039 12.49 2.82567 10.7442 3.17294C8.99836 3.5202 7.39471 4.37737 6.13604 5.63604C4.87737 6.89471 4.0202 8.49836 3.67294 10.2442C3.32567 11.99 3.5039 13.7996 4.18509 15.4441C4.86628 17.0887 6.01983 18.4943 7.49987 19.4832C8.97991 20.4722 10.72 21 12.5 21C14.0802 21.0016 15.6327 20.5861 17 19.794" stroke="#6E00FF" stroke-width="1.8" stroke-linecap="round" stroke-linejoin="round"/>
</svg>
