<svg width="16" height="16" viewBox="0 0 16 16" fill="none" xmlns="http://www.w3.org/2000/svg">
<path d="M7.9984 0C5.87802 0.00229336 3.84513 0.84563 2.34579 2.34497C0.846449 3.84431 0.00311255 5.8772 0.000819191 7.99758C-0.0831555 14.3777 7.43791 18.2805 12.597 14.5403C12.6712 14.491 12.7347 14.4273 12.7838 14.353C12.8329 14.2788 12.8666 14.1954 12.883 14.1079C12.8994 14.0203 12.898 13.9304 12.8791 13.8434C12.8601 13.7564 12.8239 13.6741 12.7726 13.6013C12.7213 13.5286 12.6559 13.4668 12.5804 13.4197C12.5048 13.3726 12.4205 13.3412 12.3326 13.3272C12.2447 13.3132 12.1548 13.317 12.0684 13.3383C11.9819 13.3596 11.9006 13.398 11.8292 13.4513C7.53188 16.5657 1.2671 13.3146 1.33375 7.99758C1.69964 -0.843745 14.2985 -0.841745 14.6631 7.99758V9.33051C14.6631 9.68403 14.5226 10.0231 14.2727 10.273C14.0227 10.523 13.6836 10.6634 13.3301 10.6634C12.9766 10.6634 12.6376 10.523 12.3876 10.273C12.1376 10.0231 11.9972 9.68403 11.9972 9.33051V7.99758C11.8292 2.71318 4.16689 2.71385 3.99961 7.99758C4.00737 8.808 4.2605 9.59705 4.72565 10.2607C5.19079 10.9244 5.84612 11.4316 6.60526 11.7154C7.3644 11.9992 8.19172 12.0463 8.97817 11.8506C9.76463 11.6548 10.4733 11.2254 11.0108 10.6188C11.2999 11.1291 11.7493 11.5297 12.2892 11.7588C12.8291 11.9878 13.4294 12.0324 13.9973 11.8857C14.5651 11.7389 15.0687 11.409 15.43 10.9471C15.7914 10.4852 15.9903 9.91697 15.996 9.33051V7.99758C15.9937 5.8772 15.1504 3.84431 13.651 2.34497C12.1517 0.84563 10.1188 0.00229336 7.9984 0V0ZM7.9984 10.6634C7.29137 10.6634 6.6133 10.3826 6.11336 9.88263C5.61341 9.38269 5.33254 8.70461 5.33254 7.99758C5.33254 7.29055 5.61341 6.61248 6.11336 6.11254C6.6133 5.61259 7.29137 5.33172 7.9984 5.33172C8.70543 5.33172 9.38351 5.61259 9.88345 6.11254C10.3834 6.61248 10.6643 7.29055 10.6643 7.99758C10.6643 8.70461 10.3834 9.38269 9.88345 9.88263C9.38351 10.3826 8.70543 10.6634 7.9984 10.6634Z" fill="#1DC51D"/>
</svg>
