<svg width="25" height="24" viewBox="0 0 25 24" fill="none" xmlns="http://www.w3.org/2000/svg">
  <path d="M4.5 5.77778C4.5 5.30628 4.6873 4.8541 5.0207 4.5207C5.3541 4.1873 5.80628 4 6.27778 4H9.19333C9.37982 4.00014 9.56153 4.05893 9.71276 4.16804C9.86399 4.27716 9.97707 4.43107 10.036 4.608L11.3676 8.60178C11.435 8.80475 11.427 9.02524 11.3451 9.2228C11.2631 9.42036 11.1127 9.58174 10.9213 9.67733L8.91511 10.6818C9.89851 12.8583 11.6417 14.6015 13.8182 15.5849L14.8227 13.5787C14.9183 13.3873 15.0796 13.2369 15.2772 13.1549C15.4748 13.073 15.6953 13.065 15.8982 13.1324L19.892 14.464C20.0691 14.523 20.2231 14.6362 20.3322 14.7876C20.4413 14.939 20.5 15.1209 20.5 15.3076V18.2222C20.5 18.6937 20.3127 19.1459 19.9793 19.4793C19.6459 19.8127 19.1937 20 18.7222 20H17.8333C10.4698 20 4.5 14.0302 4.5 6.66667V5.77778Z" stroke="white" stroke-width="1.8" stroke-linecap="round" stroke-linejoin="round"/>
</svg>
