<svg width="16" height="16" viewBox="0 0 16 16" fill="none" xmlns="http://www.w3.org/2000/svg">
<path d="M15.3944 11.1788C15.7814 11.5668 15.9987 12.0925 15.9987 12.6405C15.9987 13.1885 15.7814 13.7142 15.3944 14.1022L14.7868 14.8027C9.31779 20.0386 -3.99072 6.73346 1.1644 1.24711L1.93233 0.57935C2.32082 0.203183 2.84178 -0.0049107 3.38252 8.80176e-05C3.92325 0.00508674 4.44028 0.222776 4.82174 0.60606C4.84244 0.626761 6.07981 2.23407 6.07981 2.23407C6.44696 2.61979 6.65135 3.13216 6.65048 3.66469C6.64961 4.19721 6.44355 4.70891 6.07513 5.09343L5.30186 6.06569C5.7298 7.10548 6.35897 8.05045 7.15324 8.84633C7.94751 9.6422 8.89121 10.2733 9.93013 10.7033L10.9084 9.92537C11.293 9.55724 11.8046 9.35142 12.3369 9.35068C12.8693 9.34993 13.3815 9.55431 13.7671 9.92136C13.7671 9.92136 15.3737 11.1581 15.3944 11.1788ZM14.4756 12.1497C14.4756 12.1497 12.8776 10.9203 12.8569 10.8996C12.7194 10.7632 12.5335 10.6867 12.3397 10.6867C12.146 10.6867 11.9601 10.7632 11.8226 10.8996C11.8045 10.9183 10.4577 11.9914 10.4577 11.9914C10.3669 12.0637 10.2589 12.111 10.1442 12.1288C10.0296 12.1466 9.91232 12.1343 9.80392 12.0929C8.45802 11.5918 7.23553 10.8073 6.21926 9.79254C5.20299 8.77776 4.41668 7.55643 3.91358 6.21127C3.86898 6.10139 3.85443 5.98162 3.87145 5.86426C3.88847 5.7469 3.93643 5.63619 4.01041 5.5435C4.01041 5.5435 5.0835 4.19596 5.10153 4.1786C5.23794 4.04103 5.31447 3.85514 5.31447 3.66141C5.31447 3.46768 5.23794 3.2818 5.10153 3.14423C5.08083 3.1242 3.85148 1.5249 3.85148 1.5249C3.71185 1.3997 3.52962 1.33265 3.34214 1.33749C3.15467 1.34233 2.97614 1.4187 2.84316 1.55095L2.07523 2.21871C-1.69228 6.74882 9.84065 17.642 13.8105 13.8905L14.4188 13.1894C14.5614 13.0574 14.647 12.8751 14.6576 12.681C14.6682 12.487 14.6029 12.2965 14.4756 12.1497Z" fill="#21282F"/>
</svg>
