<svg width="297" height="224" viewBox="0 0 297 224" fill="none" xmlns="http://www.w3.org/2000/svg">
<path d="M61.4567 109.474L79.9895 120.27L70.7231 136.534L51.975 125.656L61.4567 109.474Z" fill="white"/>
<path d="M70.7231 136.913C70.6551 136.914 70.5881 136.896 70.5301 136.861L51.7819 125.983C51.7382 125.959 51.6999 125.926 51.6693 125.886C51.6387 125.846 51.6165 125.801 51.604 125.752C51.5916 125.703 51.589 125.653 51.5966 125.603C51.6042 125.553 51.6218 125.506 51.6483 125.463L61.1226 109.281C61.1479 109.238 61.1814 109.2 61.2212 109.17C61.261 109.14 61.3064 109.118 61.3547 109.106C61.403 109.093 61.4533 109.091 61.5026 109.098C61.552 109.105 61.5995 109.121 61.6423 109.147L80.2048 119.935C80.2914 119.987 80.3546 120.07 80.3809 120.167C80.4073 120.264 80.3947 120.367 80.3459 120.455L71.0572 136.72C71.0035 136.809 70.9189 136.875 70.8196 136.906L70.7231 136.913ZM52.5022 125.515L70.582 136.007L79.492 120.403L61.6275 110.001L52.5022 125.515Z" fill="#231F20"/>
<path d="M79.9004 188.656C78.9584 190.328 78.1872 192.09 77.5987 193.916C76.819 196.502 78.3857 200.217 79.4846 201.213C80.0683 201.663 80.7863 201.903 81.5231 201.895C82.2598 201.887 82.9724 201.631 83.5461 201.168C84.7564 200.106 83.5461 189.912 83.5461 189.912L79.9004 188.656Z" fill="#231F20"/>
<path d="M81.4225 202.275C80.6076 202.301 79.8126 202.02 79.195 201.488C78.007 200.41 76.3884 196.517 77.2125 193.812C77.8023 191.948 78.5888 190.153 79.5588 188.455C79.6039 188.386 79.6707 188.334 79.7487 188.307C79.8267 188.28 79.9114 188.28 79.9895 188.307L83.5906 189.562C83.6562 189.585 83.7141 189.625 83.7575 189.679C83.8009 189.733 83.828 189.798 83.8356 189.867C84.1401 192.304 85.0162 200.343 83.754 201.451C83.0938 201.984 82.271 202.275 81.4225 202.275ZM80.0712 189.109C79.2108 190.677 78.5046 192.324 77.9625 194.028C77.22 196.428 78.705 199.972 79.737 200.938C80.2537 201.326 80.8843 201.532 81.5303 201.524C82.1764 201.516 82.8017 201.294 83.3085 200.893C83.9693 200.321 83.7614 195.038 83.1748 190.187L80.0712 189.109Z" fill="#231F20"/>
<path d="M91.7656 151.454C88.2466 156.026 85.6446 161.236 84.103 166.797C81.7344 175.713 80.4796 187.995 80.3385 188.411C80.1974 188.827 77.9699 192.735 79.5366 193.471C81.1033 194.206 82.6699 194.622 83.509 189.912C83.509 189.912 99.7103 157.591 100.334 153.72C100.958 149.849 91.7656 151.454 91.7656 151.454Z" fill="white"/>
<path d="M81.0661 194.303C80.4738 194.265 79.8965 194.1 79.3732 193.82C79.2172 193.748 79.0774 193.645 78.9625 193.517C78.8476 193.389 78.76 193.24 78.705 193.077C78.3189 191.999 79.0465 190.238 79.8039 188.663C79.893 188.485 79.9524 188.359 79.9747 188.299C79.9969 188.24 80.086 187.504 80.19 186.694C80.6875 182.831 81.8532 173.788 83.7317 166.707C85.2968 161.096 87.9232 155.837 91.4686 151.216C91.5282 151.147 91.6092 151.1 91.6987 151.082C91.966 151.037 98.203 149.975 100.148 151.899C100.393 152.141 100.573 152.441 100.672 152.771C100.77 153.1 100.784 153.45 100.713 153.787C100.089 157.635 84.8306 188.143 83.8728 190.045C83.4644 192.334 82.8407 193.627 81.9274 194.102C81.6612 194.239 81.3654 194.308 81.0661 194.303ZM91.9735 151.81C88.542 156.318 85.9949 161.436 84.4668 166.893C82.6031 173.929 81.4448 182.935 80.9473 186.783C80.7766 188.143 80.7394 188.425 80.7023 188.537C80.6652 188.648 80.5984 188.767 80.4944 188.99C80.1083 189.785 79.0985 191.888 79.4252 192.809C79.4462 192.878 79.4816 192.941 79.529 192.995C79.5764 193.049 79.6346 193.092 79.6999 193.121C80.4944 193.493 81.081 193.671 81.571 193.418C82.2467 193.062 82.7739 191.866 83.1303 189.845C83.1359 189.808 83.1485 189.773 83.1674 189.741C83.3308 189.421 99.3465 157.427 99.9553 153.66C100.007 153.443 100.002 153.216 99.9413 153.001C99.8802 152.787 99.7648 152.591 99.6064 152.434C98.2624 151.112 93.7777 151.513 91.9735 151.81Z" fill="#231F20"/>
<path d="M143.718 188.656C144.66 190.327 145.428 192.09 146.013 193.916C146.8 196.502 145.233 200.217 144.134 201.213C143.55 201.663 142.832 201.903 142.096 201.895C141.359 201.887 140.646 201.631 140.073 201.168C138.855 200.106 140.073 189.912 140.073 189.912L143.718 188.656Z" fill="#231F20"/>
<path d="M142.196 202.26C141.336 202.277 140.498 201.99 139.828 201.451C138.565 200.343 139.441 192.304 139.746 189.867C139.754 189.798 139.781 189.733 139.824 189.679C139.867 189.625 139.925 189.585 139.991 189.562L143.592 188.307C143.67 188.281 143.755 188.282 143.832 188.309C143.91 188.336 143.977 188.387 144.023 188.455C144.985 190.157 145.771 191.952 146.369 193.812C147.193 196.517 145.567 200.41 144.379 201.488C143.771 202.005 142.994 202.28 142.196 202.26ZM140.451 190.187C139.865 195.038 139.657 200.321 140.318 200.893C140.824 201.296 141.449 201.518 142.096 201.526C142.742 201.534 143.373 201.327 143.889 200.938C144.929 199.994 146.391 196.428 145.664 194.028C145.116 192.325 144.407 190.678 143.548 189.109L140.451 190.187Z" fill="#231F20"/>
<path d="M131.853 151.454C135.372 156.026 137.974 161.236 139.516 166.797C141.884 175.713 143.139 187.995 143.28 188.411C143.421 188.827 145.649 192.735 144.082 193.471C142.515 194.206 140.949 194.622 140.11 189.912C140.11 189.912 123.908 157.591 123.277 153.72C122.646 149.849 131.853 151.454 131.853 151.454Z" fill="white"/>
<path d="M142.56 194.303C142.26 194.306 141.964 194.234 141.699 194.095C140.785 193.619 140.162 192.326 139.746 190.038C138.795 188.136 123.53 157.628 122.906 153.779C122.837 153.442 122.853 153.093 122.953 152.763C123.053 152.434 123.233 152.134 123.478 151.892C125.423 149.968 131.645 151.03 131.927 151.075C132.017 151.092 132.098 151.139 132.158 151.208C135.703 155.83 138.329 161.089 139.894 166.7C141.773 173.781 142.939 182.823 143.436 186.687C143.54 187.497 143.629 188.173 143.651 188.307L143.822 188.656C144.565 190.231 145.307 191.992 144.921 193.069C144.865 193.232 144.777 193.381 144.662 193.509C144.547 193.636 144.408 193.739 144.253 193.812C143.73 194.094 143.153 194.262 142.56 194.303ZM127.985 151.513C126.359 151.513 124.74 151.728 124.02 152.434C123.862 152.592 123.746 152.787 123.684 153.001C123.622 153.216 123.615 153.442 123.663 153.66C124.28 157.427 140.295 189.421 140.459 189.741C140.474 189.774 140.487 189.809 140.496 189.845C140.852 191.866 141.379 193.062 142.055 193.419C142.545 193.671 143.132 193.493 143.926 193.121C143.991 193.092 144.05 193.049 144.097 192.995C144.144 192.941 144.18 192.878 144.201 192.809C144.528 191.888 143.51 189.785 143.132 188.99C143.055 188.843 142.985 188.692 142.924 188.537C142.924 188.426 142.85 188.143 142.671 186.784C142.181 182.935 141.023 173.93 139.152 166.893C137.625 161.437 135.081 156.32 131.653 151.81C130.437 151.616 129.208 151.517 127.977 151.513H127.985Z" fill="#231F20"/>
<path d="M97.2007 108.5C97.2007 108.917 91.3498 138.904 90.236 152.293C90.236 152.293 113.09 164.285 133.999 151.454C133.999 151.454 129.254 132.21 129.121 127.744C128.987 123.279 126.745 111.569 123.545 106.688L97.2007 108.5Z" fill="#231F20"/>
<path d="M112.541 157.717C104.767 157.658 97.098 155.919 90.0578 152.62C89.9939 152.587 89.9415 152.535 89.9071 152.471C89.8727 152.408 89.858 152.335 89.8648 152.264C90.7632 141.431 94.7578 119.787 96.2651 111.636C96.5844 109.882 96.822 108.619 96.8294 108.478C96.8391 108.389 96.8789 108.306 96.9424 108.242C97.0059 108.179 97.0892 108.139 97.1784 108.129L123.515 106.316C123.58 106.31 123.646 106.322 123.705 106.351C123.764 106.38 123.814 106.424 123.849 106.479C127.086 111.413 129.343 123.041 129.485 127.737C129.626 132.106 134.303 151.171 134.355 151.365C134.373 151.441 134.367 151.521 134.338 151.594C134.308 151.667 134.258 151.73 134.192 151.773C127.67 155.737 120.171 157.795 112.541 157.717ZM90.6221 152.07C92.9981 153.229 114.226 162.97 133.576 151.283C132.982 148.861 128.883 131.965 128.749 127.759C128.608 123.301 126.403 111.926 123.352 107.066L97.52 108.85C97.4531 109.229 97.312 110.031 96.9853 111.77C95.5003 119.846 91.5577 141.2 90.6221 152.07Z" fill="#231F20"/>
<path d="M138.105 43.6953L139.865 38.9252C139.865 38.9252 139.048 37.0454 139.961 35.6411C140.875 34.2368 141.446 33.0406 142.189 33.4715C142.931 33.9025 146.644 35.8417 146.042 38.1673C145.441 40.493 143.815 40.8124 143.815 40.8124C143.038 43.0038 142.063 45.1201 140.904 47.1354L138.105 43.6953Z" fill="white"/>
<path d="M140.889 47.5144C140.833 47.5137 140.777 47.5007 140.725 47.4764C140.674 47.452 140.629 47.4168 140.592 47.3733L137.793 43.9406C137.751 43.888 137.724 43.8255 137.713 43.759C137.703 43.6925 137.71 43.6245 137.734 43.5616L139.441 38.9327C139.213 38.3716 139.111 37.7671 139.144 37.1622C139.176 36.5572 139.341 35.9668 139.627 35.4331L139.991 34.861C140.733 33.6351 141.476 32.58 142.359 33.1447L142.582 33.2784C143.674 33.91 147 35.8418 146.384 38.264C146.281 38.8966 146.016 39.4917 145.616 39.9917C145.215 40.4916 144.692 40.8794 144.097 41.1171C143.32 43.2751 142.361 45.3631 141.231 47.3584C141.2 47.4129 141.156 47.4591 141.103 47.4927C141.05 47.5264 140.989 47.5466 140.926 47.5516L140.889 47.5144ZM138.528 43.6434L140.83 46.4742C141.858 44.6323 142.728 42.7058 143.429 40.7159C143.45 40.6494 143.488 40.59 143.541 40.5441C143.593 40.4982 143.657 40.4677 143.726 40.4559C143.778 40.4559 145.122 40.1438 145.641 38.1005C146.117 36.2356 143.169 34.5267 142.196 33.962L141.959 33.8208C141.676 33.6499 141.149 34.4821 140.644 35.3068C140.518 35.4926 140.399 35.6932 140.266 35.8938C139.479 37.0975 140.199 38.7915 140.206 38.8138C140.24 38.9049 140.24 39.005 140.206 39.0962L138.528 43.6434Z" fill="#231F20"/>
<path d="M141.766 34.4451C142.843 34.9828 143.758 35.7984 144.416 36.8078C144.504 36.9197 144.549 37.0595 144.542 37.2016C144.542 37.3725 144.335 37.4691 144.179 37.5434C143.969 37.6715 143.726 37.7336 143.481 37.7217C143.324 37.6944 143.174 37.6335 143.043 37.5434C142.501 37.2178 142.002 36.826 141.558 36.3769C141.762 36.5432 141.914 36.7645 141.997 37.0145C142.079 37.2646 142.089 37.5331 142.024 37.7884C141.959 38.0438 141.823 38.2752 141.631 38.4556C141.439 38.636 141.2 38.7577 140.941 38.8065" fill="white"/>
<path d="M140.971 39.1854C140.882 39.185 140.797 39.1536 140.729 39.0966C140.661 39.0396 140.615 38.9606 140.6 38.8733C140.58 38.7728 140.601 38.6686 140.658 38.5836C140.715 38.4987 140.804 38.4398 140.904 38.4201C141.083 38.3748 141.247 38.2818 141.378 38.151C141.509 38.0202 141.601 37.8564 141.647 37.6771C141.681 37.5252 141.681 37.3676 141.646 37.2159C141.611 37.0641 141.543 36.9221 141.446 36.8003C141.387 36.7483 141.335 36.6889 141.275 36.6294C141.238 36.5958 141.208 36.5551 141.187 36.5098C141.166 36.4645 141.153 36.4155 141.151 36.3655C141.149 36.3154 141.156 36.2654 141.173 36.2183C141.19 36.1712 141.216 36.1278 141.249 36.0907C141.283 36.0537 141.324 36.0236 141.369 36.0022C141.414 35.9808 141.463 35.9686 141.513 35.9662C141.563 35.9638 141.613 35.9712 141.66 35.9881C141.707 36.005 141.751 36.0311 141.788 36.0647C141.867 36.1308 141.942 36.2029 142.011 36.2802C142.376 36.6283 142.776 36.9371 143.206 37.2015C143.294 37.2607 143.392 37.3035 143.496 37.3278C143.664 37.3211 143.828 37.2698 143.971 37.1792C144.024 37.1602 144.074 37.1326 144.119 37.0975C144.095 37.068 144.075 37.0355 144.06 37.0009C143.438 36.049 142.574 35.2797 141.558 34.7719C141.478 34.7211 141.419 34.6426 141.393 34.5515C141.367 34.4603 141.376 34.3627 141.417 34.2774C141.458 34.1921 141.529 34.1249 141.617 34.0887C141.704 34.0524 141.802 34.0497 141.892 34.0809C143.034 34.6491 144.004 35.5139 144.698 36.5848C144.773 36.6808 144.827 36.7909 144.857 36.9084C144.888 37.0259 144.895 37.1483 144.877 37.2684C144.834 37.4049 144.761 37.5301 144.664 37.6343C144.566 37.7386 144.446 37.8193 144.312 37.8702C144.094 38.0221 143.835 38.1034 143.57 38.1034C143.304 38.1034 143.045 38.0221 142.827 37.8702L142.456 37.6251C142.448 37.7128 142.433 37.7998 142.411 37.8851C142.328 38.203 142.16 38.4922 141.924 38.7213C141.688 38.9505 141.395 39.1109 141.075 39.1854H140.971Z" fill="#231F20"/>
<path d="M74.7697 103.916L73.9752 110.165C73.9233 110.551 74.7623 111.77 74.8737 112.245C75.1707 113.597 75.2152 115.098 75.4008 116.48C75.4008 116.688 75.4454 116.948 75.2746 117.075C75.1038 117.201 74.7697 117.075 74.5321 116.889L72.7947 115.477C71.9372 116.993 71.1927 118.57 70.5672 120.195C69.1267 120.545 67.7011 119.579 66.669 118.509C66.5537 118.398 66.456 118.27 66.3795 118.13C66.3102 117.957 66.27 117.774 66.2607 117.587C65.9934 115.098 65.6964 110.276 68.6367 108.991C68.9637 106.13 69.5502 103.305 70.389 100.55L74.7697 103.916Z" fill="white"/>
<path d="M70.0177 120.648C69.3278 120.59 68.6565 120.394 68.0432 120.073C67.4299 119.751 66.887 119.311 66.4463 118.776C66.3015 118.636 66.1811 118.473 66.0899 118.293C65.9985 118.084 65.9457 117.86 65.934 117.632C65.7409 115.812 65.1915 110.358 68.3323 108.716C68.677 105.91 69.2582 103.139 70.0697 100.431C70.0861 100.37 70.1179 100.314 70.1621 100.268C70.2063 100.223 70.2614 100.189 70.3222 100.171C70.3808 100.153 70.4431 100.148 70.5039 100.159C70.5646 100.169 70.6219 100.194 70.6711 100.231L75.0073 103.596C75.0596 103.639 75.1005 103.694 75.1264 103.756C75.1523 103.818 75.1624 103.886 75.1558 103.953C75.1558 103.953 74.3539 110.172 74.3539 110.202C74.4669 110.533 74.6137 110.852 74.792 111.153C74.9811 111.466 75.1331 111.8 75.2449 112.148C75.4221 113.044 75.5461 113.95 75.6162 114.86C75.6607 115.388 75.7127 115.908 75.7795 116.413C75.8246 116.582 75.8228 116.76 75.7744 116.927C75.726 117.095 75.6328 117.246 75.5048 117.364C75.3192 117.506 74.9182 117.662 74.3242 117.171L72.9358 116.049C72.1909 117.427 71.5361 118.852 70.9756 120.314C70.9535 120.372 70.9176 120.424 70.8711 120.466C70.8245 120.507 70.7687 120.537 70.7083 120.552C70.4824 120.61 70.2508 120.642 70.0177 120.648ZM70.6489 101.204C69.8917 103.761 69.3576 106.379 69.0525 109.028C69.0448 109.096 69.0196 109.162 68.9793 109.218C68.9389 109.274 68.8849 109.318 68.8223 109.347C66.877 110.194 66.1716 112.884 66.6691 117.558C66.6753 117.698 66.7054 117.836 66.7582 117.966C66.8133 118.074 66.889 118.17 66.9809 118.249C67.6566 118.954 68.9634 120.062 70.3147 119.868C70.928 118.296 71.6474 116.766 72.468 115.291C72.4952 115.243 72.5325 115.202 72.5774 115.17C72.6223 115.138 72.6736 115.116 72.7279 115.106C72.7838 115.095 72.8414 115.097 72.8966 115.111C72.9518 115.125 73.0032 115.151 73.0471 115.187L74.7846 116.607C74.8589 116.667 74.9414 116.717 75.0296 116.755C75.0296 116.755 75.0296 116.659 75.0296 116.54C74.9628 116.027 74.9108 115.492 74.8588 114.957C74.7952 114.079 74.6761 113.205 74.5024 112.342C74.4036 112.06 74.2768 111.788 74.1238 111.532C73.8297 111.114 73.6482 110.628 73.5966 110.12C73.5966 110.068 74.2351 105.187 74.3391 104.094L70.6489 101.204Z" fill="#231F20"/>
<path d="M105.569 69.8418C105.41 69.7661 105.243 69.7088 105.071 69.6709C103.801 69.396 101.834 70.9266 100.765 71.6844C99.6521 72.5465 98.8432 73.7412 98.4555 75.0948C97.9347 76.8758 97.5817 78.7016 97.4011 80.5485C96.2205 90.2076 96.2205 100.164 95.634 109.897C95.634 109.897 103.727 115.752 110.484 114.809C117.241 113.865 125.713 110.001 125.713 110.001C125.713 110.001 123.344 83.0227 123.255 78.9287C123.255 78.9287 127.532 73.1779 132.655 66.0673C137.778 58.9567 142.515 45.1294 142.515 45.1294L138.06 42.0979C138.06 42.0979 122.832 66.2976 120.181 68.5638C117.649 70.7259 113.907 71.3575 110.677 71.1792C109.519 71.1191 108.37 70.9424 107.247 70.6516C106.666 70.4277 106.105 70.1568 105.569 69.8418Z" fill="#C5C5C5"/>
<path d="M101.648 66.9736C101.116 66.6596 100.701 66.1793 100.468 65.6065C100.429 65.1618 100.503 64.7145 100.683 64.3062C102.168 59.8482 101.871 54.7512 104.395 50.7835C104.699 50.2339 105.136 49.769 105.665 49.4313C105.931 49.2653 106.239 49.1773 106.552 49.1773C106.866 49.1773 107.173 49.2653 107.44 49.4313C109.667 45.6494 115.139 48.3539 116.691 51.4002C118.332 54.6249 119.297 58.325 120.515 61.728C120.975 62.752 121.193 63.868 121.154 64.9898C121.122 65.5493 120.906 66.0826 120.539 66.5061C120.172 66.9296 119.676 67.2194 119.127 67.3303L118.533 66.2975C118.6 66.3779 118.65 66.4708 118.681 66.5707C118.712 66.6707 118.723 66.7758 118.714 66.8801C118.704 66.9843 118.674 67.0856 118.625 67.1782C118.576 67.2708 118.509 67.3527 118.429 67.4194C118.113 67.6813 117.734 67.8556 117.33 67.9247C113.402 68.9129 109.162 69.7079 105.361 68.3556C104.774 68.1476 104.084 67.6126 104.314 67.0479C103.95 68.0733 102.651 67.6721 101.648 66.9736Z" fill="white"/>
<path d="M109.89 69.4406C108.317 69.4588 106.752 69.2075 105.264 68.6976C104.81 68.5496 104.411 68.2672 104.121 67.8877C104.057 67.9236 103.99 67.9534 103.92 67.9768C102.992 68.2889 101.804 67.5236 101.455 67.2858C101.18 67.0927 100.252 66.3942 100.119 65.6735C100.064 65.188 100.136 64.6967 100.327 64.247C100.864 62.4952 101.264 60.704 101.522 58.8899C102.005 56.0367 102.51 53.0796 104.084 50.5756C104.425 49.9718 104.909 49.4614 105.494 49.0896C105.769 48.9312 106.075 48.8351 106.39 48.8081C106.706 48.7812 107.024 48.824 107.321 48.9336C107.704 48.3654 108.229 47.9074 108.844 47.605C109.459 47.3026 110.142 47.1664 110.826 47.2098C112.109 47.3293 113.345 47.7572 114.429 48.457C115.512 49.1568 116.41 50.1079 117.048 51.2295C118.153 53.5806 119.079 56.0123 119.817 58.5035C120.159 59.5437 120.5 60.5765 120.864 61.587C121.343 62.6682 121.567 63.8454 121.518 65.0271C121.475 65.674 121.219 66.2883 120.788 66.7728C120.358 67.2573 119.779 67.5842 119.142 67.7019C119.075 67.7085 119.008 67.6975 118.946 67.6702C118.885 67.6428 118.832 67.6 118.793 67.5459L118.696 67.6574C118.334 67.9683 117.896 68.1761 117.426 68.2592C114.971 68.9553 112.44 69.352 109.89 69.4406ZM104.692 67.2115C104.671 67.2665 104.671 67.3274 104.692 67.3824C104.885 67.6686 105.171 67.8787 105.502 67.9768C109.17 69.2697 113.313 68.5267 117.256 67.5385C117.589 67.4858 117.904 67.3476 118.169 67.1372C118.269 67.0361 118.327 66.9007 118.332 66.7583L118.213 66.5428C118.158 66.4635 118.135 66.3661 118.149 66.2704C118.164 66.1748 118.214 66.0882 118.29 66.0284C118.366 65.9685 118.462 65.94 118.558 65.9486C118.654 65.9573 118.743 66.0024 118.807 66.0747C118.918 66.1857 119.002 66.3204 119.052 66.4685L119.327 66.9589C119.735 66.8067 120.092 66.5414 120.354 66.1941C120.617 65.8467 120.776 65.4317 120.812 64.9974C120.835 63.9344 120.625 62.8793 120.196 61.9065C119.832 60.8886 119.491 59.8484 119.142 58.8007C118.405 56.3425 117.484 53.9432 116.387 51.6233C115.817 50.6198 115.014 49.7685 114.046 49.1412C113.078 48.5139 111.974 48.1292 110.826 48.0197C110.216 47.9847 109.61 48.1223 109.075 48.4167C108.541 48.7111 108.1 49.1503 107.804 49.684C107.776 49.7292 107.739 49.7684 107.696 49.799C107.652 49.8297 107.603 49.8512 107.551 49.8623C107.499 49.8734 107.444 49.8732 107.392 49.8617C107.339 49.8502 107.29 49.8276 107.247 49.7955C107.043 49.6714 106.809 49.6058 106.571 49.6058C106.333 49.6058 106.099 49.6714 105.895 49.7955C105.402 50.0864 104.989 50.4948 104.692 50.9843C103.207 53.3619 102.725 56.111 102.235 59.0162C101.977 60.8541 101.58 62.6698 101.047 64.4476C100.896 64.7964 100.825 65.1747 100.839 65.5546C101.063 66.0234 101.423 66.4142 101.871 66.6766C102.362 67.0985 103 67.3094 103.646 67.2636C103.713 67.2414 103.775 67.2036 103.825 67.1533C103.875 67.1029 103.913 67.0415 103.935 66.9738C103.933 66.9491 103.933 66.9242 103.935 66.8995C103.971 66.801 104.044 66.7206 104.138 66.676C104.233 66.6314 104.342 66.6263 104.44 66.6617C104.538 66.6972 104.619 66.7703 104.663 66.8651C104.708 66.9599 104.713 67.0684 104.678 67.167C104.685 67.1811 104.69 67.1961 104.692 67.2115Z" fill="#231F20"/>
<path d="M112.051 77.7251L111.902 77.8514C111.714 78.0046 111.485 78.0996 111.244 78.1247C111.002 78.1497 110.759 78.1038 110.543 77.9926C110.345 77.8473 110.178 77.6627 110.053 77.4502C108.464 75.1691 107.395 72.799 107.87 69.9607C107.872 69.9335 107.872 69.9062 107.87 69.8789L107.796 68.9205L107.603 66.2754V65.889V65.3317L107.841 62.4043L113.981 62.4712L114.196 66.0525V66.2754L114.338 68.5713L114.412 69.8269V69.8789C114.414 72.2606 113.822 74.6051 112.689 76.6997C112.534 77.0741 112.318 77.4205 112.051 77.7251Z" fill="white"/>
<path d="M111.071 78.52C110.808 78.5243 110.55 78.452 110.328 78.312C110.087 78.141 109.883 77.9237 109.727 77.673C108.398 75.756 106.942 73.1481 107.499 69.9011L107.232 66.305L107.299 65.3019L107.536 62.3745C107.544 62.2779 107.588 62.1879 107.66 62.123C107.732 62.058 107.826 62.023 107.922 62.0252L114.063 62.0847C114.16 62.0881 114.252 62.1271 114.322 62.1943C114.392 62.2615 114.434 62.3521 114.441 62.4488L114.649 66.03C114.649 66.03 114.649 66.1043 114.649 66.1118L114.865 69.8268C114.886 72.2933 114.28 74.7246 113.105 76.8928C112.909 77.3154 112.64 77.7002 112.311 78.0296L112.132 78.1856C111.821 78.4032 111.45 78.5199 111.071 78.52ZM108.264 62.7905L107.989 66.2975L108.264 69.8491C108.269 69.9084 108.269 69.9681 108.264 70.0274C107.87 72.3753 108.501 74.53 110.38 77.2346C110.481 77.401 110.612 77.5471 110.766 77.6655C110.915 77.734 111.081 77.7592 111.243 77.7381C111.406 77.7171 111.56 77.6508 111.687 77.5466C111.73 77.516 111.77 77.4812 111.806 77.4426C112.072 77.1782 112.286 76.8656 112.437 76.5213C113.544 74.4912 114.122 72.2141 114.115 69.9011L113.892 66.1266V66.0523L113.706 62.85L108.264 62.7905Z" fill="#231F20"/>
<path d="M107.603 66.2752C108.087 67.1148 108.774 67.8198 109.6 68.3259C110.907 69.1804 112.763 69.9383 114.367 69.6782L114.256 66.0523C113.083 66.2119 111.894 66.2119 110.722 66.0523C109.671 65.9866 108.64 65.735 107.677 65.3093L107.603 66.2752Z" fill="#231F20"/>
<path d="M113.684 70.1017C112.148 70.0022 110.668 69.4887 109.4 68.6157C108.515 68.0638 107.785 67.297 107.276 66.3867C107.258 66.3211 107.258 66.2517 107.276 66.1861L107.343 65.2424C107.349 65.1818 107.368 65.1232 107.4 65.0716C107.433 65.0199 107.477 64.9766 107.529 64.9452C107.582 64.916 107.642 64.9006 107.703 64.9006C107.764 64.9006 107.824 64.916 107.878 64.9452C108.804 65.3371 109.791 65.5659 110.796 65.6214C111.939 65.774 113.098 65.774 114.241 65.6214C114.292 65.6108 114.345 65.6127 114.396 65.6269C114.446 65.6411 114.492 65.6673 114.531 65.7031C114.571 65.735 114.604 65.7755 114.627 65.8218C114.651 65.8681 114.663 65.9189 114.664 65.9706L114.776 69.5965C114.779 69.6868 114.749 69.7751 114.691 69.8448C114.634 69.9146 114.553 69.961 114.464 69.9754C114.208 70.038 113.947 70.0802 113.684 70.1017ZM107.982 66.1935C108.434 66.9372 109.058 67.5615 109.801 68.0139C111.024 68.8842 112.488 69.3493 113.989 69.3438L113.899 66.4684C112.826 66.569 111.746 66.549 110.677 66.409C109.768 66.3394 108.87 66.1597 108.004 65.874L107.982 66.1935Z" fill="#231F20"/>
<path d="M110.729 66.9144H111.375C112.084 66.9222 112.787 66.7903 113.445 66.526C114.103 66.2618 114.703 65.8705 115.209 65.3744C115.716 64.8783 116.12 64.2872 116.399 63.6348C116.677 62.9824 116.825 62.2815 116.832 61.5721C116.77 59.9152 116.614 58.2631 116.365 56.6237C116.365 56.6237 113.877 55.7321 111.91 54.9891C108.635 53.7483 107.752 52.0171 107.752 52.0171C107.658 53.1941 107.408 54.3534 107.009 55.4646C106.579 56.2487 106.082 56.9944 105.524 57.6937C105.524 57.6937 105.428 60.3536 105.413 61.4607C105.401 62.8877 105.953 64.2615 106.949 65.283C107.944 66.3045 109.303 66.8909 110.729 66.9144Z" fill="white"/>
<path d="M111.42 67.3081H110.722C109.193 67.2885 107.734 66.6639 106.664 65.5709C105.594 64.4779 105 63.0055 105.012 61.4755C105.012 60.361 105.116 57.6936 105.116 57.6936C105.12 57.6128 105.149 57.5352 105.197 57.4707C105.728 56.7872 106.202 56.0616 106.616 55.3011C107.008 54.2314 107.257 53.1147 107.358 51.9799C107.365 51.8955 107.399 51.8157 107.455 51.7526C107.511 51.6895 107.587 51.6467 107.67 51.6306C107.752 51.6141 107.838 51.6256 107.913 51.6633C107.989 51.701 108.049 51.7627 108.086 51.8387C108.086 51.8387 108.969 53.503 112.043 54.6621C113.989 55.4051 116.498 56.2967 116.498 56.2967C116.564 56.3193 116.623 56.3597 116.667 56.4134C116.712 56.4672 116.741 56.5322 116.751 56.6014C117.008 58.2596 117.164 59.932 117.218 61.6092C117.197 63.132 116.576 64.5847 115.49 65.6518C114.404 66.7189 112.941 67.3141 111.42 67.3081ZM110.729 66.5651H111.375C112.033 66.5807 112.688 66.4623 113.3 66.2171C113.911 65.9718 114.466 65.6049 114.932 65.1385C115.4 64.6774 115.772 64.1282 116.027 63.5225C116.282 62.9167 116.414 62.2665 116.417 61.6092C116.366 60.0467 116.222 58.4886 115.986 56.9431C115.34 56.7128 113.365 55.9921 111.754 55.3828C110.331 54.8946 109.042 54.0804 107.989 53.0052C107.857 53.8968 107.628 54.7714 107.306 55.6132C106.897 56.3983 106.418 57.1444 105.873 57.8422C105.873 58.3771 105.777 60.517 105.769 61.4829C105.761 62.1412 105.883 62.7945 106.128 63.4056C106.373 64.0167 106.735 64.5735 107.195 65.0441C107.655 65.5148 108.204 65.89 108.809 66.1485C109.414 66.4069 110.064 66.5434 110.722 66.5502L110.729 66.5651Z" fill="#231F20"/>
<path d="M111.278 61.2006C110.963 61.1994 110.649 61.1821 110.336 61.1486C110.236 61.1338 110.145 61.0804 110.084 60.9998C110.023 60.9193 109.996 60.8179 110.009 60.7176C110.015 60.6677 110.031 60.6195 110.057 60.5759C110.082 60.5323 110.115 60.4941 110.156 60.4637C110.196 60.4333 110.241 60.4111 110.29 60.3986C110.339 60.3861 110.39 60.3834 110.439 60.3907C110.896 60.4359 111.356 60.4359 111.813 60.3907C111.721 59.3377 111.453 58.3078 111.019 57.3444C110.982 57.2458 110.986 57.1369 111.03 57.0414C111.074 56.946 111.154 56.8719 111.253 56.8354C111.351 56.7989 111.46 56.8031 111.555 56.847C111.651 56.8909 111.725 56.9709 111.761 57.0695C112.11 57.9685 112.89 60.1529 112.504 60.8439C112.456 60.9251 112.391 60.9941 112.312 61.0457C112.233 61.0973 112.144 61.1299 112.051 61.1411C111.795 61.1771 111.537 61.197 111.278 61.2006Z" fill="#231F20"/>
<path d="M109.002 58.1593C109.007 57.6546 108.846 57.2436 108.641 57.2413C108.436 57.2391 108.265 57.6464 108.259 58.1511C108.254 58.6558 108.416 59.0668 108.621 59.069C108.826 59.0713 108.996 58.664 109.002 58.1593Z" fill="#231F20"/>
<path d="M113.912 58.0394C113.918 57.5347 113.756 57.1237 113.551 57.1215C113.346 57.1192 113.175 57.5265 113.17 58.0312C113.164 58.5359 113.326 58.9469 113.531 58.9492C113.736 58.9514 113.906 58.5441 113.912 58.0394Z" fill="#231F20"/>
<path d="M117.567 71.3873C117.567 72.8733 117.679 75.8973 114.479 81.5144L111.375 78.104C112.169 76.618 114.219 75.6001 114.382 70.2727C114.382 70.139 114.382 70.0127 114.382 69.8789C114.421 69.8553 114.464 69.8378 114.508 69.8269C115.674 69.3217 117.404 70.2133 117.567 70.8374C117.584 71.0203 117.584 71.2044 117.567 71.3873Z" fill="white"/>
<path d="M114.479 81.8932C114.426 81.8942 114.374 81.8841 114.325 81.8636C114.276 81.8431 114.233 81.8127 114.196 81.7744L111.056 78.364C111.002 78.3058 110.968 78.2325 110.957 78.1541C110.946 78.0757 110.96 77.9959 110.996 77.9256C111.209 77.5318 111.457 77.1587 111.739 76.8111C112.66 75.6445 113.803 74.1957 113.922 70.2577C113.929 70.1315 113.929 70.005 113.922 69.8788C113.921 69.8127 113.938 69.7476 113.97 69.6901C114.003 69.6327 114.05 69.5849 114.107 69.5519C114.17 69.5134 114.237 69.4834 114.308 69.4627C114.703 69.3273 115.123 69.2751 115.539 69.3097C115.956 69.3442 116.361 69.4646 116.728 69.6633C117.018 69.8045 117.716 70.1909 117.857 70.7407C117.892 70.9568 117.904 71.1759 117.894 71.3945V71.6026C117.894 73.2223 117.894 76.2538 114.746 81.7001C114.718 81.7539 114.676 81.7998 114.626 81.8335C114.575 81.8673 114.517 81.8878 114.456 81.8932H114.479ZM111.806 78.0519L114.397 80.8679C117.159 75.8749 117.174 73.1035 117.189 71.5952V71.3871C117.202 71.2338 117.202 71.0797 117.189 70.9265C117.004 70.6675 116.745 70.4706 116.446 70.3618C115.92 70.0816 115.309 70.0074 114.731 70.1537C114.727 70.1982 114.727 70.243 114.731 70.2875C114.597 74.478 113.313 76.1052 112.377 77.294C112.162 77.5615 111.969 77.8216 111.806 78.0519Z" fill="#231F20"/>
<path d="M111.056 78.1336L107.611 81.5366C103.824 78.9212 104.581 71.3128 104.7 70.8596C104.849 70.5297 105.113 70.2655 105.442 70.1166C105.801 69.8876 106.209 69.7473 106.632 69.7072C107.056 69.6672 107.483 69.7285 107.878 69.8863V69.968C108.026 75.496 110.239 76.6031 111.056 78.1336Z" fill="white"/>
<path d="M107.61 81.8934C107.531 81.8941 107.454 81.8708 107.388 81.8266C103.215 78.9437 104.314 70.8152 104.336 70.7409C104.507 70.3214 104.827 69.98 105.234 69.7824C105.648 69.5219 106.118 69.3643 106.605 69.323C107.092 69.2816 107.582 69.3576 108.034 69.5447C108.096 69.5778 108.148 69.6271 108.184 69.6872C108.221 69.7473 108.241 69.8161 108.242 69.8864V69.9682C108.346 74.0473 109.571 75.5853 110.558 76.8187C110.864 77.1735 111.135 77.5566 111.368 77.9629C111.406 78.0357 111.421 78.119 111.409 78.2005C111.396 78.2821 111.359 78.3576 111.301 78.4162L107.856 81.7968C107.787 81.8557 107.701 81.8898 107.61 81.8934ZM105.606 70.4511C105.385 70.5582 105.2 70.7256 105.071 70.9341C104.9 71.6177 104.373 78.4385 107.573 81.0093L110.543 78.0372C110.38 77.7846 110.18 77.532 109.957 77.2496C108.962 76.0163 107.618 74.3296 107.469 70.0945C106.829 69.9527 106.158 70.0646 105.598 70.4065L105.606 70.4511Z" fill="#231F20"/>
<path d="M112.199 62.1665H110.402C110.402 62.1665 110.194 65.3837 111.301 65.0419C112.199 64.7596 112.429 63.3479 112.199 62.1665Z" fill="#231F20"/>
<path d="M102.881 70.2727C102.569 69.3068 80.7172 81.3064 76.7968 83.9515C72.8764 86.5966 67.7234 106.242 67.7234 106.242L75.9801 106.643C75.9801 106.643 82.4175 91.1958 85.2984 88.6918C88.1793 86.1879 100.445 81.5144 100.445 81.5144L102.881 70.2727Z" fill="#C5C5C5"/>
<path d="M217.196 38.3086C217.467 37.5632 217.605 36.7761 217.604 35.983C217.463 35.24 216.921 33.858 217.196 33.011C217.471 32.1639 218.421 29.5188 219.52 29.5857C220.619 29.6526 223.893 30.5442 224.235 32.1862C224.577 33.8283 221.265 42.2094 221.265 42.2094L217.196 38.3086Z" fill="white"/>
<path d="M221.265 42.5809C221.168 42.58 221.076 42.5429 221.005 42.4769L216.973 38.5761C216.923 38.527 216.887 38.4649 216.87 38.3967C216.853 38.3284 216.856 38.2568 216.877 38.1898C217.139 37.5066 217.274 36.7816 217.278 36.0499C217.241 35.8567 217.181 35.6338 217.114 35.3812C216.813 34.5776 216.731 33.7082 216.877 32.8624C217.144 31.9782 218.132 29.0805 219.58 29.1474C220.53 29.2068 224.228 30.0836 224.636 32.0451C224.992 33.7466 221.956 41.4441 221.607 42.3134C221.585 42.3714 221.549 42.4229 221.503 42.4632C221.456 42.5035 221.4 42.5312 221.339 42.5438L221.265 42.5809ZM217.656 38.2046L221.124 41.5556C222.431 38.2046 224.131 33.2934 223.908 32.2234C223.634 30.886 220.678 29.9944 219.535 29.9201C218.934 29.9201 218.05 31.4953 217.582 33.0779C217.493 33.7907 217.577 34.5147 217.827 35.188C217.901 35.4629 217.968 35.7081 218.005 35.931C218.024 36.7067 217.893 37.4787 217.619 38.2046H217.656Z" fill="#231F20"/>
<path d="M212.147 28.5455L230.806 38.0782L237.496 25.0979L218.681 16.1001L212.147 28.5455Z" fill="white"/>
<path d="M230.806 38.4423C230.746 38.4427 230.687 38.4273 230.635 38.3977L211.976 28.8872C211.931 28.8649 211.89 28.8336 211.857 28.7954C211.824 28.7571 211.799 28.7125 211.783 28.6643C211.763 28.6173 211.753 28.5668 211.753 28.5157C211.753 28.4647 211.763 28.4141 211.783 28.3671L218.31 15.9218C218.354 15.8324 218.433 15.7644 218.527 15.7324C218.622 15.7004 218.725 15.707 218.815 15.7509L237.63 24.7487C237.677 24.7699 237.719 24.8006 237.753 24.839C237.788 24.8774 237.814 24.9225 237.83 24.9716C237.85 25.0186 237.86 25.0691 237.86 25.1202C237.86 25.1713 237.85 25.2218 237.83 25.2688L231.148 38.2491C231.114 38.3095 231.064 38.3594 231.004 38.3934C230.944 38.4275 230.875 38.4444 230.806 38.4423ZM212.667 28.382L230.643 37.5581L236.976 25.2688L218.852 16.6053L212.667 28.382Z" fill="#231F20"/>
<path d="M162.459 38.3086C162.185 37.5642 162.046 36.7764 162.051 35.983C162.184 35.24 162.734 33.858 162.459 33.011C162.184 32.1639 161.226 29.5188 160.135 29.5857C159.043 29.6526 155.762 30.5442 155.42 32.1862C155.079 33.8283 158.427 42.2465 158.427 42.2465L162.459 38.3086Z" fill="white"/>
<path d="M158.427 42.5808H158.346C158.286 42.5658 158.231 42.5372 158.185 42.4973C158.138 42.4573 158.102 42.407 158.078 42.3504C157.737 41.4811 154.7 33.7836 155.056 32.0821C155.465 30.1206 159.155 29.2438 160.113 29.1844C161.546 29.0803 162.541 31.9855 162.815 32.8994C162.953 33.7455 162.871 34.6129 162.578 35.4182C162.511 35.6708 162.452 35.8937 162.414 36.0869C162.417 36.818 162.55 37.5427 162.808 38.2268C162.833 38.2927 162.838 38.3647 162.822 38.4335C162.806 38.5022 162.77 38.5648 162.719 38.6131L158.687 42.5139C158.611 42.5666 158.519 42.5903 158.427 42.5808ZM160.179 29.9497C159.036 30.024 156.081 30.9156 155.806 32.253C155.583 33.3229 157.291 38.197 158.591 41.5851L162.058 38.2342C161.791 37.502 161.673 36.7241 161.709 35.9457C161.746 35.7377 161.813 35.4925 161.88 35.2027C162.13 34.5294 162.214 33.8054 162.125 33.0926C161.627 31.5174 160.781 29.9199 160.179 29.9199V29.9497Z" fill="#231F20"/>
<path d="M209.704 193.411C209.771 193.619 209.088 199.912 209.704 200.938C210.32 201.963 216.335 204.905 218.933 202.988C221.532 201.071 219.55 199.452 218.933 198.53C218.317 197.609 215.718 191.992 215.718 191.992L209.704 193.411Z" fill="#231F20"/>
<path d="M216.632 203.992C216.061 203.987 215.491 203.927 214.931 203.813C212.526 203.33 209.868 201.934 209.385 201.131C208.902 200.329 209.021 198.085 209.274 194.563C209.274 194.065 209.34 193.552 209.34 193.463C209.32 193.422 209.31 193.376 209.31 193.33C209.31 193.283 209.32 193.237 209.34 193.196C209.4 193.117 209.488 193.063 209.585 193.047L215.607 191.613C215.691 191.593 215.779 191.603 215.856 191.641C215.933 191.679 215.995 191.743 216.03 191.821C216.03 191.873 218.622 197.416 219.216 198.315C219.315 198.462 219.422 198.603 219.535 198.739C219.867 199.067 220.129 199.46 220.305 199.893C220.481 200.326 220.568 200.79 220.56 201.257C220.473 201.676 220.301 202.072 220.055 202.421C219.808 202.77 219.492 203.065 219.127 203.286C218.39 203.778 217.517 204.025 216.632 203.992ZM210.076 193.731C210.076 193.917 210.076 194.191 210.016 194.637C209.905 196.123 209.63 200.106 210.016 200.767C210.321 201.287 212.674 202.625 215.073 203.107C216.186 203.33 217.716 203.442 218.703 202.714C218.99 202.545 219.239 202.321 219.437 202.054C219.634 201.788 219.776 201.484 219.854 201.161C219.828 200.42 219.513 199.719 218.978 199.207C218.844 199.036 218.718 198.872 218.622 198.731C218.072 197.892 216.053 193.53 215.511 192.416L210.076 193.731Z" fill="#231F20"/>
<path d="M164.204 190.64C164.204 190.64 159.073 199.162 159.897 201.413C160.722 203.665 168.206 201.725 169.639 200.083C171.072 198.441 171.176 188.485 171.176 188.485L164.204 190.64Z" fill="#231F20"/>
<path d="M162.385 202.81C162.004 202.814 161.623 202.782 161.249 202.714C160.885 202.691 160.535 202.57 160.236 202.363C159.936 202.156 159.699 201.871 159.548 201.54C158.694 199.184 163.35 191.338 163.885 190.447C163.932 190.369 164.006 190.312 164.092 190.283L171.065 188.128C171.121 188.111 171.181 188.107 171.239 188.117C171.297 188.127 171.352 188.151 171.4 188.186C171.447 188.222 171.485 188.268 171.51 188.321C171.536 188.375 171.549 188.433 171.547 188.493C171.547 189.525 171.399 198.627 169.921 200.329C168.882 201.51 165.08 202.81 162.385 202.81ZM164.449 190.922C162.429 194.295 159.697 199.742 160.246 201.257C160.373 201.607 160.751 201.837 161.382 201.956C163.699 202.394 168.317 200.997 169.357 199.809C170.396 198.62 170.738 192 170.797 188.961L164.449 190.922Z" fill="#231F20"/>
<path d="M177.948 107.824C177.948 107.824 170.871 148.051 168.614 157.903C166.357 167.755 162.258 191.977 162.258 191.977C162.258 191.977 165.54 194.206 170.871 192.794L190.637 131.422L209.199 194.437L217.196 192.594L204.098 110.625L177.948 107.824Z" fill="#231F20"/>
<path d="M209.229 194.808C209.148 194.809 209.07 194.784 209.005 194.735C208.941 194.687 208.894 194.618 208.873 194.541L190.622 132.685L171.22 192.913C171.202 192.971 171.169 193.023 171.125 193.065C171.081 193.107 171.027 193.136 170.968 193.151C165.533 194.637 162.184 192.408 162.058 192.282C162 192.241 161.954 192.184 161.927 192.119C161.899 192.053 161.891 191.981 161.902 191.91C161.947 191.673 166.03 167.569 168.265 157.821C170.5 148.073 177.524 108.159 177.599 107.757C177.613 107.665 177.663 107.581 177.738 107.525C177.813 107.468 177.906 107.442 177.999 107.453L204.15 110.254C204.232 110.263 204.307 110.298 204.367 110.355C204.426 110.411 204.464 110.485 204.477 110.566L217.604 192.535C217.62 192.627 217.599 192.722 217.547 192.799C217.494 192.877 217.414 192.931 217.322 192.951L209.326 194.801L209.229 194.808ZM190.667 131.051C190.746 131.052 190.822 131.079 190.885 131.127C190.948 131.175 190.993 131.242 191.016 131.318L209.504 193.998L216.825 192.304L203.779 110.967L178.252 108.226C177.554 112.171 171.094 148.719 168.978 158.007C166.862 167.295 163.105 189.213 162.667 191.806C163.409 192.237 166.32 193.597 170.582 192.512L190.288 131.318C190.309 131.242 190.354 131.174 190.417 131.126C190.48 131.077 190.557 131.051 190.637 131.051H190.667Z" fill="#231F20"/>
<path d="M222.832 39.059C220.916 46.3107 208.472 78.1708 207.514 80.3627C206.556 82.5546 207.38 111.859 207.38 111.859C199.443 116.926 176.745 114.727 176.336 113.776C175.928 112.825 176.477 92.6966 175.794 88.8701C175.111 85.0436 156.667 39.7425 156.667 39.7425L163.231 37.5581L170.032 52.2325C170.032 52.2325 178.096 65.8815 180.012 67.2486C180.691 67.6645 181.45 67.9352 182.239 68.0437C184.141 68.3569 186.067 68.4887 187.994 68.4375C191.81 69.5297 196.495 68.0437 199.057 66.7954C199.527 66.5812 199.981 66.3329 200.416 66.0524C202.183 64.8116 216.81 37.5581 216.81 37.5581L222.832 39.059Z" fill="#C5C5C5"/>
<path d="M199.049 66.7954L190.822 98.8561L182.232 68.0437C184.133 68.3569 186.06 68.4887 187.986 68.4375C191.803 69.5297 196.488 68.0437 199.049 66.7954Z" fill="#231F20"/>
<path d="M190.823 99.2276C190.742 99.2276 190.664 99.2016 190.6 99.1533C190.536 99.1051 190.489 99.0373 190.466 98.9602L181.913 68.1625C181.896 68.101 181.894 68.0362 181.909 67.9739C181.923 67.9117 181.952 67.854 181.994 67.8059C182.037 67.7575 182.092 67.7215 182.153 67.7019C182.215 67.6822 182.28 67.6797 182.343 67.6945C184.218 68.0004 186.117 68.1298 188.016 68.0808H188.127C191.595 69.0764 195.983 67.8951 198.923 66.4611C198.987 66.4333 199.058 66.4239 199.127 66.4337C199.196 66.4436 199.261 66.4725 199.315 66.5171C199.369 66.5617 199.409 66.6203 199.432 66.6865C199.454 66.7527 199.458 66.8238 199.443 66.892L191.216 98.9527C191.197 99.0326 191.152 99.1035 191.087 99.1536C191.022 99.2037 190.942 99.2298 190.86 99.2276H190.823ZM182.752 68.5118L190.823 97.4221L198.507 67.4641C195.493 68.7867 191.342 69.76 187.956 68.809C186.216 68.8546 184.475 68.7552 182.752 68.5118Z" fill="#231F20"/>
<path d="M197.267 57.3072C197.36 57.0641 197.439 56.816 197.505 56.5642C198.812 51.757 196.889 45.5752 191.231 45.1888C189.935 45.1348 188.651 45.4497 187.528 46.0967C186.404 46.7438 185.487 47.6966 184.882 48.8444C183.256 51.6752 183.709 55.2937 184.006 58.4069C184.007 58.6134 184.069 58.8151 184.185 58.9864C184.511 59.3654 185.142 59.1127 185.558 59.1053C186.16 59.1053 186.791 59.1945 187.392 59.2316C188.446 59.2836 189.493 59.3208 190.54 59.2985C192.056 59.3642 193.575 59.322 195.084 59.1722C195.723 59.0682 196.161 59.0682 196.569 58.5481C196.874 58.1796 197.111 57.7593 197.267 57.3072Z" fill="white"/>
<path d="M192.827 59.6626H191.892H190.57C189.649 59.6626 188.64 59.6626 187.4 59.5957L186.657 59.5363C186.293 59.5363 185.915 59.462 185.558 59.4694H185.239C185.063 59.5511 184.87 59.5863 184.677 59.5715C184.484 59.5568 184.298 59.4926 184.137 59.3851C183.976 59.2777 183.845 59.1306 183.757 58.958C183.669 58.7853 183.627 58.593 183.635 58.3995V57.9685C183.331 54.8999 182.989 51.4152 184.593 48.6141C185.235 47.4134 186.203 46.4187 187.385 45.7443C188.567 45.07 189.916 44.7435 191.275 44.8024C192.328 44.8599 193.354 45.1575 194.274 45.6727C195.194 46.1878 195.984 46.9067 196.584 47.7745C197.42 49.0836 197.968 50.5555 198.192 52.0927C198.416 53.6299 198.311 55.1971 197.884 56.6905C197.814 56.9421 197.733 57.1901 197.639 57.4335C197.468 57.911 197.217 58.3558 196.896 58.7487C196.715 58.97 196.489 59.1506 196.233 59.2787C195.977 59.4067 195.697 59.4793 195.411 59.4917H195.188C194.407 59.6124 193.618 59.6696 192.827 59.6626ZM190.964 58.9196H191.907C192.955 58.9639 194.006 58.9192 195.047 58.7858H195.277C195.474 58.7907 195.67 58.7527 195.851 58.6745C196.032 58.5962 196.193 58.4795 196.324 58.3326C196.583 58.0008 196.786 57.6295 196.926 57.2329C197.007 56.9952 197.082 56.75 197.149 56.4899C197.546 55.1042 197.645 53.6498 197.439 52.223C197.233 50.7961 196.726 49.4293 195.953 48.2128C195.415 47.44 194.706 46.8009 193.883 46.345C193.059 45.889 192.141 45.6282 191.201 45.5826C189.988 45.5396 188.787 45.8395 187.737 46.448C186.686 47.0564 185.828 47.9487 185.261 49.0227C183.776 51.6232 184.103 54.9668 184.392 57.9388L184.437 58.3697C184.439 58.4986 184.47 58.6254 184.526 58.7412C184.623 58.8527 184.86 58.8304 185.194 58.7412L185.61 58.6967C186.004 58.6967 186.397 58.6967 186.783 58.7635L187.474 58.823C188.699 58.8824 189.701 58.9047 190.6 58.8898L190.964 58.9196Z" fill="#231F20"/>
<path d="M186.182 57.8941C185.885 55.5017 181.964 54.7809 182.061 57.5895C182.062 58.5628 182.401 59.5055 183.019 60.2569C183.334 60.627 183.752 60.8952 184.22 61.0274C184.688 61.1597 185.185 61.1501 185.647 60.9999" fill="white"/>
<path d="M184.883 61.4755C184.476 61.4693 184.075 61.3797 183.705 61.2123C183.335 61.0449 183.003 60.8032 182.729 60.5021C182.049 59.6873 181.675 58.6591 181.675 57.597C181.631 57.3302 181.643 57.057 181.712 56.7953C181.781 56.5337 181.904 56.2896 182.074 56.0791C182.243 55.8686 182.456 55.6964 182.697 55.5738C182.938 55.4512 183.202 55.3811 183.472 55.368C184.195 55.3162 184.911 55.5379 185.479 55.9892C186.047 56.4404 186.425 57.0884 186.538 57.805C186.545 57.8538 186.541 57.9034 186.528 57.9509C186.516 57.9984 186.494 58.0429 186.464 58.0819C186.434 58.1209 186.396 58.1535 186.354 58.1781C186.311 58.2026 186.264 58.2185 186.215 58.2248C186.167 58.2312 186.117 58.2278 186.07 58.215C186.022 58.2022 185.978 58.1802 185.939 58.1502C185.9 58.1202 185.867 58.0828 185.843 58.0401C185.818 57.9975 185.802 57.9504 185.796 57.9016C185.704 57.3757 185.421 56.9022 185.002 56.5718C184.583 56.2414 184.056 56.0774 183.524 56.111C183.093 56.111 182.373 56.3785 182.41 57.5375C182.404 58.4339 182.717 59.3031 183.294 59.9895C183.563 60.3005 183.918 60.5249 184.314 60.6347C184.71 60.7444 185.13 60.7345 185.521 60.6062C185.612 60.5712 185.713 60.5725 185.803 60.6098C185.892 60.6472 185.964 60.7177 186.004 60.8068C186.039 60.8987 186.038 61.0006 186.001 61.0918C185.963 61.1829 185.893 61.2564 185.803 61.2972C185.511 61.4159 185.198 61.4765 184.883 61.4755Z" fill="#231F20"/>
<path d="M194.728 57.8941C195.025 55.5017 198.953 54.7809 198.856 57.5895C198.856 58.5642 198.515 59.5081 197.891 60.2569C197.577 60.6272 197.16 60.8956 196.694 61.028C196.227 61.1603 195.731 61.1505 195.27 60.9999" fill="white"/>
<path d="M196.02 61.4754C195.715 61.4774 195.413 61.4219 195.129 61.312C195.038 61.2727 194.966 61.1993 194.929 61.1077C194.891 61.016 194.891 60.9133 194.929 60.8216C194.966 60.7313 195.038 60.6595 195.129 60.6219C195.219 60.5843 195.321 60.584 195.411 60.621C195.802 60.7483 196.222 60.7577 196.618 60.648C197.014 60.5384 197.369 60.3145 197.639 60.0043C198.198 59.3188 198.503 58.46 198.5 57.5747C198.537 56.4156 197.817 56.1852 197.386 56.1481C196.854 56.1161 196.329 56.2808 195.91 56.6109C195.491 56.941 195.208 57.4135 195.114 57.9387C195.101 58.0362 195.05 58.1246 194.972 58.1845C194.894 58.2444 194.796 58.2709 194.698 58.2582C194.65 58.2528 194.603 58.2376 194.56 58.2135C194.517 58.1894 194.48 58.157 194.45 58.1181C194.42 58.0793 194.399 58.0348 194.387 57.9874C194.374 57.94 194.372 57.8906 194.379 57.8421C194.492 57.1255 194.87 56.4775 195.438 56.0263C196.006 55.575 196.722 55.3534 197.446 55.4051C197.716 55.4182 197.98 55.4883 198.221 55.6109C198.462 55.7335 198.674 55.9057 198.844 56.1162C199.013 56.3267 199.137 56.5708 199.205 56.8325C199.274 57.0941 199.287 57.3673 199.242 57.6341C199.242 58.6976 198.866 59.7267 198.181 60.5393C197.903 60.8344 197.569 61.0698 197.197 61.2308C196.825 61.3918 196.425 61.475 196.02 61.4754Z" fill="#231F20"/>
<path d="M185.885 69.7822C187.445 70.4554 189.124 70.8067 190.823 70.815C193.926 70.9264 194.453 70.072 194.453 70.072L194.379 68.4076L194.208 64.5292L194.045 60.9107L186.939 60.6655L186.598 63.6376L186.494 64.5886L185.885 69.7822Z" fill="white"/>
<path d="M191.342 71.194H190.822C189.074 71.1852 187.346 70.8185 185.744 70.1167C185.676 70.0833 185.62 70.0295 185.584 69.963C185.548 69.8964 185.534 69.8202 185.543 69.7452L186.583 60.6359C186.592 60.5433 186.637 60.4578 186.707 60.397C186.778 60.3362 186.869 60.3047 186.961 60.309L194.067 60.5542C194.161 60.5593 194.249 60.5983 194.316 60.664C194.383 60.7296 194.424 60.8173 194.431 60.9108L194.839 70.0721C194.843 70.146 194.822 70.219 194.78 70.2801C194.654 70.4361 194.038 71.194 191.342 71.194ZM186.278 69.552C187.729 70.1125 189.267 70.4143 190.822 70.4436C193.05 70.5179 193.837 70.0944 194.06 69.9309L193.674 61.2749L187.251 61.052L186.278 69.552Z" fill="#231F20"/>
<path d="M186.479 64.5665C187.034 65.4506 187.799 66.1832 188.706 66.6989C190.191 67.5979 192.456 68.6307 194.327 68.4152L194.156 64.5367C192.799 64.6638 191.431 64.6339 190.08 64.4476C188.875 64.3572 187.691 64.0842 186.568 63.6377L186.479 64.5665Z" fill="#231F20"/>
<path d="M193.837 68.8164C191.855 68.8164 189.716 67.7167 188.55 67.0183C187.578 66.4894 186.755 65.7225 186.16 64.7893C186.117 64.7234 186.098 64.6445 186.108 64.5664L186.212 63.6079C186.219 63.5499 186.24 63.4943 186.272 63.4454C186.304 63.3964 186.347 63.3555 186.397 63.3256C186.45 63.2982 186.508 63.2839 186.568 63.2839C186.627 63.2839 186.686 63.2982 186.739 63.3256C187.828 63.7451 188.975 63.9957 190.139 64.0686C191.466 64.2677 192.813 64.3051 194.149 64.18C194.199 64.1752 194.251 64.1806 194.299 64.1959C194.347 64.2112 194.392 64.2361 194.431 64.2692C194.471 64.3021 194.503 64.3428 194.526 64.3889C194.549 64.4349 194.562 64.4853 194.565 64.5367L194.735 68.4077C194.74 68.5015 194.709 68.5935 194.648 68.6652C194.587 68.7369 194.502 68.7829 194.409 68.7941C194.219 68.8126 194.028 68.82 193.837 68.8164ZM186.858 64.4847C187.391 65.2721 188.103 65.9215 188.937 66.3793C189.842 66.9217 192.062 68.1328 193.978 68.066L193.837 64.9453C192.57 65.0237 191.299 64.9714 190.043 64.7893C188.972 64.6984 187.916 64.484 186.895 64.1503L186.858 64.4847Z" fill="#231F20"/>
<path d="M196.681 51.445L196.376 60.0713C196.369 60.4399 196.319 60.8064 196.228 61.1635C195.933 62.383 195.227 63.4635 194.229 64.2228C193.231 64.9821 192.001 65.3738 190.748 65.3318H190.11C188.934 65.2902 187.803 64.8689 186.886 64.131C185.97 63.3931 185.316 62.3781 185.024 61.2378C184.895 60.7331 184.838 60.2129 184.853 59.6924L185.157 51.0735C185.157 51.0735 186.501 52.8493 190.355 52.8121C192.538 52.8233 194.697 52.3566 196.681 51.445Z" fill="white"/>
<path d="M190.934 65.7032H190.733H190.095C188.839 65.6543 187.633 65.2024 186.654 64.4143C185.675 63.6261 184.976 62.5436 184.66 61.3269C184.525 60.7878 184.465 60.2328 184.482 59.6774L184.786 51.0511C184.787 50.9748 184.812 50.9008 184.857 50.8395C184.902 50.7782 184.966 50.7327 185.038 50.7093C185.112 50.6865 185.191 50.6871 185.264 50.7111C185.337 50.735 185.401 50.7811 185.447 50.8431C185.447 50.8431 186.783 52.4925 190.355 52.4331C192.473 52.4511 194.571 52.0101 196.503 51.1403C196.559 51.1076 196.623 51.0905 196.688 51.0905C196.753 51.0905 196.817 51.1076 196.874 51.1403C196.928 51.1751 196.973 51.2237 197.003 51.281C197.033 51.3383 197.047 51.4025 197.045 51.4672L196.762 60.0861C196.754 60.4795 196.702 60.8708 196.607 61.2526C196.294 62.5223 195.566 63.6507 194.538 64.4574C193.509 65.2642 192.241 65.7028 190.934 65.7032ZM185.499 51.8535L185.224 59.6848C185.178 61.0317 185.668 62.3417 186.587 63.3268C187.506 64.3119 188.779 64.8914 190.125 64.9379H190.763C191.929 64.9723 193.072 64.6062 194.001 63.9006C194.93 63.195 195.591 62.1924 195.871 61.0594C195.952 60.7234 195.997 60.3796 196.005 60.034L196.287 52.0096C194.396 52.7545 192.38 53.1352 190.347 53.1315C188.636 53.2383 186.936 52.7901 185.499 51.8535Z" fill="#231F20"/>
<path d="M190.882 55.5315C190.882 55.5315 192.671 59.4843 191.877 59.5586C191.208 59.5291 190.553 59.3515 189.961 59.0385" fill="white"/>
<path d="M191.743 59.9227C191.06 59.868 190.395 59.6733 189.79 59.3506C189.744 59.3297 189.702 59.2995 189.668 59.2619C189.634 59.2242 189.608 59.18 189.591 59.1318C189.575 59.0836 189.568 59.0325 189.572 58.9817C189.577 58.931 189.591 58.8816 189.615 58.8366C189.639 58.7917 189.672 58.7522 189.712 58.7206C189.752 58.6889 189.798 58.6658 189.847 58.6527C189.896 58.6396 189.947 58.6367 189.998 58.6443C190.048 58.6519 190.096 58.6697 190.139 58.6967C190.63 58.9525 191.164 59.1161 191.714 59.1797C191.5 57.9595 191.108 56.7776 190.548 55.6727C190.527 55.6289 190.514 55.5813 190.512 55.5327C190.51 55.4842 190.517 55.4356 190.533 55.3899C190.55 55.3442 190.576 55.3022 190.609 55.2666C190.642 55.2309 190.682 55.2023 190.726 55.1823C190.817 55.1418 190.92 55.1386 191.013 55.1733C191.106 55.2081 191.181 55.278 191.223 55.3681C191.81 56.6683 192.708 58.9568 192.352 59.6329C192.307 59.7114 192.243 59.7779 192.167 59.8269C192.091 59.876 192.004 59.9063 191.914 59.9153L191.743 59.9227Z" fill="#231F20"/>
<path d="M188.357 55.7693C188.562 55.7693 188.729 55.39 188.729 54.9222C188.729 54.4544 188.562 54.0752 188.357 54.0752C188.152 54.0752 187.986 54.4544 187.986 54.9222C187.986 55.39 188.152 55.7693 188.357 55.7693Z" fill="#231F20"/>
<path d="M193.703 55.7693C193.908 55.7693 194.075 55.39 194.075 54.9222C194.075 54.4544 193.908 54.0752 193.703 54.0752C193.498 54.0752 193.332 54.4544 193.332 54.9222C193.332 55.39 193.498 55.7693 193.703 55.7693Z" fill="#231F20"/>
<path d="M159.519 30.3213C158.826 30.453 158.177 30.7571 157.633 31.2055C157.076 31.6141 156.489 32.1491 156.504 32.8327C156.502 32.9067 156.528 32.9787 156.578 33.0333C156.643 33.0726 156.72 33.0859 156.794 33.0704C157.807 33.002 158.786 32.6745 159.637 32.1194C159.203 32.5317 158.903 33.066 158.777 33.6521C158.651 34.2382 158.705 34.8487 158.932 35.4035L159.073 35.448" fill="white"/>
<path d="M159.036 35.827H158.925L158.784 35.7825C158.732 35.7674 158.685 35.7408 158.645 35.7048C158.605 35.6688 158.574 35.6242 158.553 35.5744C158.234 34.7806 158.234 33.894 158.553 33.1002C158.009 33.2994 157.439 33.4219 156.861 33.4643C156.687 33.4881 156.511 33.4427 156.371 33.338C156.306 33.2784 156.255 33.206 156.22 33.1253C156.186 33.0447 156.169 32.9576 156.17 32.8699C156.205 32.4675 156.336 32.0795 156.552 31.7382C156.767 31.3969 157.062 31.1123 157.41 30.9083C158.001 30.4169 158.71 30.089 159.467 29.9573C159.515 29.9511 159.564 29.9547 159.611 29.9679C159.658 29.9811 159.702 30.0036 159.74 30.0341C159.778 30.0646 159.81 30.1025 159.833 30.1454C159.856 30.1884 159.871 30.2356 159.875 30.2842C159.886 30.3817 159.857 30.4793 159.796 30.5559C159.735 30.6324 159.646 30.6817 159.548 30.6929C158.922 30.8186 158.338 31.0997 157.848 31.5102C157.232 31.956 156.927 32.32 156.875 32.6916C157.773 32.6044 158.637 32.301 159.392 31.8074C159.471 31.7566 159.566 31.7376 159.659 31.7542C159.751 31.7707 159.834 31.8216 159.89 31.8965C159.946 31.9702 159.972 32.062 159.964 32.1541C159.956 32.2461 159.913 32.3318 159.845 32.3943C159.486 32.7346 159.231 33.1708 159.111 33.6514C158.991 34.132 159.012 34.6369 159.17 35.1063C159.256 35.1427 159.326 35.21 159.366 35.2951C159.406 35.3803 159.413 35.4772 159.385 35.567C159.361 35.641 159.314 35.7056 159.252 35.7522C159.189 35.7987 159.114 35.8249 159.036 35.827Z" fill="#231F20"/>
<path d="M191.565 61.3567L189.538 60.6731C189.538 60.6731 188.677 62.5901 189.79 63.2588C190.904 63.9275 191.565 61.3567 191.565 61.3567Z" fill="#231F20"/>
<path d="M218.25 32.0375C218.338 31.9196 218.45 31.8212 218.578 31.7483C218.705 31.6754 218.847 31.6297 218.993 31.614C219.556 31.4761 220.138 31.4334 220.716 31.4877C221.295 31.5503 221.842 31.7889 222.282 32.1713C222.379 32.2466 222.449 32.3507 222.483 32.4685C222.491 32.5693 222.466 32.6702 222.411 32.755C222.356 32.8398 222.274 32.9038 222.178 32.9366C221.986 32.9939 221.784 33.0116 221.584 32.9886L220.099 32.8846C220.534 33.196 220.9 33.593 221.176 34.0511C221.309 34.2784 221.375 34.5393 221.364 34.8028C221.354 35.0663 221.268 35.3212 221.116 35.5371" fill="white"/>
<path d="M221.131 35.9234C221.045 35.9224 220.962 35.8937 220.894 35.8417C220.819 35.777 220.772 35.6856 220.764 35.587C220.756 35.4884 220.786 35.3905 220.849 35.3142C220.951 35.1503 221.005 34.9611 221.005 34.768C221.005 34.575 220.951 34.3858 220.849 34.2219C220.592 33.8089 220.257 33.4505 219.862 33.1669C219.803 33.1165 219.761 33.0489 219.742 32.9736C219.723 32.8982 219.729 32.8189 219.757 32.7467C219.786 32.6746 219.837 32.6132 219.902 32.5713C219.967 32.5294 220.044 32.509 220.122 32.513L221.607 32.617C221.749 32.6445 221.895 32.6445 222.037 32.617C222.068 32.6031 222.094 32.5797 222.111 32.5502C222.087 32.5205 222.059 32.4931 222.03 32.4684C221.647 32.1385 221.173 31.9337 220.671 31.8815C220.136 31.8294 219.596 31.8697 219.075 32.0003C218.889 32.0375 218.644 32.1118 218.57 32.2455C218.546 32.2885 218.514 32.3263 218.475 32.3568C218.437 32.3873 218.393 32.4099 218.345 32.4234C218.298 32.4368 218.249 32.4409 218.2 32.4352C218.151 32.4295 218.104 32.4143 218.061 32.3904C218.018 32.3665 217.98 32.3344 217.95 32.2959C217.919 32.2574 217.897 32.2132 217.883 32.166C217.87 32.1187 217.866 32.0692 217.872 32.0204C217.877 31.9716 217.892 31.9244 217.916 31.8815C218.029 31.7148 218.176 31.5742 218.348 31.4691C218.52 31.364 218.712 31.2969 218.911 31.2722C219.516 31.1241 220.141 31.0813 220.76 31.1459C221.411 31.2066 222.028 31.466 222.527 31.8889C222.688 32.0163 222.8 32.1944 222.846 32.3941C222.871 32.5785 222.833 32.7659 222.737 32.9253C222.641 33.0847 222.494 33.2066 222.319 33.2709C222.082 33.3557 221.827 33.3812 221.577 33.3452H221.154C221.299 33.5162 221.428 33.7002 221.54 33.895C221.708 34.1913 221.786 34.5299 221.767 34.8699C221.747 35.21 221.629 35.5371 221.428 35.812C221.391 35.8522 221.344 35.8832 221.293 35.9026C221.241 35.9219 221.186 35.9291 221.131 35.9234Z" fill="#231F20"/>
<path d="M190.822 116.963C190.724 116.963 190.63 116.924 190.56 116.854C190.49 116.785 190.451 116.69 190.451 116.592V98.8561C190.451 98.7576 190.49 98.6631 190.56 98.5934C190.63 98.5238 190.724 98.4846 190.822 98.4846C190.92 98.4865 191.014 98.5263 191.083 98.5955C191.152 98.6648 191.192 98.7582 191.194 98.8561V116.592C191.192 116.69 191.152 116.783 191.083 116.852C191.014 116.922 190.92 116.961 190.822 116.963Z" fill="#231F20"/>
</svg>
