<svg width="16" height="16" viewBox="0 0 16 16" fill="none" xmlns="http://www.w3.org/2000/svg">
<path d="M15.4286 1.00001H11.1429L10.8071 0.41563C10.736 0.290697 10.6265 0.185606 10.4908 0.11218C10.3552 0.0387537 10.1988 -9.46239e-05 10.0393 5.47897e-06H5.95714C5.79799 -0.00052985 5.64189 0.0381736 5.50671 0.111682C5.37154 0.18519 5.26277 0.290529 5.19286 0.41563L4.85714 1.00001H0.571428C0.419876 1.00001 0.274531 1.05268 0.167368 1.14645C0.0602039 1.24022 0 1.3674 0 1.5L0 2.5C0 2.63261 0.0602039 2.75979 0.167368 2.85356C0.274531 2.94733 0.419876 3 0.571428 3H15.4286C15.5801 3 15.7255 2.94733 15.8326 2.85356C15.9398 2.75979 16 2.63261 16 2.5V1.5C16 1.3674 15.9398 1.24022 15.8326 1.14645C15.7255 1.05268 15.5801 1.00001 15.4286 1.00001ZM1.9 14.5938C1.92725 14.9746 2.11934 15.332 2.43716 15.5932C2.75498 15.8545 3.17464 16 3.61071 16H12.3893C12.8254 16 13.245 15.8545 13.5628 15.5932C13.8807 15.332 14.0727 14.9746 14.1 14.5938L14.8571 4H1.14286L1.9 14.5938Z" fill="#E13737"/>
</svg>
