<svg width="24" height="24" viewBox="0 0 24 24" fill="none" xmlns="http://www.w3.org/2000/svg">
<path d="M17.3333 9.33333V12V9.33333ZM17.3333 12V14.6667V12ZM17.3333 12H20H17.3333ZM17.3333 12H14.6667H17.3333ZM12.8889 7.55556C12.8889 8.49855 12.5143 9.40292 11.8475 10.0697C11.1807 10.7365 10.2763 11.1111 9.33333 11.1111C8.39034 11.1111 7.48597 10.7365 6.81918 10.0697C6.15238 9.40292 5.77778 8.49855 5.77778 7.55556C5.77778 6.61256 6.15238 5.70819 6.81918 5.0414C7.48597 4.3746 8.39034 4 9.33333 4C10.2763 4 11.1807 4.3746 11.8475 5.0414C12.5143 5.70819 12.8889 6.61256 12.8889 7.55556V7.55556ZM4 19.1111C4 17.6966 4.5619 16.3401 5.5621 15.3399C6.56229 14.3397 7.91885 13.7778 9.33333 13.7778C10.7478 13.7778 12.1044 14.3397 13.1046 15.3399C14.1048 16.3401 14.6667 17.6966 14.6667 19.1111V20H4V19.1111Z" stroke="#21282F" stroke-width="2" stroke-linecap="round" stroke-linejoin="round"/>
</svg>
